<?xml version="1.0" encoding="UTF-8"?>
<!DOCTYPE svg PUBLIC "-//W3C//DTD SVG 1.1//EN" "http://www.w3.org/Graphics/SVG/1.1/DTD/svg11.dtd">
<svg xmlns="http://www.w3.org/2000/svg" version="1.1" width="1024px" height="1024px" style="shape-rendering:geometricPrecision; text-rendering:geometricPrecision; image-rendering:optimizeQuality; fill-rule:evenodd; clip-rule:evenodd" xmlns:xlink="http://www.w3.org/1999/xlink">
<rect x="0" y="0" width="1024" height="1024" fill="#ffffff"/>
<g><path fill="#959fda" stroke="#959fda" stroke-width="0.5" d="M 0,0 C 341.33,0 682.67,0 1024,0 C 1024,341.33 1024,682.67 1024,1024 C 682.67,1024 341.33,1024 0,1024 C 0,682.67 0,341.33 0,0 Z M 28.34,512 C 28.83,601.22 51.85,684.2 97.4,760.96 C 143.11,836.34 204.66,895.16 282.04,937.41 C 337.64,967.32 396.79,985.78 459.5,992.81 C 486.45,995.59 513.45,996.27 540.5,994.84 C 636.69,988.5 723.61,956.74 801.26,899.57 C 871.1,846.94 923.2,780.42 957.57,700.01 C 982.72,640.03 995.41,577.52 995.66,512.5 C 995.24,423.11 972.22,339.96 926.6,263.04 C 880.89,187.66 819.34,128.84 741.96,86.59 C 670.28,48.18 593.79,28.76 512.5,28.34 C 423.11,28.76 339.96,51.78 263.04,97.4 C 187.66,143.11 128.84,204.66 86.59,282.04 C 52.8,345.03 33.66,412.19 29.16,483.5 C 28.8,493 28.52,502.5 28.34,512 Z M 206.89,201 C 206.71,184.02 211.47,168.56 221.17,154.6 C 235,135.85 253.48,125.01 276.59,122.06 C 432.89,121.71 589.19,121.66 745.5,121.94 C 767.01,123.96 784.81,133.15 798.91,149.53 C 810.17,163.18 816.22,178.84 817.05,196.5 C 817.12,406.17 817.13,615.83 817.09,825.5 C 816.81,840.54 812.59,854.4 804.44,867.06 C 792.27,884.95 775.62,896.21 754.49,900.84 C 750.87,901.61 747.2,902.05 743.5,902.15 C 589.83,902.25 436.17,902.27 282.5,902.21 C 265.16,901.68 249.68,896.02 236.08,885.22 C 219.41,871.46 209.77,853.85 207.16,832.38 C 207.05,830.76 206.98,829.13 206.95,827.5 C 206.89,618.67 206.87,409.83 206.89,201 Z M 249.2,201 C 249.2,408.5 249.21,616 249.2,823.5 C 249.44,827.77 250.16,831.95 251.38,836.04 C 257.46,850.87 268.5,858.81 284.5,859.85 C 436.17,859.87 587.83,859.87 739.5,859.85 C 754.16,859.03 764.78,852.06 771.38,838.97 C 772.39,836.84 773.17,834.63 773.72,832.34 C 774.15,829.4 774.51,826.45 774.8,823.5 C 774.8,615.83 774.8,408.17 774.8,200.5 C 774.56,196.23 773.84,192.05 772.62,187.96 C 766.96,173.86 756.58,165.95 741.48,164.24 C 710.21,164.1 678.95,164.1 647.69,164.25 C 647.05,164.84 646.79,165.58 646.9,166.48 C 646.92,178.15 646.91,189.83 646.87,201.5 C 645.96,224 637.2,242.86 620.6,258.1 C 609.21,268.08 596.06,274.34 581.12,276.86 C 577.58,277.17 574.04,277.52 570.5,277.89 C 531.17,277.97 491.83,277.95 452.5,277.84 C 424.75,276.01 403.36,263.39 388.32,240.01 C 384.11,232.93 381.05,225.39 379.14,217.38 C 378.31,213.74 377.71,210.05 377.32,206.33 C 377.09,193.05 377.02,179.77 377.1,166.48 C 377.21,165.58 376.95,164.84 376.31,164.25 C 345.71,164.13 315.1,164.1 284.5,164.14 C 268.5,165.19 257.46,173.13 251.38,187.96 C 250.93,189.47 250.5,190.99 250.1,192.51 C 249.68,195.33 249.38,198.16 249.2,201 Z M 419.75,167 C 419.73,178.5 419.76,190 419.85,201.5 C 420.24,208.88 422.68,215.52 427.17,221.4 C 435,231.01 445.11,235.57 457.5,235.09 C 496.49,235.19 535.49,235.09 574.47,234.79 C 590.23,231.34 599.99,221.77 603.74,206.08 C 604.05,203.56 604.22,201.04 604.24,198.5 C 604.24,187.83 604.24,177.15 604.25,166.48 C 604.35,165.54 604.05,164.79 603.34,164.22 C 542.73,164.14 482.12,164.11 421.51,164.12 C 420.94,164.06 420.47,164.24 420.09,164.66 C 419.81,165.41 419.7,166.2 419.75,167 Z M 320.63,423 C 320.98,413.67 325.41,407.11 333.93,403.29 C 339.06,401.46 344.19,401.46 349.33,403.28 C 350.95,403.93 352.48,404.76 353.92,405.77 C 360.27,411.68 366.43,417.78 372.41,424.07 C 372.9,424.53 373.45,424.63 374.07,424.38 C 386.92,411.63 399.75,398.85 412.55,386.04 C 415.45,383.54 418.77,381.87 422.5,381.03 C 428.23,379.95 433.55,380.95 438.47,384.05 C 443.54,387.59 446.65,392.42 447.79,398.53 C 448.63,405.47 446.76,411.59 442.2,416.9 C 424.25,434.85 406.3,452.82 388.35,470.78 C 383.83,474.83 378.55,476.66 372.5,476.26 C 367.24,476.15 362.68,474.29 358.83,470.67 C 347.45,459.39 336.17,448.02 324.98,436.56 C 321.93,432.55 320.48,428.03 320.63,423 Z M 519.01,429 C 519.75,417.06 525.98,409.85 537.69,407.38 C 539.29,407.22 540.89,407.16 542.5,407.2 C 589.82,407.16 637.14,407.2 684.46,407.31 C 694.05,408.81 700.23,414.21 703,423.5 C 704.23,429.34 703.34,434.83 700.32,439.96 C 695.5,446.82 688.89,450.13 680.5,449.9 C 632.85,449.97 585.19,449.89 537.55,449.66 C 526.33,447.29 520.15,440.41 519.01,429 Z M 320.63,565 C 320.96,555.36 325.59,548.72 334.53,545.09 C 337.43,544.03 340.42,543.65 343.5,543.97 C 347.54,544.32 351.19,545.7 354.46,548.1 C 360.55,553.98 366.55,559.95 372.46,566.01 C 372.93,566.42 373.46,566.52 374.06,566.33 C 386.92,553.61 399.76,540.85 412.56,528.05 C 416.58,524.5 421.28,522.64 426.65,522.46 C 436.1,522.82 442.71,527.33 446.48,535.99 C 448.9,542.41 448.48,548.63 445.2,554.66 C 444.38,556.1 443.4,557.44 442.28,558.66 C 424.43,576.56 406.56,594.44 388.67,612.29 C 384.42,616.34 379.36,618.4 373.5,618.47 C 367.88,618.39 363,616.43 358.88,612.61 C 347.49,601.36 336.2,590 325.01,578.53 C 321.94,574.54 320.48,570.03 320.63,565 Z M 519.01,570 C 519.83,560.27 524.79,553.67 533.9,550.19 C 535.44,549.83 536.98,549.51 538.54,549.24 C 586.19,549.05 633.84,548.99 681.5,549.05 C 692.54,549.5 699.71,554.98 703.01,565.5 C 704.57,572.7 702.94,579.08 698.13,584.63 C 696.38,586.63 694.33,588.24 691.98,589.47 C 689.59,590.6 687.09,591.38 684.48,591.81 C 636.48,591.91 588.49,591.95 540.5,591.92 C 531.1,591.38 524.46,586.83 520.56,578.27 C 519.59,575.6 519.07,572.84 519.01,570 Z M 320.63,707 C 320.91,697.74 325.27,691.19 333.68,687.34 C 338.61,685.49 343.58,685.36 348.59,686.95 C 350.53,687.58 352.32,688.49 353.98,689.67 C 360.26,695.66 366.42,701.77 372.47,707.99 C 372.94,708.38 373.46,708.46 374.03,708.25 C 386.91,695.57 399.74,682.82 412.52,670.01 C 418.03,665.24 424.36,663.57 431.5,665.02 C 440.58,667.44 446.02,673.28 447.82,682.52 C 448.55,689.12 446.84,695.01 442.68,700.18 C 424.53,718.36 406.36,736.53 388.19,754.69 C 384.03,758.5 379.14,760.38 373.5,760.33 C 368.14,760.37 363.45,758.61 359.44,755.07 C 347.9,743.62 336.43,732.1 325.03,720.52 C 321.97,716.53 320.5,712.02 320.63,707 Z M 519.01,712 C 520.11,700.5 526.32,693.56 537.62,691.16 C 585.91,691.05 634.21,691.01 682.5,691.05 C 691.35,691.56 697.76,695.78 701.73,703.7 C 704.56,710.69 704.07,717.43 700.26,723.93 C 696.43,729.61 691.11,732.84 684.31,733.62 C 636.71,733.8 589.1,733.86 541.5,733.8 C 531.97,733.72 525.09,729.42 520.86,720.9 C 519.7,718.04 519.09,715.08 519.01,712 Z"/></g>
<g><path fill="#ffffff" stroke="#ffffff" stroke-width="0.5" d="M 28.34,512 C 28.84,422.78 51.86,339.8 97.4,263.04 C 143.11,187.66 204.66,128.84 282.04,86.59 C 345.03,52.8 412.19,33.66 483.5,29.16 C 510.55,27.73 537.56,28.41 564.5,31.18 C 659.71,42.22 744.55,77.93 819.02,138.33 C 886.19,194.08 935.09,262.84 965.7,344.6 C 985.46,398.48 995.45,454.11 995.66,511.5 C 995.25,600.89 972.23,684.04 926.6,760.96 C 880.89,836.34 819.34,895.16 741.96,937.41 C 670.28,975.82 593.79,995.24 512.5,995.66 C 423.11,995.24 339.96,972.22 263.04,926.6 C 187.66,880.89 128.84,819.34 86.59,741.96 C 48.09,670.13 28.68,593.47 28.34,512 Z M 206.89,201 C 206.87,409.83 206.89,618.67 206.95,827.5 C 207.52,840.76 211.19,853.1 217.97,864.52 C 231.52,885.89 250.82,898.34 275.87,901.87 C 278.08,902.05 280.29,902.17 282.5,902.21 C 436.17,902.27 589.83,902.25 743.5,902.15 C 766.36,900.59 785.12,891 799.8,873.39 C 809.37,861.38 815.04,847.75 816.82,832.5 C 816.98,830.17 817.07,827.84 817.09,825.5 C 817.13,615.83 817.12,406.17 817.05,196.5 C 816.22,178.84 810.17,163.18 798.91,149.53 C 784.81,133.15 767.01,123.96 745.5,121.94 C 589.19,121.66 432.89,121.71 276.59,122.06 C 250.35,125.58 230.44,138.69 216.84,161.4 C 209.97,173.71 206.65,186.91 206.89,201 Z M 249.2,201 C 249.38,198.16 249.68,195.33 250.1,192.51 C 253.68,178.34 262.5,169.25 276.54,165.23 C 279.17,164.7 281.83,164.34 284.5,164.14 C 315.1,164.1 345.71,164.13 376.31,164.25 C 376.95,164.84 377.21,165.58 377.1,166.48 C 377.02,179.77 377.09,193.05 377.32,206.33 C 377.71,210.05 378.31,213.74 379.14,217.38 C 385.73,242.8 401,260.91 424.94,271.7 C 430.6,274.07 436.46,275.76 442.51,276.76 C 445.84,277.1 449.17,277.46 452.5,277.84 C 491.83,277.95 531.17,277.97 570.5,277.89 C 597.22,276.51 618.3,264.89 633.73,243.04 C 641.98,230.41 646.36,216.56 646.87,201.5 C 646.91,189.83 646.92,178.15 646.9,166.48 C 646.79,165.58 647.05,164.84 647.69,164.25 C 678.95,164.1 710.21,164.1 741.48,164.24 C 756.58,165.95 766.96,173.86 772.62,187.96 C 773.84,192.05 774.56,196.23 774.8,200.5 C 774.8,408.17 774.8,615.83 774.8,823.5 C 774.51,826.45 774.15,829.4 773.72,832.34 C 769.9,846.11 761.11,854.93 747.37,858.81 C 744.76,859.31 742.14,859.66 739.5,859.85 C 587.83,859.87 436.17,859.87 284.5,859.85 C 268.5,858.81 257.46,850.87 251.38,836.04 C 250.16,831.95 249.44,827.77 249.2,823.5 C 249.21,616 249.2,408.5 249.2,201 Z M 419.75,167 C 419.7,166.2 419.81,165.41 420.09,164.66 C 420.47,164.24 420.94,164.06 421.51,164.12 C 482.12,164.11 542.73,164.14 603.34,164.22 C 604.05,164.79 604.35,165.54 604.25,166.48 C 604.24,177.15 604.24,187.83 604.24,198.5 C 604.31,210.48 599.71,220.27 590.43,227.86 C 585.66,231.44 580.34,233.75 574.47,234.79 C 535.49,235.09 496.49,235.19 457.5,235.09 C 445.11,235.57 435,231.01 427.17,221.4 C 422.68,215.52 420.24,208.88 419.85,201.5 C 419.76,190 419.73,178.5 419.75,167 Z M 320.63,423 C 320.48,428.03 321.93,432.55 324.98,436.56 C 336.17,448.02 347.45,459.39 358.83,470.67 C 362.68,474.29 367.24,476.15 372.5,476.26 C 378.55,476.66 383.83,474.83 388.35,470.78 C 406.3,452.82 424.25,434.85 442.2,416.9 C 446.76,411.59 448.63,405.47 447.79,398.53 C 445.96,389.29 440.5,383.46 431.41,381.07 C 426.55,380.17 421.9,380.75 417.43,382.8 C 415.67,383.68 414.04,384.76 412.55,386.04 C 399.75,398.85 386.92,411.63 374.07,424.38 C 373.45,424.63 372.9,424.53 372.41,424.07 C 366.43,417.78 360.27,411.68 353.92,405.77 C 348.99,402.33 343.55,401.13 337.62,402.16 C 328.79,404.27 323.26,409.71 321.02,418.5 C 320.75,419.99 320.62,421.49 320.63,423 Z M 519.01,429 C 520.15,440.41 526.33,447.29 537.55,449.66 C 585.19,449.89 632.85,449.97 680.5,449.9 C 688.89,450.13 695.5,446.82 700.32,439.96 C 703.8,433.96 704.45,427.66 702.26,421.07 C 698.92,413.15 692.99,408.56 684.46,407.31 C 637.14,407.2 589.82,407.16 542.5,407.2 C 532.55,406.94 525.33,411.23 520.84,420.09 C 519.68,422.95 519.07,425.92 519.01,429 Z M 320.63,565 C 320.48,570.03 321.94,574.54 325.01,578.53 C 336.2,590 347.49,601.36 358.88,612.61 C 364.49,617.67 371,619.45 378.41,617.94 C 382.34,616.98 385.76,615.1 388.67,612.29 C 406.56,594.44 424.43,576.56 442.28,558.66 C 446.76,553.42 448.6,547.37 447.8,540.53 C 446.04,531.73 440.89,525.94 432.36,523.19 C 430.46,522.93 428.56,522.69 426.65,522.46 C 421.28,522.64 416.58,524.5 412.56,528.05 C 399.76,540.85 386.92,553.61 374.06,566.33 C 373.46,566.52 372.93,566.42 372.46,566.01 C 366.55,559.95 360.55,553.98 354.46,548.1 C 349.68,544.63 344.36,543.27 338.5,544.04 C 329.21,545.86 323.38,551.35 321.01,560.5 C 320.75,561.99 320.62,563.49 320.63,565 Z M 519.01,570 C 519.76,581.94 525.98,589.17 537.67,591.7 C 538.6,591.87 539.55,591.94 540.5,591.92 C 588.49,591.95 636.48,591.91 684.48,591.81 C 694.02,590.18 700.19,584.74 703.01,575.5 C 704.3,569.41 703.28,563.75 699.93,558.51 C 695.37,552.3 689.22,549.14 681.5,549.05 C 633.84,548.99 586.19,549.05 538.54,549.24 C 530.53,550.25 524.7,554.36 521.04,561.54 C 519.91,564.25 519.23,567.07 519.01,570 Z M 320.63,707 C 320.5,712.02 321.97,716.53 325.03,720.52 C 336.43,732.1 347.9,743.62 359.44,755.07 C 363.45,758.61 368.14,760.37 373.5,760.33 C 379.14,760.38 384.03,758.5 388.19,754.69 C 406.36,736.53 424.53,718.36 442.68,700.18 C 446.84,695.01 448.55,689.12 447.82,682.52 C 445.22,671.19 438.11,665.16 426.5,664.43 C 421.19,664.68 416.53,666.54 412.52,670.01 C 399.74,682.82 386.91,695.57 374.03,708.25 C 373.46,708.46 372.94,708.38 372.47,707.99 C 366.42,701.77 360.26,695.66 353.98,689.67 C 349.01,686.27 343.55,685.09 337.61,686.13 C 328.72,688.19 323.19,693.65 321,702.5 C 320.74,703.99 320.62,705.49 320.63,707 Z M 519.01,712 C 519.41,721.87 524.16,728.7 533.26,732.49 C 535.94,733.32 538.69,733.76 541.5,733.8 C 589.1,733.86 636.71,733.8 684.31,733.62 C 693.97,732.21 700.19,726.84 702.99,717.5 C 704.31,711.4 703.29,705.73 699.95,700.49 C 695.67,694.49 689.86,691.34 682.5,691.05 C 634.21,691.01 585.91,691.05 537.62,691.16 C 526.32,693.56 520.11,700.5 519.01,712 Z"/></g>
</svg>
