<?xml version="1.0" encoding="UTF-8"?>
<!DOCTYPE svg PUBLIC "-//W3C//DTD SVG 1.1//EN" "http://www.w3.org/Graphics/SVG/1.1/DTD/svg11.dtd">
<svg xmlns="http://www.w3.org/2000/svg" version="1.1" width="1024px" height="1024px" style="shape-rendering:geometricPrecision; text-rendering:geometricPrecision; image-rendering:optimizeQuality; fill-rule:evenodd; clip-rule:evenodd" xmlns:xlink="http://www.w3.org/1999/xlink">
<rect x="0" y="0" width="1024" height="1024" fill="#959fda"/>
<g><path fill="#959fda" stroke="#959fda" stroke-width="0.5" d="M 0,0 C 341.33,0 682.67,0 1024,0 C 1024,341.33 1024,682.67 1024,1024 C 682.67,1024 341.33,1024 0,1024 C 0,682.67 0,341.33 0,0 Z M 206.89,201 C 206.87,409.83 206.89,618.67 206.95,827.5 C 207.51,840.52 211.06,852.66 217.62,863.94 C 231.05,885.52 250.35,898.15 275.5,901.81 C 277.83,902.05 280.16,902.18 282.5,902.21 C 436.17,902.26 589.83,902.25 743.5,902.15 C 766.59,900.55 785.49,890.8 800.19,872.9 C 809.52,860.99 815.06,847.53 816.82,832.5 C 816.98,830.17 817.07,827.84 817.09,825.5 C 817.13,615.83 817.12,406.17 817.05,196.5 C 816.49,183.48 812.93,171.34 806.38,160.06 C 794.3,140.42 777.01,128.12 754.49,123.15 C 751.52,122.58 748.52,122.17 745.5,121.94 C 592.5,121.76 439.5,121.71 286.5,121.76 C 267.46,121.47 250.49,127.27 235.59,139.16 C 218.96,153.13 209.46,170.91 207.08,192.5 C 206.96,195.33 206.9,198.17 206.89,201 Z M 249.2,823 C 249.2,615.5 249.2,408 249.2,200.5 C 249.43,196.23 250.15,192.05 251.38,187.96 C 257.04,173.86 267.42,165.95 282.52,164.23 C 313.79,164.1 345.05,164.11 376.31,164.25 C 376.95,164.84 377.22,165.58 377.11,166.48 C 377.03,179.77 377.1,193.05 377.33,206.33 C 377.71,210.05 378.31,213.73 379.14,217.38 C 385.72,242.8 400.99,260.91 424.94,271.7 C 430.6,274.07 436.46,275.76 442.51,276.76 C 445.84,277.1 449.18,277.46 452.51,277.85 C 491.5,277.94 530.5,277.96 569.5,277.92 C 596.34,276.87 617.61,265.45 633.31,243.67 C 641.83,230.89 646.35,216.83 646.86,201.5 C 646.9,189.83 646.91,178.15 646.89,166.48 C 646.78,165.58 647.05,164.84 647.69,164.25 C 678.95,164.11 710.21,164.1 741.48,164.23 C 758.22,166.33 768.97,175.47 773.72,191.66 C 774.16,194.6 774.51,197.54 774.8,200.5 C 774.8,408.17 774.8,615.83 774.8,823.5 C 774.57,827.77 773.84,831.95 772.62,836.04 C 766.76,850.5 756.05,858.43 740.5,859.83 C 588.17,859.87 435.83,859.87 283.5,859.83 C 267.95,858.43 257.24,850.5 251.38,836.04 C 250.93,834.53 250.5,833.01 250.1,831.49 C 249.68,828.67 249.38,825.84 249.2,823 Z M 419.76,167 C 419.71,166.2 419.82,165.42 420.09,164.66 C 420.47,164.24 420.94,164.06 421.51,164.12 C 482.12,164.11 542.73,164.15 603.34,164.22 C 604.04,164.79 604.34,165.54 604.24,166.48 C 604.24,177.15 604.23,187.83 604.24,198.5 C 604.3,210.73 599.52,220.64 589.92,228.23 C 585.27,231.6 580.12,233.79 574.47,234.79 C 535.49,235.09 496.49,235.19 457.5,235.09 C 445.11,235.57 435,231.01 427.17,221.4 C 423.08,216.11 420.68,210.15 419.97,203.51 C 419.77,191.34 419.7,179.17 419.76,167 Z M 320.63,423 C 320.48,428.03 321.93,432.55 324.98,436.56 C 336.17,448.02 347.45,459.39 358.82,470.68 C 362.68,474.29 367.23,476.15 372.5,476.26 C 378.55,476.67 383.83,474.84 388.35,470.78 C 406.29,452.81 424.24,434.85 442.2,416.89 C 446.76,411.59 448.63,405.47 447.79,398.53 C 445.96,389.29 440.49,383.47 431.41,381.07 C 426.56,380.17 421.9,380.75 417.43,382.79 C 415.67,383.67 414.04,384.76 412.55,386.04 C 399.75,398.85 386.92,411.63 374.07,424.38 C 373.45,424.63 372.9,424.52 372.42,424.07 C 366.43,417.78 360.27,411.68 353.92,405.77 C 348.99,402.33 343.55,401.13 337.62,402.16 C 328.8,404.27 323.26,409.72 321.02,418.5 C 320.75,419.99 320.62,421.49 320.63,423 Z M 519.01,429 C 520.15,440.4 526.33,447.29 537.55,449.66 C 585.19,449.88 632.85,449.96 680.5,449.88 C 688.89,450.13 695.5,446.82 700.31,439.96 C 703.8,433.96 704.45,427.67 702.27,421.07 C 698.92,413.15 692.99,408.56 684.46,407.31 C 636.81,407.2 589.15,407.17 541.5,407.2 C 531.64,407.28 524.67,411.8 520.57,420.75 C 519.58,423.41 519.06,426.16 519.01,429 Z M 320.63,565 C 320.49,570.03 321.95,574.54 325.01,578.54 C 336.2,590 347.49,601.35 358.89,612.61 C 364.49,617.66 371,619.44 378.41,617.93 C 382.34,616.99 385.76,615.11 388.66,612.29 C 406.56,594.44 424.43,576.56 442.28,558.66 C 446.76,553.42 448.61,547.38 447.8,540.53 C 446.03,531.73 440.89,525.95 432.37,523.19 C 430.46,522.93 428.56,522.69 426.65,522.45 C 424.95,522.71 423.24,522.94 421.52,523.15 C 418.13,524.04 415.14,525.67 412.56,528.05 C 399.75,540.84 386.92,553.6 374.06,566.32 C 373.46,566.52 372.93,566.41 372.46,566 C 366.55,559.95 360.55,553.98 354.46,548.1 C 349.68,544.62 344.36,543.27 338.5,544.05 C 329.21,545.86 323.38,551.34 321.01,560.5 C 320.75,561.99 320.62,563.49 320.63,565 Z M 519.01,571 C 520.27,582.85 526.77,589.8 538.51,591.85 C 586.51,591.91 634.51,591.94 682.5,591.92 C 691.63,591.29 698.12,586.84 701.99,578.56 C 704.51,571.79 703.94,565.28 700.29,559.05 C 696.25,553.11 690.65,549.81 683.49,549.15 C 636.16,549.05 588.83,549.02 541.5,549.05 C 531.92,549.18 525.03,553.54 520.81,562.11 C 519.67,564.97 519.07,567.93 519.01,571 Z M 320.63,707 C 320.5,712.02 321.97,716.53 325.03,720.52 C 336.43,732.1 347.9,743.61 359.44,755.07 C 363.45,758.62 368.14,760.37 373.5,760.33 C 379.14,760.38 384.03,758.5 388.19,754.69 C 406.18,736.68 424.19,718.69 442.21,700.71 C 446.73,695.46 448.6,689.4 447.82,682.52 C 445.22,671.19 438.11,665.15 426.5,664.42 C 421.2,664.68 416.53,666.54 412.51,670 C 399.74,682.81 386.91,695.57 374.03,708.26 C 373.46,708.46 372.94,708.38 372.47,707.99 C 366.42,701.77 360.26,695.66 353.98,689.67 C 349.01,686.27 343.55,685.09 337.61,686.13 C 328.72,688.18 323.18,693.64 321,702.5 C 320.74,703.99 320.62,705.49 320.63,707 Z M 519.01,712 C 519.4,721.87 524.16,728.7 533.26,732.49 C 535.94,733.32 538.69,733.76 541.5,733.8 C 589.1,733.86 636.71,733.8 684.31,733.61 C 693.97,732.22 700.2,726.84 702.99,717.5 C 704.31,711.4 703.29,705.73 699.95,700.49 C 695.67,694.49 689.86,691.35 682.5,691.06 C 634.21,691.02 585.91,691.06 537.62,691.17 C 526.32,693.56 520.11,700.51 519.01,712 Z"/></g>
<g><path fill="#fdfdfd" stroke="#fdfdfd" stroke-width="0.5" d="M 206.89,201 C 206.71,184.02 211.47,168.55 221.17,154.59 C 234.98,135.87 253.43,125.03 276.5,122.07 C 279.83,121.83 283.16,121.73 286.5,121.76 C 439.5,121.71 592.5,121.76 745.5,121.94 C 767.02,123.96 784.84,133.17 798.95,149.56 C 808.98,161.8 814.94,175.78 816.82,191.5 C 816.95,193.16 817.03,194.83 817.05,196.5 C 817.12,406.17 817.13,615.83 817.09,825.5 C 817.04,835.02 815.24,844.21 811.68,853.05 C 802.13,875.69 785.71,890.94 762.43,898.81 C 756.26,900.71 749.95,901.82 743.5,902.15 C 589.83,902.25 436.17,902.26 282.5,902.21 C 262.33,901.45 244.96,894.1 230.37,880.13 C 217.12,866.95 209.39,851.07 207.17,832.5 C 207.04,830.84 206.97,829.17 206.95,827.5 C 206.89,618.67 206.87,409.83 206.89,201 Z M 249.2,823 C 249.38,825.84 249.68,828.67 250.1,831.49 C 253.7,845.69 262.55,854.8 276.64,858.8 C 278.92,859.18 281.21,859.52 283.5,859.83 C 435.83,859.87 588.17,859.87 740.5,859.83 C 756.05,858.43 766.76,850.5 772.62,836.04 C 773.84,831.95 774.57,827.77 774.8,823.5 C 774.8,615.83 774.8,408.17 774.8,200.5 C 774.51,197.54 774.16,194.6 773.72,191.66 C 768.97,175.47 758.22,166.33 741.48,164.23 C 710.21,164.1 678.95,164.11 647.69,164.25 C 647.05,164.84 646.78,165.58 646.89,166.48 C 646.91,178.15 646.9,189.83 646.86,201.5 C 645.97,224 637.21,242.87 620.6,258.1 C 609.02,268.26 595.63,274.54 580.42,276.96 C 576.78,277.29 573.14,277.61 569.5,277.92 C 530.5,277.96 491.5,277.94 452.51,277.85 C 449.18,277.46 445.84,277.1 442.51,276.76 C 419.09,272.41 401.03,260.16 388.32,240.01 C 384.1,232.93 381.04,225.39 379.14,217.38 C 378.31,213.73 377.71,210.05 377.33,206.33 C 377.1,193.05 377.03,179.77 377.11,166.48 C 377.22,165.58 376.95,164.84 376.31,164.25 C 345.05,164.11 313.79,164.1 282.52,164.23 C 267.42,165.95 257.04,173.86 251.38,187.96 C 250.15,192.05 249.43,196.23 249.2,200.5 C 249.2,408 249.2,615.5 249.2,823 Z M 419.76,167 C 419.7,179.17 419.77,191.34 419.97,203.51 C 421.88,216.95 428.98,226.56 441.27,232.33 C 446.45,234.59 451.86,235.51 457.5,235.09 C 496.49,235.19 535.49,235.09 574.47,234.79 C 590.23,231.34 599.98,221.77 603.74,206.08 C 604.05,203.56 604.22,201.04 604.24,198.5 C 604.23,187.83 604.24,177.15 604.24,166.48 C 604.34,165.54 604.04,164.79 603.34,164.22 C 542.73,164.15 482.12,164.11 421.51,164.12 C 420.94,164.06 420.47,164.24 420.09,164.66 C 419.82,165.42 419.71,166.2 419.76,167 Z M 320.63,423 C 320.98,413.68 325.42,407.11 333.93,403.29 C 339.06,401.46 344.19,401.45 349.33,403.28 C 350.96,403.93 352.49,404.76 353.92,405.77 C 360.27,411.68 366.43,417.78 372.42,424.07 C 372.9,424.52 373.45,424.63 374.07,424.38 C 386.92,411.63 399.75,398.85 412.55,386.04 C 415.45,383.54 418.76,381.87 422.5,381.03 C 428.23,379.95 433.55,380.96 438.47,384.05 C 443.55,387.59 446.66,392.41 447.79,398.53 C 448.63,405.47 446.76,411.59 442.2,416.89 C 424.24,434.85 406.29,452.81 388.35,470.78 C 383.83,474.84 378.55,476.67 372.5,476.26 C 367.23,476.15 362.68,474.29 358.82,470.68 C 347.45,459.39 336.17,448.02 324.98,436.56 C 321.93,432.55 320.48,428.03 320.63,423 Z M 519.01,429 C 519.76,417.06 525.98,409.86 537.69,407.39 C 538.95,407.23 540.22,407.17 541.5,407.2 C 589.15,407.17 636.81,407.2 684.46,407.31 C 694.05,408.82 700.23,414.22 703,423.5 C 704.24,429.34 703.34,434.83 700.31,439.96 C 695.5,446.82 688.89,450.13 680.5,449.88 C 632.85,449.96 585.19,449.88 537.55,449.66 C 526.33,447.29 520.15,440.4 519.01,429 Z M 320.63,565 C 320.96,555.36 325.59,548.72 334.53,545.09 C 337.43,544.04 340.42,543.67 343.5,543.98 C 347.54,544.32 351.19,545.69 354.46,548.1 C 360.55,553.98 366.55,559.95 372.46,566 C 372.93,566.41 373.46,566.52 374.06,566.32 C 386.92,553.6 399.75,540.84 412.56,528.05 C 415.14,525.67 418.13,524.04 421.52,523.15 C 427.79,521.8 433.62,522.86 439.01,526.32 C 445.57,531.46 448.53,538.19 447.91,546.5 C 447.25,551.12 445.37,555.17 442.28,558.66 C 424.43,576.56 406.56,594.44 388.66,612.29 C 384.42,616.33 379.36,618.39 373.5,618.48 C 367.88,618.38 363.01,616.43 358.89,612.61 C 347.49,601.35 336.2,590 325.01,578.54 C 321.95,574.54 320.49,570.03 320.63,565 Z M 519.01,571 C 519.38,561.11 524.12,554.26 533.24,550.43 C 535.93,549.6 538.68,549.14 541.5,549.05 C 588.83,549.02 636.16,549.05 683.49,549.15 C 693.58,550.33 700.09,555.79 703.01,565.5 C 704.3,571.59 703.27,577.25 699.92,582.48 C 695.61,588.4 689.81,591.55 682.5,591.92 C 634.51,591.94 586.51,591.91 538.51,591.85 C 526.77,589.8 520.27,582.85 519.01,571 Z M 320.63,707 C 320.9,697.73 325.25,691.18 333.68,687.34 C 338.61,685.5 343.58,685.36 348.59,686.95 C 350.52,687.59 352.32,688.5 353.98,689.67 C 360.26,695.66 366.42,701.77 372.47,707.99 C 372.94,708.38 373.46,708.46 374.03,708.26 C 386.91,695.57 399.74,682.81 412.51,670 C 418.03,665.24 424.36,663.58 431.5,665.02 C 440.58,667.44 446.02,673.28 447.82,682.52 C 448.6,689.4 446.73,695.46 442.21,700.71 C 424.19,718.69 406.18,736.68 388.19,754.69 C 384.03,758.5 379.14,760.38 373.5,760.33 C 368.14,760.37 363.45,758.62 359.44,755.07 C 347.9,743.61 336.43,732.1 325.03,720.52 C 321.97,716.53 320.5,712.02 320.63,707 Z M 519.01,712 C 520.11,700.51 526.32,693.56 537.62,691.17 C 585.91,691.06 634.21,691.02 682.5,691.06 C 691.35,691.56 697.76,695.77 701.73,703.7 C 704.57,710.69 704.08,717.43 700.26,723.93 C 696.43,729.6 691.11,732.83 684.31,733.61 C 636.71,733.8 589.1,733.86 541.5,733.8 C 531.96,733.72 525.09,729.42 520.86,720.9 C 519.7,718.05 519.09,715.08 519.01,712 Z"/></g>
</svg>
