<?xml version="1.0" encoding="UTF-8"?>
<!DOCTYPE svg PUBLIC "-//W3C//DTD SVG 1.1//EN" "http://www.w3.org/Graphics/SVG/1.1/DTD/svg11.dtd">
<svg xmlns="http://www.w3.org/2000/svg" version="1.1" width="1024px" height="1024px" style="shape-rendering:geometricPrecision; text-rendering:geometricPrecision; image-rendering:optimizeQuality; fill-rule:evenodd; clip-rule:evenodd" xmlns:xlink="http://www.w3.org/1999/xlink">
<rect x="0" y="0" width="1024" height="1024" fill="#4c5bb3"/>
<g><path fill="#4c5bb3" stroke="#4c5bb3" stroke-width="0.5" d="M 0,0 C 341.33,0 682.67,0 1024,0 C 1024,341.33 1024,682.67 1024,1024 C 682.67,1024 341.33,1024 0,1024 C 0,682.67 0,341.33 0,0 Z M 199.99,207 C 199.99,311.83 200,416.67 200,521.5 C 200.51,528.71 204.34,532.8 211.5,533.78 C 218.91,533.02 222.87,528.93 223.37,521.5 C 223.41,421.17 223.41,320.84 223.39,220.51 C 223.28,219.43 223.45,218.42 223.92,217.48 C 224.42,217.27 224.95,217.17 225.51,217.18 C 380.78,217.15 536.05,217.17 691.32,217.25 C 691.82,217.5 692.09,217.91 692.12,218.47 C 692.17,315.48 692.2,412.49 692.19,509.5 C 692.32,515.12 694.95,519.03 700.09,521.22 C 704.89,522.75 709.04,521.7 712.57,518.07 C 714.66,515.61 715.74,512.75 715.79,509.5 C 715.81,408.5 715.81,307.5 715.8,206.5 C 715.51,200.25 712.39,196.18 706.45,194.29 C 705.14,194.03 703.83,193.93 702.5,193.99 C 562.83,193.99 423.15,194 283.48,194 C 282.52,193.97 282.03,193.48 282.01,192.52 C 282,185.53 282.03,178.55 282.1,171.56 C 282.64,170.72 283.43,170.36 284.46,170.48 C 443.49,170.46 602.52,170.52 761.54,170.68 C 762.36,171.03 762.74,171.66 762.67,172.57 C 762.63,285.21 762.64,397.86 762.72,510.5 C 763.12,516.24 766.07,519.95 771.57,521.64 C 777.08,522.54 781.37,520.64 784.44,515.96 C 785.72,513.64 786.25,511.15 786.03,508.5 C 786.02,392.17 786.02,275.83 786.02,159.5 C 785.8,153.09 782.61,149 776.46,147.23 C 775.48,147.05 774.5,146.98 773.5,146.99 C 605.5,146.98 437.5,147 269.5,147.04 C 262.05,148.42 258.43,152.91 258.66,160.5 C 258.66,171.15 258.66,181.8 258.68,192.45 C 258.74,192.95 258.59,193.37 258.23,193.72 C 242.01,193.92 225.78,194.09 209.54,194.23 C 203.14,196.09 199.96,200.34 199.99,207 Z M 317.11,253 C 317.67,257.95 320.21,261.42 324.74,263.43 C 325.96,263.84 327.21,264.06 328.5,264.11 C 414.17,264.14 499.83,264.14 585.5,264.14 C 587.13,264.19 588.75,264.07 590.35,263.78 C 591.9,262.94 593.47,262.16 595.07,261.44 C 595.84,260.04 596.65,258.65 597.5,257.28 C 599.26,252.45 598.48,248.1 595.15,244.21 C 593.04,242.11 590.49,240.95 587.5,240.74 C 502.5,240.84 417.5,240.88 332.5,240.84 C 330.17,240.81 327.85,240.94 325.54,241.23 C 322.1,242.26 319.65,244.4 318.21,247.67 C 317.55,249.39 317.18,251.17 317.11,253 Z M 396.92,323 C 396.74,325.99 397.62,328.63 399.56,330.92 C 406.55,337.67 413.42,344.52 420.17,351.47 C 420.26,353.03 420.15,354.58 419.84,356.12 C 418.59,363.25 417.32,370.38 416.02,377.5 C 415.18,381.47 415.85,385.15 418.01,388.54 C 421.22,392.57 425.33,393.95 430.32,392.68 C 431.32,392.34 432.3,391.96 433.27,391.54 C 441.31,387.22 449.43,383.07 457.61,379.07 C 458.11,379.06 458.58,379.16 459.04,379.36 C 466.5,383.24 473.95,387.16 481.36,391.14 C 484.53,392.93 487.9,393.49 491.47,392.81 C 496.78,390.91 499.62,387.14 500,381.5 C 498.43,371.53 496.85,361.57 495.27,351.62 C 495.38,351.16 495.62,350.77 495.98,350.47 C 502.68,343.91 509.39,337.37 516.11,330.84 C 519.59,326.25 519.78,321.53 516.68,316.69 C 515.26,314.77 513.45,313.34 511.24,312.41 C 501.12,310.81 491.01,309.18 480.91,307.53 C 476.34,298.76 471.85,289.94 467.45,281.07 C 464.9,277.91 461.58,276.38 457.5,276.5 C 453.5,276.56 450.33,278.21 447.99,281.43 C 443.64,290.06 439.26,298.69 434.88,307.32 C 434.49,307.71 434.03,307.93 433.48,307.99 C 423.87,309.29 414.28,310.72 404.71,312.28 C 399.83,314.22 397.23,317.79 396.92,323 Z M 434.3,331.29 C 438.05,330.99 441.78,330.5 445.47,329.82 C 448.11,329.11 450.28,327.68 451.97,325.53 C 453.78,322.06 455.68,318.65 457.65,315.32 C 458.06,315.32 458.37,315.49 458.59,315.85 C 460.18,319.17 461.9,322.42 463.75,325.6 C 465.29,327.53 467.22,328.89 469.55,329.7 C 473.14,330.3 476.73,330.82 480.34,331.25 C 481.02,331.76 481.09,332.36 480.56,333.06 C 478.15,335.32 475.8,337.64 473.5,340.01 C 471.24,342.79 470.4,345.96 470.97,349.5 C 471.6,352.53 472.01,355.58 472.2,358.65 C 471.8,359.14 471.3,359.26 470.7,358.99 C 467.72,357.15 464.6,355.56 461.34,354.25 C 458.87,353.71 456.41,353.76 453.96,354.37 C 450.43,356 446.96,357.73 443.53,359.55 C 443.21,359.3 443.08,358.96 443.13,358.53 C 443.73,355.19 444.31,351.85 444.86,348.5 C 445,345.38 444.12,342.57 442.24,340.08 C 439.83,337.57 437.33,335.17 434.73,332.86 C 434.39,332.39 434.25,331.87 434.3,331.29 Z M 267.96,382 C 267.86,384.73 268.66,387.16 270.36,389.3 C 277.02,395.86 283.67,402.44 290.3,409.04 C 290.72,409.45 291.04,409.93 291.26,410.48 C 291.31,412.03 291.18,413.58 290.86,415.13 C 289.61,422.25 288.34,429.38 287.05,436.5 C 286.41,439.82 286.86,442.98 288.4,445.96 C 290.75,449.65 294.11,451.58 298.5,451.78 C 300.17,451.73 301.76,451.37 303.28,450.69 C 311.57,446.14 319.97,441.83 328.48,437.75 C 329.4,437.7 330.26,437.91 331.06,438.36 C 339.34,442.78 347.68,447.08 356.07,451.26 C 361.74,452.57 366.17,450.8 369.37,445.94 C 370.47,444.29 371.02,442.48 371.04,440.5 C 369.51,430.47 368,420.45 366.48,410.44 C 366.72,409.87 367.06,409.36 367.5,408.92 C 374.04,402.44 380.61,395.99 387.2,389.56 C 390.6,385.04 390.83,380.38 387.88,375.56 C 386.44,373.58 384.6,372.12 382.35,371.16 C 378.74,370.47 375.12,369.82 371.5,369.22 C 365.52,368.44 359.54,367.66 353.55,366.86 C 352.26,366.55 351.37,365.76 350.89,364.49 C 346.89,356.19 342.79,347.93 338.59,339.74 C 336.05,336.43 332.69,334.84 328.5,334.98 C 324.67,335.09 321.58,336.65 319.23,339.64 C 314.74,348.51 310.21,357.36 305.63,366.18 C 305.21,366.54 304.73,366.78 304.18,366.89 C 297.95,367.68 291.73,368.49 285.51,369.32 C 282.17,369.87 278.84,370.48 275.52,371.14 C 270.69,373.17 268.17,376.79 267.96,382 Z M 525.86,382 C 525.73,384.75 526.52,387.2 528.23,389.35 C 534.95,395.93 541.65,402.54 548.31,409.18 C 548.7,409.54 548.97,409.97 549.13,410.47 C 549.22,411.7 549.14,412.92 548.89,414.14 C 547.63,421.26 546.35,428.38 545.07,435.5 C 544.5,438.47 544.62,441.4 545.4,444.3 C 547.81,449.4 551.84,451.88 557.49,451.72 C 558.3,451.6 559.1,451.42 559.89,451.17 C 568.67,446.51 577.53,442.03 586.47,437.73 C 587.38,437.74 588.24,437.97 589.04,438.43 C 596.72,442.42 604.37,446.46 611.99,450.56 C 616.47,452.47 620.67,451.98 624.59,449.1 C 627.78,446.27 629.2,442.74 628.85,438.52 C 627.08,429.2 625.54,419.85 624.21,410.48 C 631,403.36 637.94,396.38 645.06,389.55 C 648.64,384.78 648.74,379.93 645.35,375.02 C 643.97,373.37 642.29,372.11 640.31,371.25 C 630.29,369.65 620.27,368.04 610.26,366.44 C 609.81,366.14 609.44,365.75 609.16,365.29 C 605.03,356.74 600.81,348.25 596.49,339.8 C 593.96,336.56 590.63,334.95 586.5,334.98 C 582.66,335.07 579.54,336.6 577.13,339.56 C 572.66,348.45 568.13,357.31 563.54,366.14 C 563.15,366.5 562.69,366.74 562.16,366.86 C 555.94,367.66 549.72,368.48 543.51,369.3 C 540.16,369.86 536.82,370.46 533.5,371.1 C 528.59,373.1 526.05,376.73 525.86,382 Z M 563.35,390.31 C 566.66,389.67 569.99,389.14 573.34,388.72 C 576.86,387.94 579.6,386.04 581.56,383.02 C 583.24,379.82 584.87,376.61 586.46,373.39 C 586.99,373.7 587.39,374.14 587.66,374.69 C 589.08,377.64 590.59,380.53 592.19,383.38 C 594.04,386.05 596.54,387.79 599.7,388.59 C 602.67,389.04 605.64,389.49 608.61,389.95 C 610.01,390.16 610.23,390.79 609.29,391.83 C 606.74,393.99 604.4,396.37 602.28,398.96 C 600.09,401.79 599.32,404.98 599.97,408.52 C 600.49,411.19 600.91,413.88 601.21,416.58 C 601.21,417.13 600.98,417.53 600.52,417.79 C 597.69,416.35 594.86,414.9 592.02,413.43 C 588.6,411.83 585.18,411.81 581.74,413.36 C 578.72,414.93 575.68,416.41 572.62,417.81 C 572.16,417.51 571.98,417.08 572.09,416.53 C 572.77,413.2 573.35,409.86 573.82,406.5 C 573.75,403.51 572.79,400.85 570.94,398.51 C 568.7,396.11 566.38,393.8 563.97,391.57 C 563.63,391.21 563.43,390.79 563.35,390.31 Z M 305.23,390.22 C 308.83,389.68 312.43,389.14 316.03,388.6 C 319.03,387.79 321.45,386.15 323.3,383.67 C 324.91,380.64 326.49,377.59 328.03,374.53 C 328.35,374.06 328.77,373.91 329.3,374.07 C 330.91,376.87 332.43,379.72 333.86,382.63 C 335.67,385.66 338.29,387.64 341.71,388.55 C 344.65,389.01 347.59,389.46 350.54,389.92 C 352.03,390.11 352.29,390.78 351.32,391.93 C 348.85,394.1 346.56,396.44 344.44,398.95 C 342.24,401.78 341.44,404.96 342.06,408.5 C 342.63,411.45 343.15,414.41 343.62,417.38 C 343.16,417.86 342.61,417.94 341.98,417.6 C 339.4,416.07 336.75,414.66 334.04,413.37 C 330.69,411.86 327.32,411.84 323.95,413.29 C 321.23,414.57 318.58,415.97 315.99,417.48 C 314.78,418.21 314.19,417.89 314.22,416.52 C 314.87,413.19 315.44,409.85 315.94,406.5 C 315.94,403.46 314.97,400.78 313.01,398.44 C 310.3,395.81 307.71,393.06 305.23,390.22 Z M 422.79,603 C 422.63,609.23 423.98,615.11 426.84,620.65 C 428.28,622.94 429.68,625.22 431.04,627.51 C 429.01,630.53 427.19,633.71 425.59,637.03 C 422.98,642.94 422.11,649.09 423,655.5 C 423.53,659.53 424.69,663.36 426.5,666.99 C 428,669.53 429.51,672.04 431.04,674.51 C 429.01,677.53 427.19,680.71 425.59,684.03 C 422.98,689.94 422.11,696.09 423,702.5 C 423.86,709.03 426.36,714.84 430.5,719.94 C 430.87,720.39 431.04,720.9 431.01,721.48 C 429.62,723.68 428.23,725.89 426.84,728.12 C 424.79,732.01 423.48,736.14 422.93,740.5 C 421.87,750.62 424.58,759.61 431.04,767.45 C 438,775.54 446.82,779.72 457.5,779.99 C 512.17,780.01 566.83,780.01 621.5,780 C 627.57,779.74 631.47,776.71 633.22,770.92 C 634.13,766.3 632.84,762.41 629.35,759.22 C 627.64,757.86 625.7,757.03 623.54,756.74 C 568.53,756.49 513.52,756.4 458.5,756.46 C 451.58,756.17 447.47,752.62 446.17,745.81 C 445.99,740.56 448.23,736.69 452.88,734.2 C 453.87,733.79 454.87,733.45 455.89,733.16 C 461.6,733.36 465.79,730.97 468.48,725.98 C 470.11,721.89 469.68,718.02 467.21,714.38 C 465.75,712.34 463.83,710.94 461.44,710.17 C 458.58,709.82 455.75,709.3 452.95,708.61 C 447.55,705.6 445.4,701.06 446.5,694.98 C 447.96,690.53 450.96,687.74 455.49,686.6 C 457.43,686.3 459.37,685.97 461.3,685.63 C 467.73,682.98 470.31,678.24 469.04,671.41 C 467.79,667.45 465.22,664.77 461.32,663.35 C 458.46,663.11 455.67,662.53 452.95,661.6 C 447.82,658.79 445.61,654.49 446.32,648.67 C 447.62,643.87 450.68,640.84 455.49,639.6 C 457.43,639.29 459.37,638.97 461.3,638.63 C 467.73,635.98 470.31,631.24 469.04,624.41 C 467.79,620.45 465.22,617.77 461.32,616.35 C 458.46,616.11 455.67,615.53 452.95,614.6 C 448.5,612.24 446.22,608.54 446.12,603.5 C 446.97,597.4 450.43,593.8 456.48,592.73 C 483.41,592.52 510.34,592.44 537.28,592.48 C 544.39,592.16 548.5,588.5 549.61,581.49 C 549.73,579.77 549.5,578.11 548.91,576.49 C 538.17,557.66 527.41,538.84 516.62,520.04 C 514.08,515.5 513.2,510.64 514,505.48 C 515.14,498.12 518.9,492.51 525.28,488.65 C 528.91,486.62 532.6,486.5 536.35,488.3 C 538.64,489.58 540.45,491.36 541.78,493.64 C 552.7,512.49 563.55,531.37 574.34,550.29 C 575.35,551.88 576.55,553.3 577.93,554.57 C 593.07,566.13 608.24,577.65 623.46,589.11 C 626.18,591.25 629.26,592.38 632.72,592.49 C 640.34,592.51 647.97,592.52 655.6,592.53 C 656.26,592.59 656.72,592.92 656.96,593.53 C 657.05,659.52 657.08,725.51 657.07,791.5 C 657.28,796.49 659.6,800.12 664.03,802.38 C 665.13,802.9 666.28,803.16 667.5,803.17 C 722.83,803.17 778.17,803.17 833.5,803.18 C 838.29,802.97 841.67,800.66 843.63,796.26 C 845.55,790.57 844.16,785.85 839.47,782.1 C 837.93,781.15 836.27,780.49 834.5,780.12 C 783.83,779.99 733.16,779.95 682.48,780.02 C 680.95,779.92 680.31,779.1 680.57,777.53 C 680.61,708.84 680.61,640.16 680.57,571.47 C 680.31,569.9 680.95,569.08 682.48,568.98 C 733.15,569.05 783.82,569.01 834.49,568.87 C 840.17,567.63 843.51,564.15 844.5,558.42 C 844.7,553.18 842.51,549.28 837.92,546.74 C 835.54,545.78 833.07,545.36 830.49,545.48 C 776.43,545.45 722.37,545.49 668.31,545.59 C 662.25,546.26 658.54,549.57 657.19,555.52 C 657.05,559.52 657.01,563.53 657.06,567.53 C 657.09,568.11 656.86,568.56 656.38,568.87 C 649.46,569.07 642.54,569.04 635.62,568.78 C 621.75,558.33 607.91,547.85 594.08,537.34 C 583.23,518.59 572.4,499.83 561.59,481.05 C 555.14,470.53 545.78,464.73 533.5,463.66 C 525.97,463.31 518.98,465.1 512.53,469.04 C 501.08,476.15 493.98,486.3 491.24,499.52 C 489.31,509.12 490.27,518.44 494.11,527.46 C 501.37,540.76 508.87,553.94 516.59,566.98 C 517.31,568.23 516.95,568.91 515.53,569.02 C 495.85,568.98 476.18,568.99 456.5,569.04 C 443.11,569.99 433.14,576.32 426.61,588.05 C 424.13,592.73 422.86,597.71 422.79,603 Z M 282.03,534 C 282.12,536.34 282.82,538.49 284.13,540.44 C 289.29,545.8 294.44,551.15 299.6,556.5 C 299.42,556.93 299.08,557.14 298.58,557.13 C 295.17,556.78 291.88,557.23 288.71,558.49 C 283.61,561.36 281.48,565.67 282.34,571.44 C 284.13,577.48 288.18,580.61 294.5,580.84 C 313.5,580.84 332.5,580.84 351.5,580.84 C 357.45,580.69 361.46,577.84 363.54,572.29 C 364.78,566.76 363.09,562.36 358.46,559.06 C 357.15,558.32 355.76,557.79 354.29,557.47 C 348.68,557.17 343.06,557.05 337.43,557.13 C 336.58,557.13 336.29,556.74 336.57,555.99 C 356.05,539.83 375.53,523.67 395,507.5 C 398.8,503.96 399.99,499.7 398.58,494.7 C 397.2,491.26 394.75,488.91 391.25,487.64 C 387.71,486.58 384.32,486.98 381.1,488.85 C 360.01,506.05 339.01,523.37 318.1,540.79 C 317.43,540.79 316.87,540.55 316.41,540.06 C 311.46,535.01 306.49,529.99 301.48,525.01 C 298.3,522.24 294.66,521.38 290.58,522.45 C 285.19,524.42 282.34,528.27 282.03,534 Z M 199.99,837 C 199.81,843.3 202.67,847.56 208.55,849.76 C 210.18,850.09 211.83,850.23 213.5,850.18 C 376.83,850.18 540.17,850.17 703.5,850.16 C 708.62,850.14 712.31,847.84 714.59,843.26 C 716.54,838.21 715.6,833.74 711.79,829.87 C 709.42,827.77 706.66,826.76 703.5,826.84 C 544.5,826.82 385.5,826.82 226.5,826.84 C 225.62,826.89 224.75,826.78 223.92,826.52 C 223.45,825.58 223.28,824.57 223.4,823.49 C 223.42,738.83 223.41,654.16 223.37,569.5 C 222.88,562.06 218.92,557.97 211.51,557.22 C 206.61,557.61 203.11,560.01 200.99,564.42 C 200.34,565.7 200.01,567.06 200.01,568.5 C 200,658 199.99,747.5 199.99,837 Z M 282.01,672 C 281.55,676.98 283.26,681.03 287.14,684.15 C 288.49,685 289.95,685.61 291.5,685.97 C 311.83,686.18 332.17,686.24 352.5,686.14 C 357.23,685.9 360.69,683.69 362.88,679.5 C 363.64,677.92 364.03,676.25 364.04,674.5 C 364.06,654.83 364.06,635.17 364.03,615.5 C 363.25,608.6 359.41,604.77 352.5,604.01 C 332.83,603.99 313.17,603.99 293.5,604.01 C 287.14,604.73 283.34,608.23 282.08,614.5 C 282.02,633.66 281.99,652.83 282.01,672 Z M 727.35,616 C 728.25,623.17 732.29,627.02 739.48,627.55 C 746.59,626.65 750.4,622.64 750.92,615.5 C 749.95,608.24 745.81,604.43 738.5,604.07 C 731.66,605.13 727.95,609.11 727.35,616 Z M 774.2,616 C 775.14,623.22 779.24,627.06 786.48,627.54 C 793.5,626.58 797.29,622.57 797.83,615.5 C 796.86,608.29 792.75,604.48 785.5,604.07 C 778.59,605.06 774.82,609.04 774.2,616 Z M 305.29,628.25 C 306.29,627.72 307.36,627.47 308.5,627.49 C 318.51,627.51 328.52,627.52 338.54,627.51 C 339.98,627.46 340.71,628.14 340.75,629.55 C 340.72,639.53 340.71,649.51 340.73,659.5 C 340.76,660.38 340.7,661.26 340.54,662.14 C 340.41,662.28 340.28,662.43 340.14,662.58 C 329.6,662.82 319.06,662.91 308.5,662.84 C 306.42,663.3 305.41,662.5 305.49,660.44 C 305.55,649.71 305.48,638.98 305.29,628.25 Z M 282.01,790 C 281.74,794.65 283.41,798.42 287.03,801.32 C 288.39,802.25 289.87,802.85 291.49,803.1 C 312.16,803.17 332.83,803.2 353.5,803.17 C 358.8,802.51 362.21,799.61 363.72,794.45 C 363.94,793.48 364.05,792.5 364.04,791.5 C 364.07,771.83 364.06,752.16 364.01,732.5 C 363.31,726.59 360.06,722.91 354.29,721.47 C 353.37,721.27 352.44,721.17 351.5,721.16 C 332.5,721.16 313.5,721.16 294.5,721.16 C 287.76,721.51 283.63,724.95 282.1,731.5 C 282.02,751 281.99,770.5 282.01,790 Z M 305.33,745.28 C 306.36,744.97 307.42,744.81 308.5,744.83 C 318.51,744.84 328.51,744.85 338.52,744.84 C 339.9,744.65 340.64,745.21 340.74,746.54 C 340.72,757.18 340.72,767.82 340.74,778.46 C 340.79,778.97 340.63,779.4 340.26,779.74 C 328.76,780.08 317.26,780.08 305.75,779.74 C 305.64,779.57 305.53,779.41 305.42,779.25 C 305.54,767.92 305.5,756.6 305.33,745.28 Z"/></g>
<g><path fill="#ffffff" stroke="#ffffff" stroke-width="0.5" d="M 199.99,207 C 199.96,200.34 203.14,196.09 209.54,194.23 C 225.78,194.09 242.01,193.92 258.23,193.72 C 258.59,193.37 258.74,192.95 258.68,192.45 C 258.66,181.8 258.66,171.15 258.66,160.5 C 258.43,152.91 262.05,148.42 269.5,147.04 C 437.5,147 605.5,146.98 773.5,146.99 C 779.93,147.16 784.02,150.35 785.78,156.54 C 785.95,157.52 786.03,158.5 786.02,159.5 C 786.02,275.83 786.02,392.17 786.03,508.5 C 786.14,515.83 782.63,520.3 775.5,521.93 C 769.73,522.15 765.68,519.61 763.37,514.31 C 762.97,513.07 762.75,511.8 762.72,510.5 C 762.64,397.86 762.63,285.21 762.67,172.57 C 762.74,171.66 762.36,171.03 761.54,170.68 C 602.52,170.52 443.49,170.46 284.46,170.48 C 283.43,170.36 282.64,170.72 282.1,171.56 C 282.03,178.55 282,185.53 282.01,192.52 C 282.03,193.48 282.52,193.97 283.48,194 C 423.15,194 562.83,193.99 702.5,193.99 C 707.88,193.78 711.87,196.03 714.46,200.73 C 715.28,202.57 715.72,204.49 715.8,206.5 C 715.81,307.5 715.81,408.5 715.79,509.5 C 715.33,516.67 711.57,520.83 704.5,521.97 C 699.11,521.9 695.32,519.39 693.14,514.46 C 692.54,512.86 692.22,511.21 692.19,509.5 C 692.2,412.49 692.17,315.48 692.12,218.47 C 692.09,217.91 691.82,217.5 691.32,217.25 C 536.05,217.17 380.78,217.15 225.51,217.18 C 224.71,217.1 224.07,217.35 223.58,217.94 C 223.43,218.79 223.37,219.64 223.39,220.51 C 223.41,320.84 223.41,421.17 223.37,521.5 C 222.87,528.93 218.91,533.02 211.5,533.78 C 204.34,532.8 200.51,528.71 200,521.5 C 200,416.67 199.99,311.83 199.99,207 Z M 317.11,253 C 317.18,249.6 318.32,246.61 320.55,244.05 C 322.06,242.83 323.72,241.89 325.54,241.23 C 327.85,240.94 330.17,240.81 332.5,240.84 C 417.5,240.88 502.5,240.84 587.5,240.74 C 592.17,241.14 595.52,243.47 597.55,247.7 C 598.76,250.9 598.74,254.09 597.5,257.28 C 596.65,258.65 595.84,260.04 595.07,261.44 C 593.47,262.16 591.9,262.94 590.35,263.78 C 588.75,264.07 587.13,264.19 585.5,264.14 C 499.83,264.14 414.17,264.14 328.5,264.11 C 324.05,263.91 320.74,261.87 318.57,257.97 C 317.84,256.38 317.36,254.73 317.11,253 Z M 396.92,323 C 397.23,317.79 399.83,314.22 404.71,312.28 C 414.28,310.72 423.87,309.29 433.48,307.99 C 434.03,307.93 434.49,307.71 434.88,307.32 C 439.26,298.69 443.64,290.06 447.99,281.43 C 450.33,278.21 453.5,276.56 457.5,276.5 C 461.58,276.38 464.9,277.91 467.45,281.07 C 471.85,289.94 476.34,298.76 480.91,307.53 C 491.01,309.18 501.12,310.81 511.24,312.41 C 516.03,314.56 518.59,318.25 518.89,323.5 C 518.74,326.24 517.81,328.69 516.11,330.84 C 509.39,337.37 502.68,343.91 495.98,350.47 C 495.62,350.77 495.38,351.16 495.27,351.62 C 496.85,361.57 498.43,371.53 500,381.5 C 499.62,387.14 496.78,390.91 491.47,392.81 C 487.9,393.49 484.53,392.93 481.36,391.14 C 473.95,387.16 466.5,383.24 459.04,379.36 C 458.58,379.16 458.11,379.06 457.61,379.07 C 449.43,383.07 441.31,387.22 433.27,391.54 C 430.22,393.15 427.02,393.52 423.68,392.67 C 419.76,391.23 417.23,388.5 416.07,384.49 C 415.73,382.17 415.72,379.83 416.02,377.5 C 417.32,370.38 418.59,363.25 419.84,356.12 C 420.15,354.58 420.26,353.03 420.17,351.47 C 413.42,344.52 406.55,337.67 399.56,330.92 C 397.62,328.63 396.74,325.99 396.92,323 Z M 434.3,331.29 C 434.25,331.87 434.39,332.39 434.73,332.86 C 437.33,335.17 439.83,337.57 442.24,340.08 C 444.12,342.57 445,345.38 444.86,348.5 C 444.31,351.85 443.73,355.19 443.13,358.53 C 443.08,358.96 443.21,359.3 443.53,359.55 C 446.96,357.73 450.43,356 453.96,354.37 C 456.41,353.76 458.87,353.71 461.34,354.25 C 464.6,355.56 467.72,357.15 470.7,358.99 C 471.3,359.26 471.8,359.14 472.2,358.65 C 472.01,355.58 471.6,352.53 470.97,349.5 C 470.4,345.96 471.24,342.79 473.5,340.01 C 475.8,337.64 478.15,335.32 480.56,333.06 C 481.09,332.36 481.02,331.76 480.34,331.25 C 476.73,330.82 473.14,330.3 469.55,329.7 C 467.22,328.89 465.29,327.53 463.75,325.6 C 461.9,322.42 460.18,319.17 458.59,315.85 C 458.37,315.49 458.06,315.32 457.65,315.32 C 455.68,318.65 453.78,322.06 451.97,325.53 C 450.28,327.68 448.11,329.11 445.47,329.82 C 441.78,330.5 438.05,330.99 434.3,331.29 Z M 267.96,382 C 268.17,376.79 270.69,373.17 275.52,371.14 C 278.84,370.48 282.17,369.87 285.51,369.32 C 291.73,368.49 297.95,367.68 304.18,366.89 C 304.73,366.78 305.21,366.54 305.63,366.18 C 310.21,357.36 314.74,348.51 319.23,339.64 C 321.58,336.65 324.67,335.09 328.5,334.98 C 332.69,334.84 336.05,336.43 338.59,339.74 C 342.79,347.93 346.89,356.19 350.89,364.49 C 351.37,365.76 352.26,366.55 353.55,366.86 C 359.54,367.66 365.52,368.44 371.5,369.22 C 375.12,369.82 378.74,370.47 382.35,371.16 C 387.26,373.36 389.79,377.14 389.93,382.51 C 389.77,385.15 388.86,387.5 387.2,389.56 C 380.61,395.99 374.04,402.44 367.5,408.92 C 367.06,409.36 366.72,409.87 366.48,410.44 C 368,420.45 369.51,430.47 371.04,440.5 C 370.31,446.86 366.8,450.58 360.49,451.65 C 358.99,451.88 357.51,451.75 356.07,451.26 C 347.68,447.08 339.34,442.78 331.06,438.36 C 330.26,437.91 329.4,437.7 328.48,437.75 C 319.97,441.83 311.57,446.14 303.28,450.69 C 298.72,452.45 294.5,451.82 290.62,448.8 C 288.81,447.04 287.62,444.94 287.04,442.5 C 286.8,440.5 286.8,438.5 287.05,436.5 C 288.34,429.38 289.61,422.25 290.86,415.13 C 291.18,413.58 291.31,412.03 291.26,410.48 C 291.04,409.93 290.72,409.45 290.3,409.04 C 283.67,402.44 277.02,395.86 270.36,389.3 C 268.66,387.16 267.86,384.73 267.96,382 Z M 525.86,382 C 526.05,376.73 528.59,373.1 533.5,371.1 C 536.82,370.46 540.16,369.86 543.51,369.3 C 549.72,368.48 555.94,367.66 562.16,366.86 C 562.69,366.74 563.15,366.5 563.54,366.14 C 568.13,357.31 572.66,348.45 577.13,339.56 C 580.42,335.84 584.53,334.41 589.45,335.28 C 592.39,335.86 594.74,337.37 596.49,339.8 C 600.81,348.25 605.03,356.74 609.16,365.29 C 609.44,365.75 609.81,366.14 610.26,366.44 C 620.27,368.04 630.29,369.65 640.31,371.25 C 644.78,373.23 647.28,376.64 647.82,381.5 C 647.82,384.5 646.9,387.19 645.06,389.55 C 637.94,396.38 631,403.36 624.21,410.48 C 625.54,419.85 627.08,429.2 628.85,438.52 C 629.14,444.26 626.7,448.39 621.52,450.92 C 618.29,452.17 615.12,452.05 611.99,450.56 C 604.37,446.46 596.72,442.42 589.04,438.43 C 588.24,437.97 587.38,437.74 586.47,437.73 C 577.53,442.03 568.67,446.51 559.89,451.17 C 555.75,452.25 551.98,451.48 548.57,448.87 C 545.83,446.34 544.55,443.22 544.73,439.5 C 544.8,438.16 544.91,436.83 545.07,435.5 C 546.35,428.38 547.63,421.26 548.89,414.14 C 549.14,412.92 549.22,411.7 549.13,410.47 C 548.97,409.97 548.7,409.54 548.31,409.18 C 541.65,402.54 534.95,395.93 528.23,389.35 C 526.52,387.2 525.73,384.75 525.86,382 Z M 563.35,390.31 C 563.43,390.79 563.63,391.21 563.97,391.57 C 566.38,393.8 568.7,396.11 570.94,398.51 C 572.79,400.85 573.75,403.51 573.82,406.5 C 573.35,409.86 572.77,413.2 572.09,416.53 C 571.98,417.08 572.16,417.51 572.62,417.81 C 575.68,416.41 578.72,414.93 581.74,413.36 C 585.18,411.81 588.6,411.83 592.02,413.43 C 594.86,414.9 597.69,416.35 600.52,417.79 C 600.98,417.53 601.21,417.13 601.21,416.58 C 600.91,413.88 600.49,411.19 599.97,408.52 C 599.32,404.98 600.09,401.79 602.28,398.96 C 604.4,396.37 606.74,393.99 609.29,391.83 C 610.23,390.79 610.01,390.16 608.61,389.95 C 605.64,389.49 602.67,389.04 599.7,388.59 C 596.54,387.79 594.04,386.05 592.19,383.38 C 590.59,380.53 589.08,377.64 587.66,374.69 C 587.39,374.14 586.99,373.7 586.46,373.39 C 584.87,376.61 583.24,379.82 581.56,383.02 C 579.6,386.04 576.86,387.94 573.34,388.72 C 569.99,389.14 566.66,389.67 563.35,390.31 Z M 305.23,390.22 C 307.71,393.06 310.3,395.81 313.01,398.44 C 314.97,400.78 315.94,403.46 315.94,406.5 C 315.44,409.85 314.87,413.19 314.22,416.52 C 314.19,417.89 314.78,418.21 315.99,417.48 C 318.58,415.97 321.23,414.57 323.95,413.29 C 327.32,411.84 330.69,411.86 334.04,413.37 C 336.75,414.66 339.4,416.07 341.98,417.6 C 342.61,417.94 343.16,417.86 343.62,417.38 C 343.15,414.41 342.63,411.45 342.06,408.5 C 341.44,404.96 342.24,401.78 344.44,398.95 C 346.56,396.44 348.85,394.1 351.32,391.93 C 352.29,390.78 352.03,390.11 350.54,389.92 C 347.59,389.46 344.65,389.01 341.71,388.55 C 338.29,387.64 335.67,385.66 333.86,382.63 C 332.43,379.72 330.91,376.87 329.3,374.07 C 328.77,373.91 328.35,374.06 328.03,374.53 C 326.49,377.59 324.91,380.64 323.3,383.67 C 321.45,386.15 319.03,387.79 316.03,388.6 C 312.43,389.14 308.83,389.68 305.23,390.22 Z M 422.79,603 C 422.96,595.89 425.12,589.44 429.26,583.65 C 436.11,574.62 445.19,569.75 456.5,569.04 C 476.18,568.99 495.85,568.98 515.53,569.02 C 516.95,568.91 517.31,568.23 516.59,566.98 C 508.87,553.94 501.37,540.76 494.11,527.46 C 490.27,518.44 489.31,509.12 491.24,499.52 C 493.98,486.3 501.08,476.15 512.53,469.04 C 520.23,464.26 528.55,462.61 537.5,464.08 C 547.95,466.28 555.98,471.94 561.59,481.05 C 572.4,499.83 583.23,518.59 594.08,537.34 C 607.91,547.85 621.75,558.33 635.62,568.78 C 642.54,569.04 649.46,569.07 656.38,568.87 C 656.86,568.56 657.09,568.11 657.06,567.53 C 657.01,563.53 657.05,559.52 657.19,555.52 C 658.54,549.57 662.25,546.26 668.31,545.59 C 722.37,545.49 776.43,545.45 830.49,545.48 C 837.21,545 841.75,547.89 844.1,554.14 C 845.37,560 843.43,564.47 838.29,567.55 C 837.08,568.16 835.81,568.6 834.49,568.87 C 783.82,569.01 733.15,569.05 682.48,568.98 C 680.95,569.08 680.31,569.9 680.57,571.47 C 680.61,640.16 680.61,708.84 680.57,777.53 C 680.31,779.1 680.95,779.92 682.48,780.02 C 733.16,779.95 783.83,779.99 834.5,780.12 C 840.57,781.51 843.94,785.31 844.6,791.51 C 844.32,797.05 841.61,800.82 836.47,802.84 C 835.49,803.08 834.5,803.19 833.5,803.18 C 778.17,803.17 722.83,803.17 667.5,803.17 C 663.37,802.77 660.34,800.72 658.41,797.03 C 657.58,795.28 657.14,793.43 657.07,791.5 C 657.08,725.51 657.05,659.52 656.96,593.53 C 656.72,592.92 656.26,592.59 655.6,592.53 C 647.97,592.52 640.34,592.51 632.72,592.49 C 629.26,592.38 626.18,591.25 623.46,589.11 C 608.24,577.65 593.07,566.13 577.93,554.57 C 576.55,553.3 575.35,551.88 574.34,550.29 C 563.55,531.37 552.7,512.49 541.78,493.64 C 538.88,488.68 534.59,486.54 528.91,487.21 C 523.8,488.83 519.87,491.95 517.12,496.58 C 513.49,503.14 512.84,509.98 515.19,517.1 C 515.61,518.11 516.09,519.09 516.62,520.04 C 527.41,538.84 538.17,557.66 548.91,576.49 C 550.48,581.91 549.13,586.46 544.85,590.13 C 542.57,591.68 540.05,592.46 537.28,592.48 C 510.34,592.44 483.41,592.52 456.48,592.73 C 450.43,593.8 446.97,597.4 446.12,603.5 C 446.22,608.54 448.5,612.24 452.95,614.6 C 455.67,615.53 458.46,616.11 461.32,616.35 C 466.41,618.33 469.14,622.04 469.49,627.5 C 469.16,632.98 466.43,636.69 461.3,638.63 C 459.37,638.97 457.43,639.29 455.49,639.6 C 450.68,640.84 447.62,643.87 446.32,648.67 C 445.61,654.49 447.82,658.79 452.95,661.6 C 455.67,662.53 458.46,663.11 461.32,663.35 C 466.41,665.33 469.14,669.04 469.49,674.5 C 469.16,679.97 466.43,683.69 461.3,685.63 C 459.37,685.97 457.43,686.3 455.49,686.6 C 449.92,688.13 446.79,691.76 446.11,697.5 C 446.22,702.54 448.5,706.24 452.95,708.61 C 455.75,709.3 458.58,709.82 461.44,710.17 C 466.58,712.2 469.26,715.97 469.48,721.5 C 468.98,727.31 465.92,731.04 460.33,732.69 C 458.86,732.93 457.38,733.09 455.89,733.16 C 450.58,734.51 447.34,737.85 446.16,743.2 C 445.93,749.47 448.74,753.73 454.59,755.96 C 455.88,756.22 457.19,756.39 458.5,756.46 C 513.52,756.4 568.53,756.49 623.54,756.74 C 629.43,757.94 632.79,761.53 633.59,767.52 C 633.56,773.2 630.92,777.11 625.67,779.27 C 624.33,779.8 622.94,780.05 621.5,780 C 566.83,780.01 512.17,780.01 457.5,779.99 C 444.86,779.52 435.04,774.02 428.04,763.47 C 423.78,756.39 422.08,748.73 422.93,740.5 C 423.48,736.14 424.79,732.01 426.84,728.12 C 428.23,725.89 429.62,723.68 431.01,721.48 C 431.04,720.9 430.87,720.39 430.5,719.94 C 426.36,714.84 423.86,709.03 423,702.5 C 422.11,696.09 422.98,689.94 425.59,684.03 C 427.19,680.71 429.01,677.53 431.04,674.51 C 429.51,672.04 428,669.53 426.5,666.99 C 423.28,660.52 422.09,653.69 422.94,646.5 C 423.38,643.22 424.26,640.07 425.59,637.03 C 427.19,633.71 429.01,630.53 431.04,627.51 C 429.68,625.22 428.28,622.94 426.84,620.65 C 423.98,615.11 422.63,609.23 422.79,603 Z M 282.03,534 C 282.34,528.27 285.19,524.42 290.58,522.45 C 294.66,521.38 298.3,522.24 301.48,525.01 C 306.49,529.99 311.46,535.01 316.41,540.06 C 316.87,540.55 317.43,540.79 318.1,540.79 C 339.01,523.37 360.01,506.05 381.1,488.85 C 385.29,486.43 389.46,486.42 393.61,488.82 C 398.24,491.83 399.97,496.04 398.8,501.46 C 398.11,503.84 396.85,505.85 395,507.5 C 375.53,523.67 356.05,539.83 336.57,555.99 C 336.29,556.74 336.58,557.13 337.43,557.13 C 343.06,557.05 348.68,557.17 354.29,557.47 C 360.49,559.09 363.74,563.1 364.01,569.5 C 363.46,574.82 360.66,578.37 355.62,580.15 C 354.29,580.6 352.91,580.83 351.5,580.84 C 332.5,580.84 313.5,580.84 294.5,580.84 C 288.18,580.61 284.13,577.48 282.34,571.44 C 281.48,565.67 283.61,561.36 288.71,558.49 C 291.88,557.23 295.17,556.78 298.58,557.13 C 299.08,557.14 299.42,556.93 299.6,556.5 C 294.44,551.15 289.29,545.8 284.13,540.44 C 282.82,538.49 282.12,536.34 282.03,534 Z M 199.99,837 C 199.99,747.5 200,658 200.01,568.5 C 200.43,563.94 202.66,560.6 206.72,558.47 C 211.54,556.4 215.92,557.13 219.85,560.65 C 222.26,563.11 223.43,566.06 223.37,569.5 C 223.41,654.16 223.42,738.83 223.4,823.49 C 223.28,824.57 223.45,825.58 223.92,826.52 C 224.75,826.78 225.62,826.89 226.5,826.84 C 385.5,826.82 544.5,826.82 703.5,826.84 C 708.62,826.85 712.31,829.15 714.57,833.75 C 716.54,838.8 715.61,843.26 711.78,847.13 C 709.42,849.21 706.66,850.22 703.5,850.16 C 540.17,850.17 376.83,850.18 213.5,850.18 C 207.32,850.58 203.04,847.93 200.69,842.23 C 200.11,840.54 199.88,838.79 199.99,837 Z M 282.01,672 C 281.99,652.83 282.02,633.66 282.08,614.5 C 283.34,608.23 287.14,604.73 293.5,604.01 C 313.17,603.99 332.83,603.99 352.5,604.01 C 359.41,604.77 363.25,608.6 364.03,615.5 C 364.06,635.17 364.06,654.83 364.04,674.5 C 363.74,679.79 361.15,683.44 356.26,685.47 C 355.05,685.93 353.8,686.15 352.5,686.14 C 332.17,686.24 311.83,686.18 291.5,685.97 C 286.68,684.82 283.62,681.85 282.34,677.05 C 282.05,675.38 281.94,673.7 282.01,672 Z M 727.35,616 C 727.95,609.11 731.66,605.13 738.5,604.07 C 745.81,604.43 749.95,608.24 750.92,615.5 C 750.4,622.64 746.59,626.65 739.48,627.55 C 732.29,627.02 728.25,623.17 727.35,616 Z M 774.2,616 C 774.82,609.04 778.59,605.06 785.5,604.07 C 792.75,604.48 796.86,608.29 797.83,615.5 C 797.29,622.57 793.5,626.58 786.48,627.54 C 779.24,627.06 775.14,623.22 774.2,616 Z M 305.29,628.25 C 305.48,638.98 305.55,649.71 305.49,660.44 C 305.41,662.5 306.42,663.3 308.5,662.84 C 319.06,662.91 329.6,662.82 340.14,662.58 C 340.28,662.43 340.41,662.28 340.54,662.14 C 340.7,661.26 340.76,660.38 340.73,659.5 C 340.71,649.51 340.72,639.53 340.75,629.55 C 340.71,628.14 339.98,627.46 338.54,627.51 C 328.52,627.52 318.51,627.51 308.5,627.49 C 307.36,627.47 306.29,627.72 305.29,628.25 Z M 282.01,790 C 281.99,770.5 282.02,751 282.1,731.5 C 283.63,724.95 287.76,721.51 294.5,721.16 C 313.5,721.16 332.5,721.16 351.5,721.16 C 357.47,721.28 361.48,724.13 363.56,729.71 C 363.83,730.62 363.99,731.55 364.01,732.5 C 364.06,752.16 364.07,771.83 364.04,791.5 C 363.82,796.86 361.25,800.59 356.33,802.69 C 355.41,802.99 354.47,803.15 353.5,803.17 C 332.83,803.2 312.16,803.17 291.49,803.1 C 286.68,802.03 283.64,799.1 282.37,794.31 C 282.07,792.89 281.95,791.45 282.01,790 Z M 305.33,745.28 C 305.5,756.6 305.54,767.92 305.42,779.25 C 305.53,779.41 305.64,779.57 305.75,779.74 C 317.26,780.08 328.76,780.08 340.26,779.74 C 340.63,779.4 340.79,778.97 340.74,778.46 C 340.72,767.82 340.72,757.18 340.74,746.54 C 340.64,745.21 339.9,744.65 338.52,744.84 C 328.51,744.85 318.51,744.84 308.5,744.83 C 307.42,744.81 306.36,744.97 305.33,745.28 Z"/></g>
</svg>
