<?xml version="1.0" encoding="UTF-8"?>
<!DOCTYPE svg PUBLIC "-//W3C//DTD SVG 1.1//EN" "http://www.w3.org/Graphics/SVG/1.1/DTD/svg11.dtd">
<svg xmlns="http://www.w3.org/2000/svg" version="1.1" width="1024px" height="1024px" style="shape-rendering:geometricPrecision; text-rendering:geometricPrecision; image-rendering:optimizeQuality; fill-rule:evenodd; clip-rule:evenodd" xmlns:xlink="http://www.w3.org/1999/xlink">
<rect x="0" y="0" width="1024" height="1024" fill="#ffffff"/>
<g><path fill="#578fcc" stroke="#578fcc" stroke-width="0.5" d="M 0,0 C 341.33,0 682.67,0 1024,0 C 1024,341.33 1024,682.67 1024,1024 C 682.67,1024 341.33,1024 0,1024 C 0,682.67 0,341.33 0,0 Z M 28.34,512 C 28.82,600.43 51.45,682.78 96.25,759.05 C 147.03,843.24 216.72,906.62 305.32,949.22 C 370.64,979.89 439.36,995.38 511.5,995.66 C 591.56,995.39 667.07,976.68 738.02,939.54 C 825.43,892.6 892.6,825.43 939.54,738.02 C 976.5,667.37 995.21,592.2 995.66,512.5 C 995.39,432.44 976.68,356.93 939.54,285.98 C 892.6,198.57 825.43,131.4 738.02,84.46 C 667.37,47.5 592.2,28.79 512.5,28.34 C 432.44,28.61 356.93,47.32 285.98,84.46 C 198.57,131.4 131.4,198.57 84.46,285.98 C 47.41,356.78 28.7,432.12 28.34,512 Z M 380.96,476.22 C 381.64,476.41 382.33,476.6 383.02,476.78 C 382.51,477.01 382.29,477.4 382.37,477.97 C 383.5,482.89 386.36,486.44 390.93,488.63 C 397.38,491.19 404.07,492.83 410.99,493.54 C 419.48,494.3 427.98,494.46 436.49,494.01 C 450.62,493.27 463.27,488.56 474.42,479.9 C 484.94,471.01 491,459.71 492.57,446.01 C 493.81,435.43 492.32,425.25 488.11,415.46 C 485.44,409.71 481.79,404.67 477.16,400.34 C 476.49,400.17 475.96,400.37 475.55,400.96 C 474.64,399.27 473.64,397.63 472.54,396.06 C 472.89,395.5 473.36,395.32 473.96,395.52 C 475.07,396.47 476.27,397.28 477.56,397.97 C 478.98,399.53 480.44,401.04 481.96,402.5 C 487.82,409.97 491.74,418.35 493.71,427.64 C 493.91,430.6 494.31,433.53 494.91,436.44 C 495.2,438.93 494.98,441.36 494.26,443.74 C 494.06,449.16 493.02,454.41 491.14,459.51 C 489.68,462.74 488.11,465.92 486.42,469.03 C 484.85,471.43 483.18,473.75 481.42,476.01 C 478.73,478.6 475.94,481.08 473.04,483.45 C 469.07,486.01 464.93,488.26 460.62,490.21 C 455.66,492.2 450.56,493.68 445.31,494.65 C 442.67,494.83 440.06,495.21 437.48,495.78 C 430.17,496.07 422.85,496.1 415.54,495.88 C 409.83,495.15 404.16,494.18 398.54,492.94 C 396.21,492.3 393.9,491.6 391.61,490.84 C 388.82,489.83 386.43,488.24 384.43,486.07 C 382.03,483.95 380.74,481.3 380.55,478.12 C 380.44,477.43 380.58,476.8 380.96,476.22 Z"/></g>
<g><path fill="#86b1de" stroke="#86b1de" stroke-width="0.5" d="M 594.89,372.04 C 595.73,375.74 596.28,379.49 596.53,383.28 C 598.23,398.23 596.93,412.9 592.65,427.31 C 590.69,433.47 587.48,438.88 583.03,443.53 C 579.11,447.29 574.44,449.24 569.01,449.37 C 567.36,446.71 565.76,444.01 564.2,441.25 C 562.25,437.21 560.94,432.97 560.27,428.53 C 559.3,421.57 558.65,414.58 558.34,407.56 C 558.46,401.16 559.03,394.8 560.04,388.47 C 561.18,381.22 563.86,374.6 568.08,368.63 C 571.35,364.73 575.53,362.82 580.6,362.91 C 584.02,363.31 587.01,364.66 589.58,366.97 C 591.15,368.46 592.52,370.11 593.67,371.93 C 594.07,372.14 594.47,372.17 594.89,372.04 Z"/></g>
<g><path fill="#6096d0" d="M 474.92,321.98 C 475.43,321.8 475.95,321.72 476.48,321.73 C 482.92,322.68 487.09,326.28 489,332.51 C 490.15,337 490.39,341.54 489.72,346.13 C 488.98,352.1 485.91,356.39 480.53,359.01 C 475.67,360.7 470.66,361.41 465.5,361.12 C 457.16,361.14 448.81,361.07 440.47,360.91 C 438.38,360.89 436.34,361.15 434.33,361.69 C 428.55,363.67 425.81,367.72 426.11,373.82 C 425.44,373.82 424.78,373.8 424.12,373.78 C 423.79,365.56 427.67,360.72 435.76,359.24 C 437.34,359.02 438.92,358.9 440.51,358.88 C 451.18,359.04 461.83,359.04 472.49,358.89 C 483.32,357.59 488.56,351.46 488.21,340.5 C 488.37,335.1 486.54,330.51 482.74,326.73 C 481.43,325.63 479.95,324.81 478.33,324.27 C 477.22,323.81 476.08,323.71 474.91,323.98 C 474.91,323.32 474.92,322.65 474.92,321.98 Z M 518.2,455.76 C 520.8,459.45 523.76,462.83 527.08,465.9 C 526.42,466.11 526.14,466.55 526.24,467.22 C 527.6,469.78 529.27,472.11 531.26,474.23 C 541.3,485.91 553.97,492.76 569.26,494.78 C 580.19,496.38 590.9,495.43 601.38,491.92 C 616.55,486.41 628.04,476.58 635.87,462.45 C 643.24,448.02 647.33,432.71 648.13,416.5 C 648.69,406.1 648.14,395.76 646.46,385.47 C 644.59,372.41 640.24,360.23 633.43,348.94 C 630.3,343.53 626.24,338.96 621.25,335.22 C 620.56,335.1 620.11,335.39 619.9,336.09 C 617.5,332.55 614.77,329.27 611.74,326.26 C 611.88,325.91 612.11,325.63 612.43,325.43 C 619.24,328.91 625.11,333.58 630.05,339.45 C 638.65,350.03 644.42,361.98 647.37,375.31 C 650.79,390.15 651.88,405.16 650.62,420.34 C 649.53,435.19 645.68,449.27 639.07,462.59 C 630.04,479.76 616.18,490.93 597.5,496.08 C 584.86,499.14 572.25,499.02 559.67,495.72 C 539.54,489.54 525.44,476.72 517.37,457.25 C 517.33,456.59 517.6,456.09 518.2,455.76 Z M 592.74,364.1 C 593.17,365.4 593.56,366.71 593.92,368.04 C 593.48,368.02 593.08,367.89 592.71,367.67 C 589.26,363.51 584.86,361.23 579.5,360.84 C 574.36,361.2 570.15,363.38 566.85,367.37 C 562.44,373.1 559.6,379.53 558.33,386.67 C 556.59,397.56 556.17,408.5 557.05,419.5 C 557.44,429.58 560.29,438.89 565.6,447.43 C 565.1,447.75 564.58,448.04 564.04,448.31 C 564.05,448.46 564.06,448.61 564.07,448.76 C 563.66,448.66 563.25,448.54 562.84,448.43 C 562.87,447.86 562.81,447.29 562.69,446.74 C 557.74,437.27 555.15,427.2 554.92,416.5 C 554.23,406.07 554.83,395.71 556.71,385.44 C 558.01,378.46 560.78,372.13 564.99,366.45 C 568.45,362.05 572.95,359.52 578.49,358.84 C 581.7,358.68 584.72,359.35 587.56,360.86 C 589.28,361.99 591.01,363.07 592.74,364.1 Z M 379.13,475.68 C 379.74,475.86 380.35,476.04 380.96,476.22 C 380.58,476.8 380.44,477.43 380.55,478.12 C 380.74,481.3 382.03,483.95 384.43,486.07 C 386.43,488.24 388.82,489.83 391.61,490.84 C 393.9,491.6 396.21,492.3 398.54,492.94 C 404.16,494.18 409.83,495.15 415.54,495.88 C 422.85,496.1 430.17,496.07 437.48,495.78 C 440.06,495.21 442.67,494.83 445.31,494.65 C 450.56,493.68 455.66,492.2 460.62,490.21 C 464.93,488.26 469.07,486.01 473.04,483.45 C 475.94,481.08 478.73,478.6 481.42,476.01 C 483.18,473.75 484.85,471.43 486.42,469.03 C 488.11,465.92 489.68,462.74 491.14,459.51 C 493.02,454.41 494.06,449.16 494.26,443.74 C 494.98,441.36 495.2,438.93 494.91,436.44 C 494.31,433.53 493.91,430.6 493.71,427.64 C 491.74,418.35 487.82,409.97 481.96,402.5 C 480.44,401.04 478.98,399.53 477.56,397.97 C 476.27,397.28 475.07,396.47 473.96,395.52 C 473.36,395.32 472.89,395.5 472.54,396.06 C 471.64,394.77 470.67,393.54 469.63,392.37 C 469.92,391.79 470.38,391.53 470.99,391.57 C 473.29,392.86 475.44,394.35 477.46,396.04 C 490.22,407.29 496.6,421.45 496.6,438.5 C 496.64,452.54 492.26,465.03 483.47,475.97 C 473.47,486.9 461.15,493.64 446.53,496.2 C 431.4,498.83 416.33,498.55 401.31,495.39 C 396.51,494.55 391.92,493.07 387.55,490.95 C 381.82,487.87 378.8,483.1 378.48,476.63 C 378.56,476.22 378.78,475.9 379.13,475.68 Z"/></g>
<g><path fill="#72a3d6" d="M 505.06,425.03 C 505.09,425.48 505.3,425.81 505.7,426.02 C 507.99,436.73 512.16,446.64 518.2,455.76 C 517.6,456.09 517.33,456.59 517.37,457.25 C 525.44,476.72 539.54,489.54 559.67,495.72 C 572.25,499.02 584.86,499.14 597.5,496.08 C 616.18,490.93 630.04,479.76 639.07,462.59 C 645.68,449.27 649.53,435.19 650.62,420.34 C 651.88,405.16 650.79,390.15 647.37,375.31 C 644.42,361.98 638.65,350.03 630.05,339.45 C 625.11,333.58 619.24,328.91 612.43,325.43 C 612.11,325.63 611.88,325.91 611.74,326.26 C 609.29,323.98 606.67,321.94 603.87,320.11 C 604.11,319.45 604.59,319.16 605.28,319.24 C 610.37,320.72 615.1,322.96 619.46,325.97 C 631.84,334.77 640.63,346.31 645.85,360.59 C 652.18,378.01 654.87,395.98 653.93,414.5 C 653.46,431.16 649.71,447.05 642.69,462.16 C 630.1,486.63 610.06,499.7 582.59,501.38 C 567.61,501.96 553.72,498.37 540.92,490.61 C 528.67,482.26 519.68,471.25 513.94,457.58 C 511.44,451.31 509.1,444.99 506.91,438.61 C 505.37,434.41 504.48,430.08 504.23,425.62 C 504.39,425.26 504.67,425.06 505.06,425.03 Z"/></g>
<g><path fill="#3678c0" d="M 539.18,474.59 C 541.45,475.75 543.79,476.75 546.2,477.59 C 545.56,477.97 544.92,478.35 544.26,478.72 C 544.69,479.45 545.31,480.01 546.13,480.39 C 557.45,487.49 569.78,490.57 583.13,489.63 C 606.07,488.04 622.61,476.9 632.76,456.23 C 638.43,443.94 641.57,431.02 642.18,417.48 C 642.35,410.82 642.35,404.17 642.18,397.51 C 641.46,385.37 638.81,373.67 634.23,362.41 C 633.41,360.68 632.45,359.04 631.34,357.49 C 630.94,357.58 630.56,357.74 630.21,357.95 C 629.18,354.63 627.98,351.37 626.61,348.17 C 626.98,347.62 627.47,347.41 628.1,347.53 C 628.77,348.75 629.57,349.87 630.52,350.89 C 632.48,354.6 634.41,358.31 636.33,362.04 C 637.06,363.94 637.79,365.85 638.52,367.75 C 639.96,372.41 641.29,377.09 642.5,381.8 C 642.49,383.87 642.84,385.88 643.54,387.81 C 643.63,391.74 643.99,395.64 644.59,399.5 C 644.69,406.42 644.68,413.33 644.56,420.25 C 644.22,420.96 643.99,421.69 643.88,422.47 C 643.71,424.36 643.6,426.26 643.56,428.17 C 643.2,428.91 642.93,429.68 642.76,430.48 C 642.28,433.05 641.89,435.64 641.57,438.24 C 640.14,442.54 638.8,446.87 637.54,451.21 C 635.69,455.27 633.73,459.26 631.65,463.19 C 630.75,464.32 629.98,465.53 629.32,466.81 C 626.23,470.38 623,473.82 619.62,477.13 C 616.87,479.39 614.02,481.51 611.06,483.5 C 608,485.14 604.94,486.77 601.86,488.39 C 600.55,488.5 599.32,488.89 598.19,489.56 C 594.65,490.36 591.09,491.03 587.5,491.57 C 581.6,492 575.7,491.99 569.8,491.53 C 566.8,490.85 563.8,490.19 560.78,489.54 C 558.87,488.66 556.89,488 554.84,487.57 C 552.65,486.44 550.43,485.36 548.19,484.33 C 545.83,482.32 543.35,480.46 540.76,478.76 C 540.1,477.72 539.25,476.86 538.21,476.2 C 538.23,475.51 538.55,474.97 539.18,474.59 Z M 399,408.92 C 399.71,410.68 400.93,412 402.64,412.85 C 404.76,414.06 407.04,414.78 409.47,414.99 C 415.5,414.77 421.53,414.43 427.55,413.97 C 431.17,414.08 434.78,414.34 438.37,414.77 C 438.82,414.56 439.11,414.22 439.26,413.75 C 440.58,415.27 441.59,416.98 442.29,418.87 C 442.05,419.92 441.86,420.99 441.73,422.07 C 441.42,421.62 441.02,421.28 440.52,421.05 C 435.36,419.08 430.02,418.27 424.49,418.6 C 420.16,418.96 415.83,419.32 411.5,419.7 C 406.74,419.97 402.47,418.65 398.71,415.74 C 396.77,414.31 395.55,412.44 395.02,410.13 C 396.37,409.79 397.69,409.39 399,408.92 Z"/></g>
<g><path fill="#4281c4" d="M 474.91,325.98 C 477.52,326.04 479.77,326.98 481.67,328.78 C 484.69,332.09 486.18,336 486.14,340.5 C 486.3,350.47 481.43,355.94 471.53,356.93 C 460.52,357.23 449.5,357.3 438.49,357.14 C 427.32,357.15 421.83,362.73 422,373.85 C 421.02,373.88 420.04,373.9 419.07,373.92 C 419.1,371.52 419.24,369.13 419.47,366.74 C 421.09,359.86 425.39,355.89 432.38,354.81 C 433.75,354.63 435.13,354.51 436.51,354.45 C 447.18,354.58 457.83,354.52 468.49,354.28 C 472.16,354.15 475.52,353.09 478.59,351.09 C 482.25,347.71 483.71,343.54 482.96,338.57 C 482.34,334.84 480.41,332.01 477.17,330.08 C 476.42,329.88 475.67,329.85 474.9,329.98 C 474.9,328.65 474.9,327.32 474.91,325.98 Z M 531.16,469.47 C 533.67,471.43 536.34,473.13 539.18,474.59 C 538.55,474.97 538.23,475.51 538.21,476.2 C 539.25,476.86 540.1,477.72 540.76,478.76 C 543.35,480.46 545.83,482.32 548.19,484.33 C 550.43,485.36 552.65,486.44 554.84,487.57 C 556.89,488 558.87,488.66 560.78,489.54 C 563.8,490.19 566.8,490.85 569.8,491.53 C 575.7,491.99 581.6,492 587.5,491.57 C 591.09,491.03 594.65,490.36 598.19,489.56 C 599.32,488.89 600.55,488.5 601.86,488.39 C 604.94,486.77 608,485.14 611.06,483.5 C 614.02,481.51 616.87,479.39 619.62,477.13 C 623,473.82 626.23,470.38 629.32,466.81 C 629.98,465.53 630.75,464.32 631.65,463.19 C 633.73,459.26 635.69,455.27 637.54,451.21 C 638.8,446.87 640.14,442.54 641.57,438.24 C 641.89,435.64 642.28,433.05 642.76,430.48 C 642.93,429.68 643.2,428.91 643.56,428.17 C 643.6,426.26 643.71,424.36 643.88,422.47 C 643.99,421.69 644.22,420.96 644.56,420.25 C 644.68,413.33 644.69,406.42 644.59,399.5 C 643.99,395.64 643.63,391.74 643.54,387.81 C 642.84,385.88 642.49,383.87 642.5,381.8 C 641.29,377.09 639.96,372.41 638.52,367.75 C 637.79,365.85 637.06,363.94 636.33,362.04 C 634.41,358.31 632.48,354.6 630.52,350.89 C 629.57,349.87 628.77,348.75 628.1,347.53 C 627.47,347.41 626.98,347.62 626.61,348.17 C 625.47,345.4 624.13,342.74 622.61,340.16 C 622.93,339.62 623.35,339.47 623.89,339.73 C 634.04,351 640.54,364.1 643.37,379.03 C 646.08,392.4 646.91,405.89 645.87,419.5 C 644.87,434.1 641.07,447.93 634.48,460.99 C 622.66,482.07 604.66,492.92 580.5,493.52 C 560.19,494.04 543.59,486.48 530.7,470.85 C 530.46,470.28 530.61,469.82 531.16,469.47 Z"/></g>
<g><path fill="#4985c7" d="M 589.88,357.13 C 590.47,358.34 591.02,359.56 591.53,360.81 C 591.02,360.76 590.53,360.65 590.05,360.46 C 589.31,359.77 588.48,359.25 587.54,358.88 C 585.25,358 582.9,357.37 580.48,356.99 C 574.72,357.09 569.76,359.14 565.6,363.14 C 562.57,366.62 560.1,370.45 558.19,374.66 C 555.13,382.99 553.4,391.58 553,400.45 C 552.72,409.15 553.08,417.83 554.08,426.48 C 555.28,433.07 557.27,439.42 560.05,445.51 C 559.95,446.1 559.64,446.55 559.1,446.86 C 557.93,446.22 556.83,445.49 555.79,444.66 C 556.59,444.24 556.89,443.58 556.68,442.7 C 553.53,434.06 551.76,425.14 551.36,415.94 C 550.59,404.03 551.58,392.28 554.33,380.67 C 556.27,372.79 560.15,366.06 565.98,360.48 C 570.8,356.34 576.35,354.69 582.64,355.51 C 585.05,356.12 587.46,356.66 589.88,357.13 Z M 383.02,476.78 C 383.66,476.95 384.3,477.11 384.94,477.27 C 385.09,477.46 385.24,477.66 385.39,477.85 C 385.22,478.61 385.18,479.37 385.27,480.14 C 387.03,483.81 389.83,486.36 393.67,487.77 C 398.16,489.36 402.77,490.49 407.49,491.15 C 422.21,493.71 436.81,493.22 451.31,489.68 C 462.51,486.66 471.97,480.85 479.7,472.23 C 486.4,463.81 490.18,454.23 491.04,443.5 C 491.98,431.04 489.08,419.56 482.35,409.05 C 481.19,407.37 479.89,405.83 478.45,404.43 C 478.07,404.59 477.77,404.85 477.55,405.2 C 476.97,403.74 476.3,402.33 475.55,400.96 C 475.96,400.37 476.49,400.17 477.16,400.34 C 481.79,404.67 485.44,409.71 488.11,415.46 C 492.32,425.25 493.81,435.43 492.57,446.01 C 491,459.71 484.94,471.01 474.42,479.9 C 463.27,488.56 450.62,493.27 436.49,494.01 C 427.98,494.46 419.48,494.3 410.99,493.54 C 404.07,492.83 397.38,491.19 390.93,488.63 C 386.36,486.44 383.5,482.89 382.37,477.97 C 382.29,477.4 382.51,477.01 383.02,476.78 Z"/></g>
<g><path fill="#3c7cc2" d="M 587.45,352.85 C 588.34,354.23 589.15,355.65 589.88,357.13 C 587.46,356.66 585.05,356.12 582.64,355.51 C 576.35,354.69 570.8,356.34 565.98,360.48 C 560.15,366.06 556.27,372.79 554.33,380.67 C 551.58,392.28 550.59,404.03 551.36,415.94 C 551.76,425.14 553.53,434.06 556.68,442.7 C 556.89,443.58 556.59,444.24 555.79,444.66 C 555.16,444.14 554.56,443.6 553.96,443.05 C 554.16,442.2 554.13,441.36 553.9,440.52 C 552.36,435.86 551.22,431.12 550.48,426.28 C 549.75,419.37 549.28,412.44 549.08,405.49 C 549.15,403.77 549.2,402.07 549.21,400.38 C 549.43,399.94 549.59,399.49 549.68,399.01 C 549.73,386.73 552.99,375.39 559.47,364.97 C 564.49,357.44 571.5,353.54 580.51,353.26 C 582.52,353.28 584.5,353.47 586.46,353.84 C 586.91,353.62 587.24,353.29 587.45,352.85 Z M 384.94,477.27 C 385.64,477.43 386.35,477.59 387.05,477.75 C 386.77,478.92 386.92,480.03 387.5,481.07 C 388.65,482.2 389.8,483.33 390.97,484.45 C 393.93,486.2 397.1,487.4 400.49,488.05 C 403.81,488.78 407.15,489.44 410.5,490 C 415.81,490.63 421.15,490.99 426.5,491.1 C 435.5,491.24 444.33,490.03 452.99,487.49 C 459.72,485.41 465.89,482.27 471.51,478.06 C 473.19,476.38 474.96,474.81 476.82,473.34 C 479.36,470.16 481.68,466.82 483.79,463.34 C 485.35,460.1 486.65,456.76 487.68,453.31 C 488.49,449.7 489.13,446.06 489.6,442.39 C 489.31,438.76 489.12,435.13 489.01,431.5 C 488.1,424.55 485.9,418.05 482.4,411.99 C 481.78,411.09 481.13,410.23 480.45,409.4 C 479.98,409.47 479.56,409.64 479.17,409.93 C 478.7,408.33 478.16,406.75 477.55,405.2 C 477.77,404.85 478.07,404.59 478.45,404.43 C 479.89,405.83 481.19,407.37 482.35,409.05 C 489.08,419.56 491.98,431.04 491.04,443.5 C 490.18,454.23 486.4,463.81 479.7,472.23 C 471.97,480.85 462.51,486.66 451.31,489.68 C 436.81,493.22 422.21,493.71 407.49,491.15 C 402.77,490.49 398.16,489.36 393.67,487.77 C 389.83,486.36 387.03,483.81 385.27,480.14 C 385.18,479.37 385.22,478.61 385.39,477.85 C 385.24,477.66 385.09,477.46 384.94,477.27 Z"/></g>
<g><path fill="#75a5d8" d="M 376,474.61 C 376.42,476.88 376.8,479.16 377.14,481.46 C 378.55,486.37 381.51,490.03 386.04,492.43 C 390.63,494.65 395.44,496.2 400.48,497.07 C 413.73,499.93 427.07,500.57 440.52,498.99 C 453.8,497.6 465.85,492.99 476.66,485.17 C 486.11,477.64 492.53,468.05 495.9,456.42 C 499.34,444.71 499.43,432.99 496.17,421.26 C 491.17,404.99 480.92,393.41 465.42,386.49 C 465.11,386.82 464.9,387.2 464.78,387.64 C 463.22,386.35 461.59,385.16 459.87,384.1 C 460.14,383.4 460.66,383.1 461.4,383.19 C 464.64,384.03 467.74,385.25 470.68,386.85 C 482.96,394.01 491.83,404.16 497.29,417.3 C 500.2,423.72 501.47,430.45 501.08,437.49 C 499.05,470.66 481.94,491.27 449.74,499.33 C 433.31,502.54 416.91,502.4 400.53,498.9 C 394.73,497.93 389.22,496.12 383.99,493.47 C 377.19,489.4 374.25,483.44 375.14,475.6 C 375.3,475.16 375.59,474.83 376,474.61 Z"/></g>
<g><path fill="#2e73bd" d="M 474.9,329.98 C 475.67,329.85 476.42,329.88 477.17,330.08 C 480.41,332.01 482.34,334.84 482.96,338.57 C 483.71,343.54 482.25,347.71 478.59,351.09 C 475.52,353.09 472.16,354.15 468.49,354.28 C 457.83,354.52 447.18,354.58 436.51,354.45 C 435.13,354.51 433.75,354.63 432.38,354.81 C 425.39,355.89 421.09,359.86 419.47,366.74 C 419.24,369.13 419.1,371.52 419.07,373.92 C 418.63,373.96 418.19,373.99 417.75,374.03 C 417.26,373.64 416.99,373.14 416.93,372.52 C 416.95,369.53 417.39,366.6 418.26,363.73 C 419.95,358.8 423.23,355.4 428.09,353.54 C 430.87,352.98 433.65,352.47 436.44,352.02 C 447.8,352.24 459.15,352.19 470.51,351.85 C 472.78,351.44 474.92,350.65 476.93,349.49 C 478.3,348.38 479.28,346.99 479.87,345.31 C 480.27,343.78 480.57,342.23 480.78,340.66 C 480.5,338.27 479.74,336.05 478.52,333.98 C 477.78,332.75 476.73,332.26 475.35,332.5 C 475.2,332.66 475.06,332.83 474.91,332.99 C 474.91,331.99 474.9,330.99 474.9,329.98 Z M 586.92,352.06 C 587.1,352.32 587.27,352.58 587.45,352.85 C 587.24,353.29 586.91,353.62 586.46,353.84 C 584.5,353.47 582.52,353.28 580.51,353.26 C 571.5,353.54 564.49,357.44 559.47,364.97 C 552.99,375.39 549.73,386.73 549.68,399.01 C 549.59,399.49 549.43,399.94 549.21,400.38 C 549.2,402.07 549.15,403.77 549.08,405.49 C 549.28,412.44 549.75,419.37 550.48,426.28 C 551.22,431.12 552.36,435.86 553.9,440.52 C 554.13,441.36 554.16,442.2 553.96,443.05 C 551.93,440.98 550.24,438.67 548.89,436.1 C 549.65,435.85 550.03,435.32 550.04,434.51 C 549.99,433.1 549.64,431.76 548.99,430.5 C 549.05,429.53 549.01,428.56 548.88,427.59 C 548.51,426.92 548.22,426.21 548.03,425.47 C 548.18,421.08 548.04,416.71 547.62,412.37 C 547.24,411.45 546.99,410.51 546.88,409.52 C 546.84,407.17 546.87,404.82 546.94,402.47 C 546.98,401.38 547.27,400.35 547.79,399.39 C 548.1,396.74 548.16,394.1 547.98,391.44 C 548.05,390.37 548.32,389.36 548.81,388.41 C 548.95,387.46 549.01,386.5 549,385.53 C 549.79,382.63 550.55,379.71 551.28,376.77 C 552.2,375.2 552.85,373.53 553.26,371.76 C 553.98,370.45 554.62,369.12 555.2,367.74 C 556.68,365.54 558.14,363.31 559.59,361.05 C 561.26,359.76 562.75,358.29 564.07,356.64 C 565.46,356.1 566.7,355.31 567.78,354.27 C 569.38,353.5 571.01,352.82 572.68,352.24 C 574.34,352.06 575.96,351.69 577.53,351.13 C 579.65,350.65 581.68,350.88 583.61,351.83 C 584.71,351.97 585.81,352.04 586.92,352.06 Z"/></g>
<g><path fill="#236ab8" d="M 417.75,374.03 C 417.8,374.27 417.86,374.51 417.91,374.75 C 415.92,374.75 413.95,374.92 411.98,375.24 C 411.99,374.75 412.19,374.36 412.58,374.06 C 413.42,374 414.19,373.79 414.9,373.42 C 414.67,368.73 415.52,364.25 417.44,359.97 C 419.7,355.59 423.22,352.75 427.98,351.46 C 429.96,350.94 431.97,350.6 434.01,350.43 C 444.51,350.04 455.01,349.96 465.52,350.21 C 469.53,350.42 473.1,349.3 476.23,346.85 C 479.25,343.27 479.37,339.56 476.62,335.72 C 476.14,335.28 475.57,335.03 474.92,334.99 C 474.91,334.32 474.91,333.66 474.91,332.99 C 475.06,332.83 475.2,332.66 475.35,332.5 C 476.73,332.26 477.78,332.75 478.52,333.98 C 479.74,336.05 480.5,338.27 480.78,340.66 C 480.57,342.23 480.27,343.78 479.87,345.31 C 479.28,346.99 478.3,348.38 476.93,349.49 C 474.92,350.65 472.78,351.44 470.51,351.85 C 459.15,352.19 447.8,352.24 436.44,352.02 C 433.65,352.47 430.87,352.98 428.09,353.54 C 423.23,355.4 419.95,358.8 418.26,363.73 C 417.39,366.6 416.95,369.53 416.93,372.52 C 416.99,373.14 417.26,373.64 417.75,374.03 Z M 583.17,347.87 C 584.58,349.12 585.83,350.52 586.92,352.06 C 585.81,352.04 584.71,351.97 583.61,351.83 C 581.68,350.88 579.65,350.65 577.53,351.13 C 575.96,351.69 574.34,352.06 572.68,352.24 C 571.01,352.82 569.38,353.5 567.78,354.27 C 566.7,355.31 565.46,356.1 564.07,356.64 C 562.75,358.29 561.26,359.76 559.59,361.05 C 558.14,363.31 556.68,365.54 555.2,367.74 C 554.62,369.12 553.98,370.45 553.26,371.76 C 552.85,373.53 552.2,375.2 551.28,376.77 C 550.55,379.71 549.79,382.63 549,385.53 C 549.01,386.5 548.95,387.46 548.81,388.41 C 548.32,389.36 548.05,390.37 547.98,391.44 C 548.16,394.1 548.1,396.74 547.79,399.39 C 547.27,400.35 546.98,401.38 546.94,402.47 C 546.87,404.82 546.84,407.17 546.88,409.52 C 546.99,410.51 547.24,411.45 547.62,412.37 C 548.04,416.71 548.18,421.08 548.03,425.47 C 548.22,426.21 548.51,426.92 548.88,427.59 C 549.01,428.56 549.05,429.53 548.99,430.5 C 549.64,431.76 549.99,433.1 550.04,434.51 C 550.03,435.32 549.65,435.85 548.89,436.1 C 547.14,432.92 545.77,429.58 544.79,426.09 C 545.52,425.82 545.85,425.29 545.79,424.5 C 545.65,417.5 545.54,410.5 545.47,403.5 C 545.13,391.16 547.55,379.4 552.73,368.21 C 555.57,362.22 559.7,357.32 565.12,353.52 C 570.14,350.49 575.58,348.94 581.45,348.85 C 582.2,348.81 582.77,348.49 583.17,347.87 Z M 480.21,413.94 C 480.83,413.9 481.34,414.12 481.75,414.59 C 482.48,415.89 483.17,417.22 483.79,418.57 C 487.73,428.24 488.8,438.22 487,448.52 C 484.81,460.86 478.66,470.73 468.55,478.12 C 460.01,483.82 450.64,487.28 440.44,488.49 C 426.85,490.2 413.39,489.48 400.06,486.31 C 396.14,485.36 392.73,483.49 389.83,480.68 C 389.27,479.94 388.98,479.1 388.94,478.17 C 392.27,478.92 395.62,479.57 398.99,480.12 C 399.01,480.33 399.04,480.53 399.07,480.73 C 398.17,481.03 397.26,481.28 396.34,481.5 C 398.3,482.58 400.39,483.37 402.58,483.89 C 408.12,485.45 413.76,486.25 419.51,486.29 C 425.17,486.34 430.83,486.3 436.49,486.18 C 448.95,485.38 460.11,481.16 469.97,473.51 C 477.38,467.1 482.06,459.08 483.99,449.45 C 485.24,444.21 485.51,438.91 484.79,433.58 C 484.57,431.65 484.02,429.84 483.15,428.12 C 482.8,428.86 482.3,429.49 481.66,430.01 C 481.69,424.61 481.21,419.25 480.21,413.94 Z"/></g>
<g><path fill="#548dcb" d="M 474.91,323.98 C 476.08,323.71 477.22,323.81 478.33,324.27 C 479.95,324.81 481.43,325.63 482.74,326.73 C 486.54,330.51 488.37,335.1 488.21,340.5 C 488.56,351.46 483.32,357.59 472.49,358.89 C 461.83,359.04 451.18,359.04 440.51,358.88 C 438.92,358.9 437.34,359.02 435.76,359.24 C 427.67,360.72 423.79,365.56 424.12,373.78 C 423.41,373.81 422.71,373.83 422,373.85 C 421.83,362.73 427.32,357.15 438.49,357.14 C 449.5,357.3 460.52,357.23 471.53,356.93 C 481.43,355.94 486.3,350.47 486.14,340.5 C 486.18,336 484.69,332.09 481.67,328.78 C 479.77,326.98 477.52,326.04 474.91,325.98 C 474.91,325.32 474.91,324.65 474.91,323.98 Z M 591.53,360.81 C 591.97,361.89 592.37,362.99 592.74,364.1 C 591.01,363.07 589.28,361.99 587.56,360.86 C 584.72,359.35 581.7,358.68 578.49,358.84 C 572.95,359.52 568.45,362.05 564.99,366.45 C 560.78,372.13 558.01,378.46 556.71,385.44 C 554.83,395.71 554.23,406.07 554.92,416.5 C 555.15,427.2 557.74,437.27 562.69,446.74 C 562.81,447.29 562.87,447.86 562.84,448.43 C 561.55,448.01 560.3,447.49 559.1,446.86 C 559.64,446.55 559.95,446.1 560.05,445.51 C 557.27,439.42 555.28,433.07 554.08,426.48 C 553.08,417.83 552.72,409.15 553,400.45 C 553.4,391.58 555.13,382.99 558.19,374.66 C 560.1,370.45 562.57,366.62 565.6,363.14 C 569.76,359.14 574.72,357.09 580.48,356.99 C 582.9,357.37 585.25,358 587.54,358.88 C 588.48,359.25 589.31,359.77 590.05,360.46 C 590.53,360.65 591.02,360.76 591.53,360.81 Z"/></g>
<g><path fill="#2a6fbb" d="M 546.2,477.59 C 547.77,478.17 549.36,478.69 550.97,479.15 C 550.56,479.61 550.48,480.08 550.73,480.56 C 555.53,483.82 560.79,485.92 566.52,486.88 C 574.84,488.44 583.15,488.43 591.47,486.87 C 605.78,484.25 617.11,476.97 625.45,465.04 C 632.53,454.54 637.03,443.03 638.95,430.49 C 641.53,415.84 641.6,401.17 639.18,386.5 C 638.39,380.16 636.7,374.09 634.1,368.28 C 633.69,368.06 633.25,367.98 632.79,368.03 C 632.09,364.63 631.23,361.27 630.21,357.95 C 630.56,357.74 630.94,357.58 631.34,357.49 C 632.45,359.04 633.41,360.68 634.23,362.41 C 638.81,373.67 641.46,385.37 642.18,397.51 C 642.35,404.17 642.35,410.82 642.18,417.48 C 641.57,431.02 638.43,443.94 632.76,456.23 C 622.61,476.9 606.07,488.04 583.13,489.63 C 569.78,490.57 557.45,487.49 546.13,480.39 C 545.31,480.01 544.69,479.45 544.26,478.72 C 544.92,478.35 545.56,477.97 546.2,477.59 Z"/></g>
<g><path fill="#3275be" d="M 387.05,477.75 C 387.68,477.89 388.31,478.03 388.94,478.17 C 388.98,479.1 389.27,479.94 389.83,480.68 C 392.73,483.49 396.14,485.36 400.06,486.31 C 413.39,489.48 426.85,490.2 440.44,488.49 C 450.64,487.28 460.01,483.82 468.55,478.12 C 478.66,470.73 484.81,460.86 487,448.52 C 488.8,438.22 487.73,428.24 483.79,418.57 C 483.17,417.22 482.48,415.89 481.75,414.59 C 481.34,414.12 480.83,413.9 480.21,413.94 C 479.9,412.59 479.56,411.26 479.17,409.93 C 479.56,409.64 479.98,409.47 480.45,409.4 C 481.13,410.23 481.78,411.09 482.4,411.99 C 485.9,418.05 488.1,424.55 489.01,431.5 C 489.12,435.13 489.31,438.76 489.6,442.39 C 489.13,446.06 488.49,449.7 487.68,453.31 C 486.65,456.76 485.35,460.1 483.79,463.34 C 481.68,466.82 479.36,470.16 476.82,473.34 C 474.96,474.81 473.19,476.38 471.51,478.06 C 465.89,482.27 459.72,485.41 452.99,487.49 C 444.33,490.03 435.5,491.24 426.5,491.1 C 421.15,490.99 415.81,490.63 410.5,490 C 407.15,489.44 403.81,488.78 400.49,488.05 C 397.1,487.4 393.93,486.2 390.97,484.45 C 389.8,483.33 388.65,482.2 387.5,481.07 C 386.92,480.03 386.77,478.92 387.05,477.75 Z"/></g>
<g><path fill="#5e94cf" stroke="#5e94cf" stroke-width="0.5" d="M 387.1,403.89 C 388.32,405.5 389.59,407.07 390.9,408.61 C 391.54,409.28 392.29,409.76 393.17,410.05 C 392.85,411.08 392.92,412.07 393.39,413.02 C 394.44,414.35 395.53,415.64 396.66,416.89 C 400.64,420.27 405.26,421.78 410.51,421.41 C 416.49,420.99 422.49,420.69 428.48,420.51 C 432.65,420.75 436.71,421.56 440.66,422.93 C 441.41,423.1 441.76,422.81 441.73,422.07 C 441.86,420.99 442.05,419.92 442.29,418.87 C 443.35,421.9 443.77,425.02 443.55,428.23 C 441.5,427.12 439.39,426.1 437.2,425.19 C 433.08,423.77 428.85,423.21 424.5,423.51 C 419.17,424.08 413.84,424.49 408.49,424.74 C 405.72,424.67 403.07,424.08 400.54,422.97 C 393.02,419.02 388.31,412.9 386.41,404.61 C 386.5,404.23 386.72,403.99 387.1,403.89 Z"/></g>
<g><path fill="#508ac9" d="M 527.08,465.9 C 528.39,467.15 529.75,468.34 531.16,469.47 C 530.61,469.82 530.46,470.28 530.7,470.85 C 543.59,486.48 560.19,494.04 580.5,493.52 C 604.66,492.92 622.66,482.07 634.48,460.99 C 641.07,447.93 644.87,434.1 645.87,419.5 C 646.91,405.89 646.08,392.4 643.37,379.03 C 640.54,364.1 634.04,351 623.89,339.73 C 623.35,339.47 622.93,339.62 622.61,340.16 C 621.76,338.77 620.86,337.41 619.9,336.09 C 620.11,335.39 620.56,335.1 621.25,335.22 C 626.24,338.96 630.3,343.53 633.43,348.94 C 640.24,360.23 644.59,372.41 646.46,385.47 C 648.14,395.76 648.69,406.1 648.13,416.5 C 647.33,432.71 643.24,448.02 635.87,462.45 C 628.04,476.58 616.55,486.41 601.38,491.92 C 590.9,495.43 580.19,496.38 569.26,494.78 C 553.97,492.76 541.3,485.91 531.26,474.23 C 529.27,472.11 527.6,469.78 526.24,467.22 C 526.14,466.55 526.42,466.11 527.08,465.9 Z M 395.02,410.13 C 395.55,412.44 396.77,414.31 398.71,415.74 C 402.47,418.65 406.74,419.97 411.5,419.7 C 415.83,419.32 420.16,418.96 424.49,418.6 C 430.02,418.27 435.36,419.08 440.52,421.05 C 441.02,421.28 441.42,421.62 441.73,422.07 C 441.76,422.81 441.41,423.1 440.66,422.93 C 436.71,421.56 432.65,420.75 428.48,420.51 C 422.49,420.69 416.49,420.99 410.51,421.41 C 405.26,421.78 400.64,420.27 396.66,416.89 C 395.53,415.64 394.44,414.35 393.39,413.02 C 392.92,412.07 392.85,411.08 393.17,410.05 C 393.79,410.17 394.4,410.2 395.02,410.13 Z"/></g>
<g><path fill="#a9c7e6" d="M 505.06,425.03 C 505.62,425.13 505.83,425.46 505.7,426.02 C 505.3,425.81 505.09,425.48 505.06,425.03 Z"/></g>
<g><path fill="#115eb1" stroke="#115eb1" stroke-width="0.5" d="M 474.92,334.99 C 475.57,335.03 476.14,335.28 476.62,335.72 C 479.37,339.56 479.25,343.27 476.23,346.85 C 473.1,349.3 469.53,350.42 465.52,350.21 C 455.01,349.96 444.51,350.04 434.01,350.43 C 431.97,350.6 429.96,350.94 427.98,351.46 C 423.22,352.75 419.7,355.59 417.44,359.97 C 415.52,364.25 414.67,368.73 414.9,373.42 C 414.19,373.79 413.42,374 412.58,374.06 C 412.19,374.36 411.99,374.75 411.98,375.24 C 410.58,375.56 409.77,375.02 409.55,373.61 C 410.14,364.28 410.73,354.95 411.32,345.61 C 411.33,345.13 411.51,344.72 411.85,344.39 C 432.39,344.13 452.94,344.02 473.51,344.06 C 474.42,343.93 474.88,343.41 474.9,342.49 C 474.92,339.99 474.93,337.49 474.92,334.99 Z"/></g>
<g><path fill="#0e5cb0" stroke="#0e5cb0" stroke-width="0.5" d="M 583.17,347.87 C 582.77,348.49 582.2,348.81 581.45,348.85 C 575.58,348.94 570.14,350.49 565.12,353.52 C 559.7,357.32 555.57,362.22 552.73,368.21 C 547.55,379.4 545.13,391.16 545.47,403.5 C 545.54,410.5 545.65,417.5 545.79,424.5 C 545.85,425.29 545.52,425.82 544.79,426.09 C 543.05,420.18 541.94,414.16 541.44,408.02 C 541.06,400.85 540.98,393.68 541.2,386.5 C 541.63,376.42 543.98,366.81 548.25,357.68 C 551.28,350.59 556.4,345.76 563.63,343.19 C 568.84,341.9 573.86,342.41 578.69,344.73 C 580.3,345.6 581.8,346.65 583.17,347.87 Z M 398.99,480.12 C 404.79,481.07 410.62,481.43 416.5,481.23 C 426.21,481.57 435.7,480.3 444.97,477.42 C 467.65,469.68 479.88,453.87 481.66,430.01 C 482.3,429.49 482.8,428.86 483.15,428.12 C 484.02,429.84 484.57,431.65 484.79,433.58 C 485.51,438.91 485.24,444.21 483.99,449.45 C 482.06,459.08 477.38,467.1 469.97,473.51 C 460.11,481.16 448.95,485.38 436.49,486.18 C 430.83,486.3 425.17,486.34 419.51,486.29 C 413.76,486.25 408.12,485.45 402.58,483.89 C 400.39,483.37 398.3,482.58 396.34,481.5 C 397.26,481.28 398.17,481.03 399.07,480.73 C 399.04,480.53 399.01,480.33 398.99,480.12 Z"/></g>
<g><path fill="#1b65b5" stroke="#1b65b5" stroke-width="0.5" d="M 632.79,368.03 C 633.25,367.98 633.69,368.06 634.1,368.28 C 636.7,374.09 638.39,380.16 639.18,386.5 C 641.6,401.17 641.53,415.84 638.95,430.49 C 637.03,443.03 632.53,454.54 625.45,465.04 C 617.11,476.97 605.78,484.25 591.47,486.87 C 583.15,488.43 574.84,488.44 566.52,486.88 C 560.79,485.92 555.53,483.82 550.73,480.56 C 550.48,480.08 550.56,479.61 550.97,479.15 C 553.94,479.92 556.94,480.48 559.98,480.83 C 560.29,481.48 560.8,481.86 561.51,481.97 C 564.85,482.59 568.19,483.24 571.52,483.92 C 576.79,483.98 582.05,483.94 587.31,483.79 C 591.57,482.79 595.81,481.7 600.04,480.54 C 603.86,478.79 607.5,476.75 610.99,474.42 C 612.31,473 613.83,471.86 615.56,470.98 C 617.27,469.62 618.57,467.95 619.46,465.97 C 620.38,465.22 621.24,464.4 622.04,463.52 C 622.68,462.21 623.51,461.03 624.52,459.97 C 625.64,457.51 626.87,455.1 628.2,452.75 C 630.28,447.71 632.12,442.57 633.72,437.36 C 633.92,436.13 634.07,434.89 634.17,433.65 C 634.77,431.29 635.36,428.92 635.94,426.53 C 635.99,424.86 636.01,423.18 636.01,421.51 C 636.38,420.51 636.7,419.49 636.96,418.46 C 636.99,412.79 637.02,407.13 637.04,401.46 C 637.12,400.69 636.95,399.99 636.55,399.36 C 636.28,400.72 636.18,402.1 636.26,403.52 C 636.2,404.22 635.85,404.73 635.23,405.04 C 635.96,392.6 635.15,380.26 632.79,368.03 Z"/></g>
<g><path fill="#0c5aaf" stroke="#0c5aaf" stroke-width="0.5" d="M 559.98,480.83 C 567.52,481.49 575.03,481.25 582.5,480.12 C 598.86,476.91 611.6,468.31 620.73,454.35 C 626.74,444.84 630.77,434.54 632.84,423.47 C 634.06,417.38 634.86,411.24 635.23,405.04 C 635.85,404.73 636.2,404.22 636.26,403.52 C 636.18,402.1 636.28,400.72 636.55,399.36 C 636.95,399.99 637.12,400.69 637.04,401.46 C 637.02,407.13 636.99,412.79 636.96,418.46 C 636.7,419.49 636.38,420.51 636.01,421.51 C 636.01,423.18 635.99,424.86 635.94,426.53 C 635.36,428.92 634.77,431.29 634.17,433.65 C 634.07,434.89 633.92,436.13 633.72,437.36 C 632.12,442.57 630.28,447.71 628.2,452.75 C 626.87,455.1 625.64,457.51 624.52,459.97 C 623.51,461.03 622.68,462.21 622.04,463.52 C 621.24,464.4 620.38,465.22 619.46,465.97 C 618.57,467.95 617.27,469.62 615.56,470.98 C 613.83,471.86 612.31,473 610.99,474.42 C 607.5,476.75 603.86,478.79 600.04,480.54 C 595.81,481.7 591.57,482.79 587.31,483.79 C 582.05,483.94 576.79,483.98 571.52,483.92 C 568.19,483.24 564.85,482.59 561.51,481.97 C 560.8,481.86 560.29,481.48 559.98,480.83 Z"/></g>
<g><path fill="#ffffff" stroke="#ffffff" stroke-width="0.5" d="M 28.34,512 C 28.82,423.57 51.45,341.22 96.25,264.95 C 147.03,180.76 216.72,117.38 305.32,74.78 C 370.64,44.11 439.36,28.62 511.5,28.34 C 591.56,28.61 667.07,47.32 738.02,84.46 C 825.43,131.4 892.6,198.57 939.54,285.98 C 976.5,356.63 995.21,431.8 995.66,511.5 C 995.39,591.56 976.68,667.07 939.54,738.02 C 892.6,825.43 825.43,892.6 738.02,939.54 C 667.37,976.5 592.2,995.21 512.5,995.66 C 432.44,995.39 356.93,976.68 285.98,939.54 C 198.57,892.6 131.4,825.43 84.46,738.02 C 47.41,667.22 28.7,591.88 28.34,512 Z M 331.08,608.3 C 287.82,664.99 244.57,721.67 201.34,778.36 C 239.02,777.48 276.74,776.63 314.5,775.81 C 321.43,775.14 328.37,774.94 335.33,775.19 C 335.79,775.49 336.06,775.91 336.14,776.46 C 336.61,778.54 337.14,780.61 337.71,782.67 C 346.82,820.28 355.95,857.88 365.11,895.48 C 365.91,898.38 366.68,901.28 367.42,904.19 C 368.13,904.93 368.79,904.86 369.4,903.99 C 422.35,834.59 475.33,765.2 528.32,695.82 C 528.83,695.17 529.48,694.94 530.27,695.14 C 581.4,766.74 632.35,838.47 683.13,910.33 C 684.02,910.74 684.57,910.43 684.8,909.42 C 696.71,866.99 708.68,824.6 720.74,782.23 C 721.64,781.96 722.56,781.87 723.5,781.97 C 731.49,782.47 739.49,782.88 747.5,783.18 C 757.83,783.83 768.17,784.48 778.5,785.12 C 780.17,785.33 781.84,785.56 783.5,785.8 C 806.16,787.22 828.82,788.56 851.5,789.82 C 852.17,789.87 852.85,789.9 853.53,789.91 C 854,789.96 854.35,789.8 854.59,789.41 C 807.56,722.85 760.38,656.39 713.05,590.04 C 712.2,583.4 712,576.74 712.45,570.05 C 711.98,561.87 711.83,553.68 712.02,545.48 C 712.05,544.93 712.2,544.42 712.49,543.95 C 734.28,536.04 756.13,528.23 778.03,520.53 C 778.77,520.37 779.33,519.97 779.7,519.34 C 770.81,498.17 761.75,477.06 752.54,456 C 751.77,454.67 751.81,453.38 752.65,452.15 C 769.81,436.65 786.94,421.12 804.05,405.57 C 804.36,405.28 804.48,404.93 804.44,404.52 C 802.88,402.62 801.2,400.81 799.39,399.11 C 784.46,384.71 769.55,370.28 754.66,355.83 C 753.89,355.3 753.52,354.58 753.53,353.66 C 763.26,332.9 773.07,312.17 782.98,291.49 C 783.51,290.68 783.7,289.81 783.53,288.88 C 761.45,279.96 739.35,271.08 717.25,262.26 C 716.98,260.02 716.96,257.76 717.17,255.5 C 718.13,237.17 719.08,218.83 720,200.5 C 720.2,197.19 720.19,193.89 719.98,190.61 C 719.58,190.18 719.09,190 718.5,190.06 C 708.16,189.91 697.83,190.12 687.5,190.7 C 674.54,190.99 661.58,191.06 648.63,190.88 C 647.98,190.44 647.56,189.83 647.36,189.05 C 639.71,167.18 631.89,145.39 623.89,123.66 C 623.53,123.33 623.13,123.25 622.67,123.43 C 601.78,132.44 580.9,141.49 560.04,150.58 C 558.65,151.33 557.35,151.22 556.14,150.26 C 540.85,133.24 525.49,116.29 510.06,99.41 C 509.65,98.99 509.16,98.68 508.61,98.5 C 492.29,115.03 476.05,131.67 459.9,148.43 C 459.39,149.06 458.74,149.44 457.94,149.56 C 436.84,139.67 415.77,129.69 394.74,119.64 C 394.17,119.26 393.6,119.22 393,119.5 C 384.17,141.38 375.43,163.3 366.8,185.26 C 366.47,185.71 366.04,185.95 365.49,185.99 C 364.16,186.05 362.83,186.04 361.5,185.97 C 343.83,185.13 326.16,184.17 308.5,183.1 C 303.85,182.93 299.22,182.9 294.61,183.01 C 294.19,183.42 294.02,183.92 294.08,184.5 C 294.46,193.16 294.55,201.81 294.34,210.47 C 294.72,213.47 294.92,216.48 294.95,219.5 C 294.92,230.51 294.98,241.51 295.15,252.52 C 295.22,253.43 295.01,254.26 294.51,255.01 C 274.63,262.3 254.7,269.43 234.7,276.41 C 232.58,277.21 230.45,278.01 228.32,278.8 C 227.91,278.95 227.59,279.2 227.37,279.58 C 236.7,301.37 246.04,323.16 255.38,344.96 C 255.35,345.75 255.02,346.39 254.4,346.88 C 237.17,362.34 220.05,377.91 203.04,393.59 C 202.88,394.47 203.11,395.24 203.74,395.89 C 219.64,411.28 235.56,426.65 251.48,442.02 C 252.37,442.77 253.11,443.64 253.71,444.63 C 253.77,445.1 253.68,445.55 253.45,445.97 C 243.8,466.32 234.12,486.65 224.4,506.97 C 223.81,507.91 223.58,508.93 223.72,510.01 C 244.8,518.74 265.99,527.2 287.29,535.4 C 288.2,535.72 289.03,536.16 289.78,536.74 C 290.07,537.28 290.2,537.86 290.16,538.47 C 290.01,542.82 289.89,547.16 289.8,551.5 C 288.77,567.83 287.87,584.16 287.1,600.5 C 287.05,602.84 287,605.18 286.97,607.52 C 286.94,608.1 287.17,608.53 287.64,608.84 C 291.26,608.96 294.88,608.99 298.5,608.93 C 304.82,608.33 311.15,608.26 317.48,608.71 C 322,608.06 326.53,607.92 331.08,608.3 Z M 594.85,315.33 C 598.01,316.63 601.01,318.23 603.87,320.11 C 606.67,321.94 609.29,323.98 611.74,326.26 C 614.77,329.27 617.5,332.55 619.9,336.09 C 620.86,337.41 621.76,338.77 622.61,340.16 C 624.13,342.74 625.47,345.4 626.61,348.17 C 627.98,351.37 629.18,354.63 630.21,357.95 C 631.23,361.27 632.09,364.63 632.79,368.03 C 635.15,380.26 635.96,392.6 635.23,405.04 C 634.86,411.24 634.06,417.38 632.84,423.47 C 630.77,434.54 626.74,444.84 620.73,454.35 C 611.6,468.31 598.86,476.91 582.5,480.12 C 575.03,481.25 567.52,481.49 559.98,480.83 C 556.94,480.48 553.94,479.92 550.97,479.15 C 549.36,478.69 547.77,478.17 546.2,477.59 C 543.79,476.75 541.45,475.75 539.18,474.59 C 536.34,473.13 533.67,471.43 531.16,469.47 C 529.75,468.34 528.39,467.15 527.08,465.9 C 523.76,462.83 520.8,459.45 518.2,455.76 C 512.16,446.64 507.99,436.73 505.7,426.02 C 505.83,425.46 505.62,425.13 505.06,425.03 C 504.22,419.05 503.55,413.04 503.03,407.01 C 501.6,391.26 502.92,375.76 506.96,360.49 C 510.26,347.72 516.45,336.56 525.51,327.01 C 534.05,318.87 544.12,313.7 555.71,311.49 C 561.77,310.4 567.87,310.07 574,310.49 C 581.24,310.87 588.18,312.48 594.85,315.33 Z M 474.59,315.25 C 474.96,316.81 475.09,318.4 474.97,320.02 C 474.95,320.67 474.94,321.33 474.92,321.98 C 474.92,322.65 474.91,323.32 474.91,323.98 C 474.91,324.65 474.91,325.32 474.91,325.98 C 474.9,327.32 474.9,328.65 474.9,329.98 C 474.9,330.99 474.91,331.99 474.91,332.99 C 474.91,333.66 474.91,334.32 474.92,334.99 C 474.93,337.49 474.92,339.99 474.9,342.49 C 474.88,343.41 474.42,343.93 473.51,344.06 C 452.94,344.02 432.39,344.13 411.85,344.39 C 411.51,344.72 411.33,345.13 411.32,345.61 C 410.73,354.95 410.14,364.28 409.55,373.61 C 409.77,375.02 410.58,375.56 411.98,375.24 C 413.95,374.92 415.92,374.75 417.91,374.75 C 422.44,374.79 426.97,374.87 431.5,374.99 C 441.72,375.65 451.18,378.69 459.87,384.1 C 461.59,385.16 463.22,386.35 464.78,387.64 C 466.51,389.1 468.13,390.67 469.63,392.37 C 470.67,393.54 471.64,394.77 472.54,396.06 C 473.64,397.63 474.64,399.27 475.55,400.96 C 476.3,402.33 476.97,403.74 477.55,405.2 C 478.16,406.75 478.7,408.33 479.17,409.93 C 479.56,411.26 479.9,412.59 480.21,413.94 C 481.21,419.25 481.69,424.61 481.66,430.01 C 479.88,453.87 467.65,469.68 444.97,477.42 C 435.7,480.3 426.21,481.57 416.5,481.23 C 410.62,481.43 404.79,481.07 398.99,480.12 C 395.62,479.57 392.27,478.92 388.94,478.17 C 388.31,478.03 387.68,477.89 387.05,477.75 C 386.35,477.59 385.64,477.43 384.94,477.27 C 384.3,477.11 383.66,476.95 383.02,476.78 C 382.33,476.6 381.64,476.41 380.96,476.22 C 380.35,476.04 379.74,475.86 379.13,475.68 C 378.08,475.33 377.04,474.98 376,474.61 C 375.05,474.27 374.11,473.91 373.17,473.54 C 371.45,473.23 370.75,472.22 371.08,470.51 C 372.76,461.18 374.42,451.85 376.08,442.52 C 376.26,441.16 377.02,440.72 378.33,441.21 C 388.45,444.75 398.84,447 409.5,447.96 C 417,448.4 424.28,447.34 431.35,444.8 C 435.22,443.22 438.31,440.7 440.64,437.23 C 442,435 442.9,432.58 443.33,430 C 443.42,429.41 443.49,428.82 443.55,428.23 C 443.77,425.02 443.35,421.9 442.29,418.87 C 441.59,416.98 440.58,415.27 439.26,413.75 C 434.88,409.32 429.57,406.86 423.33,406.36 C 415.06,405.74 406.95,406.59 399,408.92 C 397.69,409.39 396.37,409.79 395.02,410.13 C 394.4,410.2 393.79,410.17 393.17,410.05 C 392.29,409.76 391.54,409.28 390.9,408.61 C 389.59,407.07 388.32,405.5 387.1,403.89 C 386.26,402.85 385.43,401.82 384.6,400.78 C 382.85,398.87 381.25,396.84 379.8,394.71 C 379,393.06 378.72,391.33 378.95,389.5 C 380.42,368.18 381.79,346.84 383.04,325.5 C 383.35,322.16 383.62,318.82 383.86,315.47 C 383.86,314.86 384.1,314.38 384.58,314.02 C 412.88,313.79 441.19,313.68 469.51,313.69 C 470.81,313.63 472.09,313.78 473.35,314.13 C 473.9,314.35 474.31,314.72 474.59,315.25 Z M 544.79,426.09 C 545.77,429.58 547.14,432.92 548.89,436.1 C 550.24,438.67 551.93,440.98 553.96,443.05 C 554.56,443.6 555.16,444.14 555.79,444.66 C 556.83,445.49 557.93,446.22 559.1,446.86 C 560.3,447.49 561.55,448.01 562.84,448.43 C 563.25,448.54 563.66,448.66 564.07,448.76 C 565.7,449.14 567.34,449.35 569.01,449.37 C 574.44,449.24 579.11,447.29 583.03,443.53 C 587.48,438.88 590.69,433.47 592.65,427.31 C 596.93,412.9 598.23,398.23 596.53,383.28 C 596.28,379.49 595.73,375.74 594.89,372.04 C 594.6,370.7 594.27,369.36 593.92,368.04 C 593.56,366.71 593.17,365.4 592.74,364.1 C 592.37,362.99 591.97,361.89 591.53,360.81 C 591.02,359.56 590.47,358.34 589.88,357.13 C 589.15,355.65 588.34,354.23 587.45,352.85 C 587.27,352.58 587.1,352.32 586.92,352.06 C 585.83,350.52 584.58,349.12 583.17,347.87 C 581.8,346.65 580.3,345.6 578.69,344.73 C 573.86,342.41 568.84,341.9 563.63,343.19 C 556.4,345.76 551.28,350.59 548.25,357.68 C 543.98,366.81 541.63,376.42 541.2,386.5 C 540.98,393.68 541.06,400.85 541.44,408.02 C 541.94,414.16 543.05,420.18 544.79,426.09 Z"/></g>
<g><path fill="#8bb4e0" stroke="#8bb4e0" stroke-width="0.5" d="M 713.05,590.04 C 713,598.2 713,606.36 713.04,614.53 C 713.09,615.12 712.89,615.61 712.43,615.98 C 708.12,616.05 703.82,616.03 699.5,615.93 C 692.86,615.14 686.19,614.8 679.5,614.9 C 670.17,614.33 660.84,613.75 651.5,613.17 C 648.49,613.1 645.48,613.04 642.47,612.99 C 641.9,612.97 641.36,613.1 640.86,613.37 C 632.01,635.5 623.14,657.62 614.25,679.73 C 613.82,679.87 613.39,679.85 612.98,679.66 C 592.34,669.88 571.7,660.09 551.07,650.29 C 550.26,649.87 549.4,649.72 548.5,649.86 C 532.13,666.2 515.97,682.76 500,699.52 C 499.28,700.52 498.42,700.71 497.41,700.08 C 481.82,683.04 466.31,665.91 450.89,648.71 C 449.92,647.86 448.85,647.73 447.68,648.31 C 426.41,657.67 405.07,666.83 383.66,675.79 C 383.01,675.39 382.59,674.8 382.4,674.05 C 374.78,652.14 366.97,630.3 359,608.53 C 358.23,608.09 357.4,607.91 356.51,607.98 C 348.03,608.07 339.55,608.17 331.08,608.3 C 326.53,607.92 322,608.06 317.48,608.71 C 311.15,608.26 304.82,608.33 298.5,608.93 C 294.88,608.99 291.26,608.96 287.64,608.84 C 287.17,608.53 286.94,608.1 286.97,607.52 C 287,605.18 287.05,602.84 287.1,600.5 C 287.87,584.16 288.77,567.83 289.8,551.5 C 289.89,547.16 290.01,542.82 290.16,538.47 C 290.2,537.86 290.07,537.28 289.78,536.74 C 289.03,536.16 288.2,535.72 287.29,535.4 C 265.99,527.2 244.8,518.74 223.72,510.01 C 223.58,508.93 223.81,507.91 224.4,506.97 C 234.12,486.65 243.8,466.32 253.45,445.97 C 253.68,445.55 253.77,445.1 253.71,444.63 C 253.11,443.64 252.37,442.77 251.48,442.02 C 235.56,426.65 219.64,411.28 203.74,395.89 C 203.11,395.24 202.88,394.47 203.04,393.59 C 220.05,377.91 237.17,362.34 254.4,346.88 C 255.02,346.39 255.35,345.75 255.38,344.96 C 246.04,323.16 236.7,301.37 227.37,279.58 C 227.59,279.2 227.91,278.95 228.32,278.8 C 230.45,278.01 232.58,277.21 234.7,276.41 C 254.7,269.43 274.63,262.3 294.51,255.01 C 295.01,254.26 295.22,253.43 295.15,252.52 C 294.98,241.51 294.92,230.51 294.95,219.5 C 294.92,216.48 294.72,213.47 294.34,210.47 C 294.55,201.81 294.46,193.16 294.08,184.5 C 294.02,183.92 294.19,183.42 294.61,183.01 C 299.22,182.9 303.85,182.93 308.5,183.1 C 326.16,184.17 343.83,185.13 361.5,185.97 C 362.83,186.04 364.16,186.05 365.49,185.99 C 366.04,185.95 366.47,185.71 366.8,185.26 C 375.43,163.3 384.17,141.38 393,119.5 C 393.6,119.22 394.17,119.26 394.74,119.64 C 415.77,129.69 436.84,139.67 457.94,149.56 C 458.74,149.44 459.39,149.06 459.9,148.43 C 476.05,131.67 492.29,115.03 508.61,98.5 C 509.16,98.68 509.65,98.99 510.06,99.41 C 525.49,116.29 540.85,133.24 556.14,150.26 C 557.35,151.22 558.65,151.33 560.04,150.58 C 580.9,141.49 601.78,132.44 622.67,123.43 C 623.13,123.25 623.53,123.33 623.89,123.66 C 631.89,145.39 639.71,167.18 647.36,189.05 C 647.56,189.83 647.98,190.44 648.63,190.88 C 661.58,191.06 674.54,190.99 687.5,190.7 C 697.83,190.12 708.16,189.91 718.5,190.06 C 719.09,190 719.58,190.18 719.98,190.61 C 720.19,193.89 720.2,197.19 720,200.5 C 719.08,218.83 718.13,237.17 717.17,255.5 C 716.96,257.76 716.98,260.02 717.25,262.26 C 739.35,271.08 761.45,279.96 783.53,288.88 C 783.7,289.81 783.51,290.68 782.98,291.49 C 773.07,312.17 763.26,332.9 753.53,353.66 C 753.52,354.58 753.89,355.3 754.66,355.83 C 769.55,370.28 784.46,384.71 799.39,399.11 C 801.2,400.81 802.88,402.62 804.44,404.52 C 804.48,404.93 804.36,405.28 804.05,405.57 C 786.94,421.12 769.81,436.65 752.65,452.15 C 751.81,453.38 751.77,454.67 752.54,456 C 761.75,477.06 770.81,498.17 779.7,519.34 C 779.33,519.97 778.77,520.37 778.03,520.53 C 756.13,528.23 734.28,536.04 712.49,543.95 C 712.2,544.42 712.05,544.93 712.02,545.48 C 711.83,553.68 711.98,561.87 712.45,570.05 C 712,576.74 712.2,583.4 713.05,590.04 Z M 293.49,400 C 293.89,406.11 294.16,412.22 294.32,418.34 C 295.22,426.78 296.5,435.16 298.14,443.48 C 309.43,493.18 335.06,533.85 375.02,565.5 C 396.4,581.99 420.06,593.99 446,601.5 C 451.84,603.11 457.72,604.54 463.64,605.78 C 467.95,606.39 472.23,607.1 476.49,607.92 C 486.14,608.87 495.81,609.41 505.5,609.51 C 511.44,609.13 517.39,608.85 523.34,608.67 C 530.03,607.82 536.71,606.87 543.37,605.82 C 549.04,604.55 554.7,603.19 560.34,601.75 C 608.36,587.66 646.88,560.24 675.9,519.48 C 691.85,496.65 702.8,471.65 708.75,444.46 C 709.49,441.15 710.17,437.82 710.78,434.47 C 711.43,429.47 712.12,424.47 712.84,419.48 C 712.95,413.81 713.29,408.15 713.86,402.5 C 713.22,395.19 712.89,387.85 712.87,380.51 C 712.35,374.87 711.6,369.27 710.61,363.69 C 703,321.48 684.41,284.83 654.84,253.72 C 627.52,225.77 595.01,206.65 557.32,196.34 C 551.04,194.78 544.72,193.4 538.37,192.19 C 532.75,191.44 527.12,190.76 521.5,190.13 C 515.5,189.87 509.5,189.66 503.5,189.51 C 497.5,189.68 491.51,189.89 485.51,190.15 C 482.24,190.68 478.94,191.02 475.63,191.18 C 471.39,191.79 467.17,192.52 462.96,193.39 C 416.4,203.04 377.27,225.61 345.58,261.1 C 326.42,283.08 312.35,307.95 303.38,335.69 C 300.92,343.88 298.83,352.15 297.09,360.51 C 296.19,367.23 295.27,373.95 294.32,380.66 C 293.91,387.1 293.63,393.55 293.49,400 Z M 320.73,399 C 320.8,393.55 321,388.11 321.33,382.67 C 322.31,376.3 323.25,369.92 324.15,363.52 C 325.34,358.16 326.66,352.83 328.12,347.53 C 339.83,309.39 361.49,278.14 393.08,253.77 C 416.6,236.16 442.79,224.66 471.66,219.29 C 476.92,218.38 482.2,217.67 487.51,217.15 C 498.17,216.76 508.83,216.76 519.49,217.15 C 524.49,217.81 529.49,218.46 534.5,219.09 C 537.81,219.85 541.14,220.53 544.48,221.13 C 586.64,231.33 621.18,253.44 648.11,287.45 C 666.34,311.01 678.16,337.43 683.55,366.7 C 684.53,371.95 685.3,377.21 685.87,382.5 C 685.89,389.12 686.14,395.72 686.61,402.32 C 686.18,407.03 685.93,411.75 685.84,416.49 C 685.19,421.48 684.49,426.47 683.76,431.47 C 683.04,434.75 682.35,438.03 681.67,441.32 C 673.5,475.16 657.12,504.39 632.53,529.04 C 611.06,550.35 585.88,565.47 556.98,574.4 C 551.48,576.02 545.94,577.47 540.34,578.72 C 534.42,579.78 528.48,580.67 522.49,581.39 C 516.5,581.85 510.51,582.2 504.5,582.44 C 495.85,582.29 487.22,581.76 478.62,580.85 C 474.67,579.97 470.69,579.25 466.67,578.7 C 460.58,577.36 454.56,575.78 448.61,573.95 C 413.95,562.68 384.99,543.01 361.75,514.93 C 338.75,486.21 325.32,453.58 321.46,417.01 C 321.1,411.01 320.86,405.01 320.73,399 Z M 503.03,407.01 C 502.16,406.97 501.77,406.49 501.87,405.58 C 501.73,402.13 501.64,398.69 501.57,395.27 C 501.34,397.71 500.89,400.14 500.23,402.56 C 499.54,404.42 498.32,405.78 496.57,406.63 C 493.3,401.79 489.59,397.3 485.45,393.17 C 476.82,385.22 466.78,379.88 455.35,377.15 C 450.66,376.11 446,374.99 441.36,373.8 C 439.71,373.4 438.34,372.56 437.24,371.28 C 437.2,370.55 437.56,370.09 438.3,369.9 C 439.68,369.53 441.08,369.26 442.51,369.1 C 453.15,368.85 463.8,368.48 474.44,368 C 476.31,367.92 478.15,367.68 479.98,367.29 C 488.24,365.51 493.65,360.61 496.19,352.57 C 497.57,345.16 497.63,337.74 496.37,330.31 C 494.23,321.46 488.69,316.21 479.76,314.58 C 477.92,314.08 476.2,314.3 474.59,315.25 C 474.31,314.72 473.9,314.35 473.35,314.13 C 472.09,313.78 470.81,313.63 469.51,313.69 C 441.19,313.68 412.88,313.79 384.58,314.02 C 384.1,314.38 383.86,314.86 383.86,315.47 C 383.62,318.82 383.35,322.16 383.04,325.5 C 381.79,346.84 380.42,368.18 378.95,389.5 C 378.72,391.33 379,393.06 379.8,394.71 C 379.21,394.8 378.74,395.09 378.38,395.57 C 377.46,402.77 378.94,409.46 382.81,415.64 C 386.42,422.46 391.75,427.42 398.79,430.5 C 402.59,431.89 406.5,432.42 410.53,432.09 C 415.5,431.63 420.48,431.21 425.45,430.83 C 429.22,430.73 432.76,431.58 436.07,433.38 C 437.73,434.52 439.25,435.8 440.64,437.23 C 438.31,440.7 435.22,443.22 431.35,444.8 C 424.28,447.34 417,448.4 409.5,447.96 C 398.84,447 388.45,444.75 378.33,441.21 C 377.02,440.72 376.26,441.16 376.08,442.52 C 374.42,451.85 372.76,461.18 371.08,470.51 C 370.75,472.22 371.45,473.23 373.17,473.54 C 371.75,480.32 373.37,486.27 378.04,491.38 C 381.1,494.33 384.66,496.46 388.72,497.75 C 397.43,500.63 406.36,502.44 415.51,503.17 C 422.52,503.38 429.52,503.37 436.53,503.15 C 451.81,502.32 465.68,497.47 478.15,488.6 C 487.25,481.76 493.87,473.03 498.01,462.41 C 499.1,459.12 500.21,455.84 501.34,452.56 C 501.96,451.07 502.88,449.8 504.1,448.74 C 504.18,448.5 504.27,448.27 504.36,448.03 C 503.92,447.03 503.63,446 503.49,444.94 C 504.19,444.11 504.97,444.03 505.82,444.7 C 505.9,444.93 505.97,445.17 506.04,445.41 C 505.7,446.34 505.57,447.29 505.66,448.25 C 507.08,449.37 508.24,450.72 509.14,452.3 C 511.41,457.56 513.91,462.7 516.65,467.73 C 530.84,491.52 551.78,503.4 579.48,503.37 C 599.58,503.61 616.76,496.64 631.01,482.45 C 640.06,472.73 646.51,461.51 650.34,448.79 C 655.23,432.7 657.15,416.27 656.11,399.49 C 655.43,384.98 652.39,370.99 646.99,357.52 C 641.37,343.79 632.5,332.65 620.38,324.09 C 614.45,320.2 608.11,317.19 601.35,315.06 C 599.46,314.53 597.54,314.24 595.58,314.19 C 595.14,314.44 594.89,314.82 594.85,315.33 C 588.18,312.48 581.24,310.87 574,310.49 C 567.87,310.07 561.77,310.4 555.71,311.49 C 544.12,313.7 534.05,318.87 525.51,327.01 C 516.45,336.56 510.26,347.72 506.96,360.49 C 502.92,375.76 501.6,391.26 503.03,407.01 Z"/></g>
<g><path fill="#7daadb" d="M 503.03,407.01 C 503.55,413.04 504.22,419.05 505.06,425.03 C 504.67,425.06 504.39,425.26 504.23,425.62 C 504.48,430.08 505.37,434.41 506.91,438.61 C 509.1,444.99 511.44,451.31 513.94,457.58 C 519.68,471.25 528.67,482.26 540.92,490.61 C 553.72,498.37 567.61,501.96 582.59,501.38 C 610.06,499.7 630.1,486.63 642.69,462.16 C 649.71,447.05 653.46,431.16 653.93,414.5 C 654.87,395.98 652.18,378.01 645.85,360.59 C 640.63,346.31 631.84,334.77 619.46,325.97 C 615.1,322.96 610.37,320.72 605.28,319.24 C 604.59,319.16 604.11,319.45 603.87,320.11 C 601.01,318.23 598.01,316.63 594.85,315.33 C 594.89,314.82 595.14,314.44 595.58,314.19 C 597.54,314.24 599.46,314.53 601.35,315.06 C 608.11,317.19 614.45,320.2 620.38,324.09 C 632.5,332.65 641.37,343.79 646.99,357.52 C 652.39,370.99 655.43,384.98 656.11,399.49 C 657.15,416.27 655.23,432.7 650.34,448.79 C 646.51,461.51 640.06,472.73 631.01,482.45 C 616.76,496.64 599.58,503.61 579.48,503.37 C 551.78,503.4 530.84,491.52 516.65,467.73 C 513.91,462.7 511.41,457.56 509.14,452.3 C 508.24,450.72 507.08,449.37 505.66,448.25 C 505.57,447.29 505.7,446.34 506.04,445.41 C 505.97,445.17 505.9,444.93 505.82,444.7 C 504.97,444.03 504.19,444.11 503.49,444.94 C 503.63,446 503.92,447.03 504.36,448.03 C 504.27,448.27 504.18,448.5 504.1,448.74 C 502.88,449.8 501.96,451.07 501.34,452.56 C 500.21,455.84 499.1,459.12 498.01,462.41 C 493.87,473.03 487.25,481.76 478.15,488.6 C 465.68,497.47 451.81,502.32 436.53,503.15 C 429.52,503.37 422.52,503.38 415.51,503.17 C 406.36,502.44 397.43,500.63 388.72,497.75 C 384.66,496.46 381.1,494.33 378.04,491.38 C 373.37,486.27 371.75,480.32 373.17,473.54 C 374.11,473.91 375.05,474.27 376,474.61 C 375.59,474.83 375.3,475.16 375.14,475.6 C 374.25,483.44 377.19,489.4 383.99,493.47 C 389.22,496.12 394.73,497.93 400.53,498.9 C 416.91,502.4 433.31,502.54 449.74,499.33 C 481.94,491.27 499.05,470.66 501.08,437.49 C 501.47,430.45 500.2,423.72 497.29,417.3 C 491.83,404.16 482.96,394.01 470.68,386.85 C 467.74,385.25 464.64,384.03 461.4,383.19 C 460.66,383.1 460.14,383.4 459.87,384.1 C 451.18,378.69 441.72,375.65 431.5,374.99 C 426.97,374.87 422.44,374.79 417.91,374.75 C 417.86,374.51 417.8,374.27 417.75,374.03 C 418.19,373.99 418.63,373.96 419.07,373.92 C 420.04,373.9 421.02,373.88 422,373.85 C 422.71,373.83 423.41,373.81 424.12,373.78 C 424.78,373.8 425.44,373.82 426.11,373.82 C 426.87,373.8 427.63,373.78 428.39,373.77 C 428.58,373.64 428.77,373.5 428.95,373.37 C 428.76,368.27 431.12,365.02 436.05,363.61 C 437.85,363.17 439.68,362.96 441.53,362.96 C 450.51,363.08 459.49,363.18 468.47,363.26 C 474.57,363.65 480.17,362.19 485.27,358.88 C 489.54,355.49 491.82,351.05 492.1,345.58 C 492.67,340.52 492.23,335.56 490.8,330.68 C 488.3,324.41 483.71,320.65 477.04,319.42 C 476.24,319.19 475.55,319.39 474.97,320.02 C 475.09,318.4 474.96,316.81 474.59,315.25 C 476.2,314.3 477.92,314.08 479.76,314.58 C 488.69,316.21 494.23,321.46 496.37,330.31 C 497.63,337.74 497.57,345.16 496.19,352.57 C 493.65,360.61 488.24,365.51 479.98,367.29 C 478.15,367.68 476.31,367.92 474.44,368 C 463.8,368.48 453.15,368.85 442.51,369.1 C 441.08,369.26 439.68,369.53 438.3,369.9 C 437.56,370.09 437.2,370.55 437.24,371.28 C 438.34,372.56 439.71,373.4 441.36,373.8 C 446,374.99 450.66,376.11 455.35,377.15 C 466.78,379.88 476.82,385.22 485.45,393.17 C 489.59,397.3 493.3,401.79 496.57,406.63 C 498.32,405.78 499.54,404.42 500.23,402.56 C 500.89,400.14 501.34,397.71 501.57,395.27 C 501.64,398.69 501.73,402.13 501.87,405.58 C 501.77,406.49 502.16,406.97 503.03,407.01 Z M 379.8,394.71 C 381.25,396.84 382.85,398.87 384.6,400.78 C 383.73,400.98 383.26,401.51 383.18,402.38 C 384.62,410.83 388.69,417.74 395.39,423.11 C 398.99,425.75 403.03,427.13 407.5,427.27 C 412.84,427.02 418.17,426.66 423.5,426.19 C 427.56,425.92 431.55,426.31 435.48,427.36 C 437.35,427.81 439.09,428.55 440.72,429.57 C 441.58,429.81 442.45,429.95 443.33,430 C 442.9,432.58 442,435 440.64,437.23 C 439.25,435.8 437.73,434.52 436.07,433.38 C 432.76,431.58 429.22,430.73 425.45,430.83 C 420.48,431.21 415.5,431.63 410.53,432.09 C 406.5,432.42 402.59,431.89 398.79,430.5 C 391.75,427.42 386.42,422.46 382.81,415.64 C 378.94,409.46 377.46,402.77 378.38,395.57 C 378.74,395.09 379.21,394.8 379.8,394.71 Z"/></g>
<g><path fill="#6d9fd4" d="M 426.11,373.82 C 425.81,367.72 428.55,363.67 434.33,361.69 C 436.34,361.15 438.38,360.89 440.47,360.91 C 448.81,361.07 457.16,361.14 465.5,361.12 C 470.66,361.41 475.67,360.7 480.53,359.01 C 485.91,356.39 488.98,352.1 489.72,346.13 C 490.39,341.54 490.15,337 489,332.51 C 487.09,326.28 482.92,322.68 476.48,321.73 C 475.95,321.72 475.43,321.8 474.92,321.98 C 474.94,321.33 474.95,320.67 474.97,320.02 C 475.55,319.39 476.24,319.19 477.04,319.42 C 483.71,320.65 488.3,324.41 490.8,330.68 C 492.23,335.56 492.67,340.52 492.1,345.58 C 491.82,351.05 489.54,355.49 485.27,358.88 C 480.17,362.19 474.57,363.65 468.47,363.26 C 459.49,363.18 450.51,363.08 441.53,362.96 C 439.68,362.96 437.85,363.17 436.05,363.61 C 431.12,365.02 428.76,368.27 428.95,373.37 C 428.77,373.5 428.58,373.64 428.39,373.77 C 427.63,373.78 426.87,373.8 426.11,373.82 Z M 593.92,368.04 C 594.27,369.36 594.6,370.7 594.89,372.04 C 594.47,372.17 594.07,372.14 593.67,371.93 C 592.52,370.11 591.15,368.46 589.58,366.97 C 587.01,364.66 584.02,363.31 580.6,362.91 C 575.53,362.82 571.35,364.73 568.08,368.63 C 563.86,374.6 561.18,381.22 560.04,388.47 C 559.03,394.8 558.46,401.16 558.34,407.56 C 558.65,414.58 559.3,421.57 560.27,428.53 C 560.94,432.97 562.25,437.21 564.2,441.25 C 565.76,444.01 567.36,446.71 569.01,449.37 C 567.34,449.35 565.7,449.14 564.07,448.76 C 564.06,448.61 564.05,448.46 564.04,448.31 C 564.58,448.04 565.1,447.75 565.6,447.43 C 560.29,438.89 557.44,429.58 557.05,419.5 C 556.17,408.5 556.59,397.56 558.33,386.67 C 559.6,379.53 562.44,373.1 566.85,367.37 C 570.15,363.38 574.36,361.2 579.5,360.84 C 584.86,361.23 589.26,363.51 592.71,367.67 C 593.08,367.89 593.48,368.02 593.92,368.04 Z M 376,474.61 C 377.04,474.98 378.08,475.33 379.13,475.68 C 378.78,475.9 378.56,476.22 378.48,476.63 C 378.8,483.1 381.82,487.87 387.55,490.95 C 391.92,493.07 396.51,494.55 401.31,495.39 C 416.33,498.55 431.4,498.83 446.53,496.2 C 461.15,493.64 473.47,486.9 483.47,475.97 C 492.26,465.03 496.64,452.54 496.6,438.5 C 496.6,421.45 490.22,407.29 477.46,396.04 C 475.44,394.35 473.29,392.86 470.99,391.57 C 470.38,391.53 469.92,391.79 469.63,392.37 C 468.13,390.67 466.51,389.1 464.78,387.64 C 464.9,387.2 465.11,386.82 465.42,386.49 C 480.92,393.41 491.17,404.99 496.17,421.26 C 499.43,432.99 499.34,444.71 495.9,456.42 C 492.53,468.05 486.11,477.64 476.66,485.17 C 465.85,492.99 453.8,497.6 440.52,498.99 C 427.07,500.57 413.73,499.93 400.48,497.07 C 395.44,496.2 390.63,494.65 386.04,492.43 C 381.51,490.03 378.55,486.37 377.14,481.46 C 376.8,479.16 376.42,476.88 376,474.61 Z M 384.6,400.78 C 385.43,401.82 386.26,402.85 387.1,403.89 C 386.72,403.99 386.5,404.23 386.41,404.61 C 388.31,412.9 393.02,419.02 400.54,422.97 C 403.07,424.08 405.72,424.67 408.49,424.74 C 413.84,424.49 419.17,424.08 424.5,423.51 C 428.85,423.21 433.08,423.77 437.2,425.19 C 439.39,426.1 441.5,427.12 443.55,428.23 C 443.49,428.82 443.42,429.41 443.33,430 C 442.45,429.95 441.58,429.81 440.72,429.57 C 439.09,428.55 437.35,427.81 435.48,427.36 C 431.55,426.31 427.56,425.92 423.5,426.19 C 418.17,426.66 412.84,427.02 407.5,427.27 C 403.03,427.13 398.99,425.75 395.39,423.11 C 388.69,417.74 384.62,410.83 383.18,402.38 C 383.26,401.51 383.73,400.98 384.6,400.78 Z"/></g>
<g><path fill="#c4e0d4" stroke="#c4e0d4" stroke-width="0.5" d="M 713.05,590.04 C 760.38,656.39 807.56,722.85 854.59,789.41 C 854.35,789.8 854,789.96 853.53,789.91 C 852.85,789.9 852.17,789.87 851.5,789.82 C 828.82,788.56 806.16,787.22 783.5,785.8 C 781.84,785.56 780.17,785.33 778.5,785.12 C 768.17,784.48 757.83,783.83 747.5,783.18 C 739.49,782.88 731.49,782.47 723.5,781.97 C 722.56,781.87 721.64,781.96 720.74,782.23 C 708.68,824.6 696.71,866.99 684.8,909.42 C 684.57,910.43 684.02,910.74 683.13,910.33 C 632.35,838.47 581.4,766.74 530.27,695.14 C 529.48,694.94 528.83,695.17 528.32,695.82 C 475.33,765.2 422.35,834.59 369.4,903.99 C 368.79,904.86 368.13,904.93 367.42,904.19 C 366.68,901.28 365.91,898.38 365.11,895.48 C 355.95,857.88 346.82,820.28 337.71,782.67 C 337.14,780.61 336.61,778.54 336.14,776.46 C 336.06,775.91 335.79,775.49 335.33,775.19 C 328.37,774.94 321.43,775.14 314.5,775.81 C 276.74,776.63 239.02,777.48 201.34,778.36 C 244.57,721.67 287.82,664.99 331.08,608.3 C 339.55,608.17 348.03,608.07 356.51,607.98 C 357.4,607.91 358.23,608.09 359,608.53 C 366.97,630.3 374.78,652.14 382.4,674.05 C 382.59,674.8 383.01,675.39 383.66,675.79 C 405.07,666.83 426.41,657.67 447.68,648.31 C 448.85,647.73 449.92,647.86 450.89,648.71 C 466.31,665.91 481.82,683.04 497.41,700.08 C 498.42,700.71 499.28,700.52 500,699.52 C 515.97,682.76 532.13,666.2 548.5,649.86 C 549.4,649.72 550.26,649.87 551.07,650.29 C 571.7,660.09 592.34,669.88 612.98,679.66 C 613.39,679.85 613.82,679.87 614.25,679.73 C 623.14,657.62 632.01,635.5 640.86,613.37 C 641.36,613.1 641.9,612.97 642.47,612.99 C 645.48,613.04 648.49,613.1 651.5,613.17 C 660.84,613.75 670.17,614.33 679.5,614.9 C 686.19,614.8 692.86,615.14 699.5,615.93 C 703.82,616.03 708.12,616.05 712.43,615.98 C 712.89,615.61 713.09,615.12 713.04,614.53 C 713,606.36 713,598.2 713.05,590.04 Z"/></g>
<g><path fill="#93bade" stroke="#93bade" stroke-width="0.5" d="M 293.49,400 C 293.63,393.55 293.91,387.1 294.32,380.66 C 295.27,373.95 296.19,367.23 297.09,360.51 C 298.83,352.15 300.92,343.88 303.38,335.69 C 318.25,290.74 344.98,254.54 383.57,227.1 C 407.71,210.37 434.18,199.14 462.96,193.39 C 467.17,192.52 471.39,191.79 475.63,191.18 C 478.94,191.02 482.24,190.68 485.51,190.15 C 491.51,189.89 497.5,189.68 503.5,189.51 C 509.5,189.66 515.5,189.87 521.5,190.13 C 527.12,190.76 532.75,191.44 538.37,192.19 C 544.72,193.4 551.04,194.78 557.32,196.34 C 608.77,210.7 649.41,240.04 679.24,284.36 C 695.15,308.66 705.61,335.1 710.61,363.69 C 711.6,369.27 712.35,374.87 712.87,380.51 C 712.89,387.85 713.22,395.19 713.86,402.5 C 713.29,408.15 712.95,413.81 712.84,419.48 C 712.12,424.47 711.43,429.47 710.78,434.47 C 708.61,445.7 705.78,456.77 702.29,467.68 C 685.04,516.02 654.49,553.51 610.62,580.15 C 594.82,589.58 578.06,596.78 560.34,601.75 C 554.7,603.19 549.04,604.55 543.37,605.82 C 536.71,606.87 530.03,607.82 523.34,608.67 C 517.39,608.85 511.44,609.13 505.5,609.51 C 495.81,609.41 486.14,608.87 476.49,607.92 C 472.23,607.1 467.95,606.39 463.64,605.78 C 457.72,604.54 451.84,603.11 446,601.5 C 398.29,587.33 360.02,559.96 331.2,519.39 C 315.2,496.25 304.18,470.94 298.14,443.48 C 296.5,435.16 295.22,426.78 294.32,418.34 C 294.16,412.22 293.89,406.11 293.49,400 Z M 320.73,399 C 320.76,431.86 328.94,462.55 345.28,491.09 C 366.35,526.63 395.9,552.5 433.93,568.68 C 438.8,570.49 443.69,572.25 448.61,573.95 C 454.56,575.78 460.58,577.36 466.67,578.7 C 470.69,579.25 474.67,579.97 478.62,580.85 C 487.22,581.76 495.85,582.29 504.5,582.44 C 510.51,582.2 516.5,581.85 522.49,581.39 C 551.95,578.19 579.1,568.49 603.96,552.32 C 639.39,528.54 663.94,496.45 677.63,456.04 C 679.11,451.17 680.46,446.27 681.67,441.32 C 682.35,438.03 683.04,434.75 683.76,431.47 C 684.49,426.47 685.19,421.48 685.84,416.49 C 685.93,411.75 686.18,407.03 686.61,402.32 C 686.14,395.72 685.89,389.12 685.87,382.5 C 685.3,377.21 684.53,371.95 683.55,366.7 C 676.69,330.51 660.53,299.08 635.07,272.43 C 609.8,246.62 579.6,229.52 544.48,221.13 C 541.14,220.53 537.81,219.85 534.5,219.09 C 529.49,218.46 524.49,217.81 519.49,217.15 C 508.83,216.76 498.17,216.76 487.51,217.15 C 482.2,217.67 476.92,218.38 471.66,219.29 C 430.14,227.16 395.18,246.76 366.78,278.08 C 348.91,298.47 336.03,321.62 328.12,347.53 C 326.66,352.83 325.34,358.16 324.15,363.52 C 323.25,369.92 322.31,376.3 321.33,382.67 C 321,388.11 320.8,393.55 320.73,399 Z"/></g>
<g><path fill="#1661b3" stroke="#1661b3" stroke-width="0.5" d="M 439.26,413.75 C 439.11,414.22 438.82,414.56 438.37,414.77 C 434.78,414.34 431.17,414.08 427.55,413.97 C 421.53,414.43 415.5,414.77 409.47,414.99 C 407.04,414.78 404.76,414.06 402.64,412.85 C 400.93,412 399.71,410.68 399,408.92 C 406.95,406.59 415.06,405.74 423.33,406.36 C 429.57,406.86 434.88,409.32 439.26,413.75 Z"/></g>
</svg>
