<?xml version="1.0" encoding="UTF-8"?>
<!DOCTYPE svg PUBLIC "-//W3C//DTD SVG 1.1//EN" "http://www.w3.org/Graphics/SVG/1.1/DTD/svg11.dtd">
<svg xmlns="http://www.w3.org/2000/svg" version="1.1" width="1024px" height="1024px" style="shape-rendering:geometricPrecision; text-rendering:geometricPrecision; image-rendering:optimizeQuality; fill-rule:evenodd; clip-rule:evenodd" xmlns:xlink="http://www.w3.org/1999/xlink">
<rect x="0" y="0" width="1024" height="1024" fill="#ffffff"/>
<g><path fill="#ed7f7e" stroke="#ed7f7e" stroke-width="0.5" d="M 0,0 C 341.33,0 682.67,0 1024,0 C 1024,341.33 1024,682.67 1024,1024 C 682.67,1024 341.33,1024 0,1024 C 0,682.67 0,341.33 0,0 Z M 28.33,512 C 28.83,601.22 51.86,684.2 97.41,760.96 C 143.84,837.48 206.49,896.9 285.37,939.21 C 356.18,976.38 431.56,995.19 511.5,995.67 C 591.8,995.37 667.51,976.55 738.63,939.21 C 825.54,892.4 892.4,825.54 939.21,738.63 C 976.38,667.82 995.19,592.44 995.67,512.5 C 995.37,432.2 976.55,356.49 939.21,285.37 C 892.4,198.46 825.54,131.6 738.63,84.79 C 667.82,47.62 592.44,28.81 512.5,28.33 C 432.2,28.63 356.49,47.45 285.37,84.79 C 198.46,131.6 131.6,198.46 84.79,285.37 C 47.54,356.34 28.72,431.88 28.33,512 Z M 558,558.15 C 558.05,557.36 557.86,556.64 557.41,555.99 C 552.8,550.97 547.8,546.38 542.41,542.23 C 541.55,542.03 540.7,542.03 539.85,542.25 C 545.67,535.84 549.56,528.43 551.53,520.01 C 552.11,515.53 552.2,511.03 551.8,506.52 C 549.65,495.41 544.04,486.47 534.95,479.71 C 526.08,473.5 516.28,471.04 505.55,472.32 C 496.66,474.05 488.84,477.95 482.1,484.01 C 482.3,483.21 482.17,482.47 481.7,481.79 C 475.26,475.59 469.04,469.17 463.04,462.53 C 462.41,462.09 461.72,461.94 460.97,462.11 C 462.16,460.15 463.73,458.56 465.68,457.32 C 470.3,454.09 475.08,451.1 480.01,448.34 C 498.75,437.86 517.41,427.25 535.99,416.5 C 583.61,389.17 631.14,361.69 678.59,334.06 C 683.52,331.27 688.56,328.67 693.7,326.28 C 695.6,325.59 696.12,326.14 695.26,327.95 C 692.11,333.66 688.92,339.35 685.68,345.01 C 648.17,408.27 610.77,471.6 573.5,535.01 C 569.99,541.96 565.97,548.6 561.44,554.92 C 560.49,556.21 559.34,557.29 558,558.15 Z"/></g>
<g><path fill="#ef9c6e" stroke="#ef9c6e" stroke-width="0.5" d="M 532.04,191.1 C 531.24,191 530.45,191.01 529.66,191.15 C 529.19,191.47 528.98,191.92 529.03,192.49 C 529.08,212.45 529.02,232.4 528.84,252.35 C 528.53,252.81 528.08,253.03 527.52,253.02 C 524.49,253.05 521.46,253.16 518.44,253.35 C 511.12,253.11 503.81,252.98 496.49,252.96 C 495.94,252.98 495.51,252.76 495.21,252.31 C 495.07,232.71 495.03,213.1 495.09,193.48 C 495.13,192.85 495.04,192.23 494.84,191.63 C 494.65,191.26 494.35,191.07 493.94,191.04 C 494.22,190.31 494.75,189.97 495.54,190.03 C 496.71,190.22 497.88,190.38 499.06,190.49 C 501.55,190.35 504.02,190.18 506.5,189.96 C 509.49,190.28 512.49,190.49 515.5,190.58 C 520.49,190.32 525.49,190.14 530.49,190.04 C 531.2,190.12 531.71,190.47 532.04,191.1 Z M 827.94,492.96 C 828.8,493.57 829.21,494.4 829.2,495.47 C 829.15,504.14 829.09,512.82 829.01,521.5 C 828.94,522.84 828.81,524.17 828.63,525.5 C 828.78,526.84 829.01,528.16 829.31,529.47 C 829.14,530.75 828.95,532.02 828.72,533.29 C 828.53,533.67 828.23,533.92 827.83,534.04 C 827.98,532.31 828.11,530.59 828.22,528.86 C 828.1,528.47 827.84,528.21 827.45,528.08 C 809.79,527.95 792.13,527.93 774.47,528 C 773.89,528.07 773.42,527.87 773.07,527.42 C 772.94,517.44 772.89,507.46 772.93,497.47 C 772.91,496.89 773.14,496.44 773.62,496.13 C 791.25,496.02 808.89,495.98 826.53,496.02 C 827.31,496.07 827.81,495.74 828.03,495.03 C 827.99,494.34 827.97,493.65 827.94,492.96 Z M 195.99,496.23 C 214.13,496.03 232.27,495.99 250.41,496.11 C 251.07,496.75 251.33,497.54 251.2,498.49 C 251.31,509.02 251.25,519.55 251.02,530.08 C 234.51,530.06 218,530.03 201.49,530 C 200.16,530.07 198.86,530.28 197.57,530.61 C 197,530.36 196.55,529.96 196.23,529.43 C 195.82,528.13 195.48,526.82 195.22,525.49 C 195.64,521.82 195.6,518.15 195.12,514.49 C 195.48,512.85 195.77,511.18 195.98,509.51 C 196.05,505.09 196.05,500.66 195.99,496.23 Z M 529.68,825.24 C 529.02,825.58 528.32,825.82 527.59,825.97 C 525.86,826.06 524.14,826.25 522.43,826.53 C 520.46,826.53 518.48,826.45 516.5,826.3 C 512.85,826.78 509.18,826.93 505.5,826.76 C 502.54,826.54 499.58,826.25 496.63,825.88 C 495.77,825.51 495,825 494.3,824.37 C 494.41,824.18 494.51,824 494.62,823.81 C 495.31,823.65 495.68,823.21 495.72,822.49 C 495.91,821.16 496.01,819.83 496.04,818.5 C 496.07,808.52 496.02,798.54 495.9,788.56 C 495.74,788.17 495.45,787.97 495.04,787.97 C 495.07,782.81 495.09,777.66 495.08,772.5 C 495.04,771.95 495.23,771.5 495.66,771.16 C 506.28,770.98 516.9,770.92 527.52,770.97 C 528.1,770.94 528.54,771.16 528.86,771.63 C 529.03,788.25 529.07,804.88 528.98,821.5 C 528.95,822.8 529.19,824.05 529.68,825.24 Z"/></g>
<g><path fill="#f5b5d2" d="M 828.03,495.03 C 827.81,495.74 827.31,496.07 826.53,496.02 C 808.89,495.98 791.25,496.02 773.62,496.13 C 773.14,496.44 772.91,496.89 772.93,497.47 C 772.89,507.46 772.94,517.44 773.07,527.42 C 773.42,527.87 773.89,528.07 774.47,528 C 792.13,527.93 809.79,527.95 827.45,528.08 C 827.84,528.21 828.1,528.47 828.22,528.86 C 810.31,528.98 792.4,529.01 774.49,528.97 C 772.3,528.87 771.45,527.72 771.92,525.5 C 771.93,516.16 771.93,506.82 771.94,497.48 C 771.87,496.66 772.11,495.96 772.65,495.38 C 773.58,495.12 774.53,494.98 775.5,494.98 C 793.01,494.99 810.52,495.01 828.03,495.03 Z"/></g>
<g><path fill="#f4b1cc" d="M 196.85,489.93 C 197.01,491.43 197.07,492.93 197.04,494.43 C 197.38,494.91 197.84,495.15 198.44,495.13 C 216.07,495.04 233.7,495.14 251.32,495.41 C 251.87,495.97 252.12,496.66 252.07,497.48 C 252.07,507.49 252.08,517.5 252.09,527.52 C 252.14,528.16 252.07,528.8 251.9,529.43 C 251.73,529.82 251.44,530.03 251.02,530.08 C 251.25,519.55 251.31,509.02 251.2,498.49 C 251.33,497.54 251.07,496.75 250.41,496.11 C 232.27,495.99 214.13,496.03 195.99,496.23 C 195.89,494.61 195.97,492.99 196.22,491.38 C 196.26,490.82 196.47,490.33 196.85,489.93 Z"/></g>
<g><path fill="#f2a89d" d="M 481.84,933.15 C 482.7,932.83 483.6,932.69 484.52,932.73 C 498.84,933.31 513.16,933.53 527.5,933.39 C 531.86,933.29 536.21,933.07 540.55,932.72 C 541.09,932.75 541.6,932.87 542.1,933.06 C 541.64,933.47 541.1,933.68 540.47,933.7 C 538.82,933.84 537.16,933.94 535.5,934.01 C 518.17,934.24 500.85,934.13 483.53,933.69 C 482.91,933.68 482.35,933.51 481.84,933.15 Z"/></g>
<g><path fill="#f6bcd1" d="M 936.12,491.09 C 936.52,491.44 936.71,491.89 936.66,492.43 C 937.2,506.71 937.18,520.98 936.61,535.24 C 936.55,535.54 936.39,535.76 936.13,535.9 C 936.3,520.96 936.3,506.03 936.12,491.09 Z"/></g>
<g><path fill="#f3abab" d="M 88.99,493.02 C 89.23,493.83 89.33,494.66 89.3,495.51 C 88.44,506.17 88.42,516.83 89.25,527.49 C 89.3,528.43 89.16,529.35 88.83,530.24 C 88.27,529.43 88.04,528.51 88.13,527.5 C 87.82,517.16 87.87,506.83 88.25,496.5 C 88.18,495.25 88.43,494.09 88.99,493.02 Z"/></g>
<g><path fill="#f19da3" d="M 495.04,787.97 C 495.45,787.97 495.74,788.17 495.9,788.56 C 496.02,798.54 496.07,808.52 496.04,818.5 C 496.01,819.83 495.91,821.16 495.72,822.49 C 495.68,823.21 495.31,823.65 494.62,823.81 C 494.9,822.73 495.05,821.63 495.06,820.51 C 494.98,809.66 494.98,798.82 495.04,787.97 Z"/></g>
<g><path fill="#f9cee6" d="M 526.03,87.02 C 517.01,86.95 507.99,86.94 498.97,87 C 499.13,86.7 499.37,86.5 499.7,86.41 C 508.25,85.7 516.79,85.71 525.34,86.42 C 525.67,86.5 525.9,86.7 526.03,87.02 Z"/></g>
<g><path fill="#f7c5d5" d="M 482.98,193.06 C 482.62,193.53 482.14,193.78 481.55,193.82 C 479.44,193.94 477.37,194.22 475.32,194.66 C 473.48,194.76 471.65,194.81 469.81,194.81 C 470.2,194.24 470.76,193.95 471.47,193.95 C 474.48,193.63 477.49,193.3 480.5,192.94 C 481.33,192.88 482.16,192.92 482.98,193.06 Z"/></g>
<g><path fill="#f1ab66" stroke="#f1ab66" stroke-width="0.5" d="M 498.97,87 C 507.99,86.94 517.01,86.95 526.03,87.02 C 529.47,87.04 532.91,87.14 536.34,87.29 C 544.33,87.92 552.33,88.6 560.33,89.33 C 571.04,90.78 581.68,92.46 592.27,94.36 C 593.42,94.69 594.54,95.12 595.62,95.65 C 596.57,95.66 597.51,95.73 598.44,95.85 C 603.72,97.12 609.01,98.3 614.33,99.4 C 615.43,99.86 616.55,100.29 617.68,100.7 C 620.29,101.13 622.85,101.7 625.38,102.41 C 628.71,103.61 632.06,104.78 635.42,105.9 C 636.38,106.1 637.35,106.27 638.32,106.42 C 640.16,106.97 641.94,107.69 643.64,108.59 C 647.56,109.78 651.47,111.03 655.36,112.33 C 656.14,112.74 656.9,113.18 657.63,113.67 C 659.57,114.08 661.46,114.66 663.3,115.42 C 670.26,118.46 677.27,121.41 684.3,124.27 C 691.21,127.67 698.1,131.08 704.97,134.53 C 718.47,141.82 731.64,149.66 744.48,158.06 C 755.95,165.8 767.08,174 777.87,182.67 C 782.76,186.75 787.6,190.89 792.39,195.1 C 800.45,202.36 808.29,209.86 815.9,217.59 C 822.53,224.63 829,231.83 835.31,239.16 C 839.25,243.91 843.14,248.7 846.99,253.52 C 850.25,257.94 853.53,262.34 856.83,266.72 C 860.46,272.07 864.12,277.4 867.8,282.7 C 872.91,290.69 877.8,298.8 882.5,307.03 C 884.62,311.22 886.85,315.35 889.19,319.41 C 889.65,320.36 890.01,321.33 890.29,322.35 C 893.53,328.38 896.66,334.47 899.69,340.62 C 901.87,346.45 904.18,352.24 906.6,357.97 C 906.99,358.49 907.34,359.03 907.65,359.6 C 909.94,366.33 912.32,373.03 914.77,379.7 C 917.1,387.02 919.39,394.33 921.64,401.63 C 922.75,405.83 923.65,410.06 924.34,414.33 C 925.34,416.71 926.11,419.17 926.63,421.71 C 929.1,434.61 931.44,447.52 933.66,460.45 C 933.61,462.12 933.64,463.78 933.73,465.44 C 934.52,469.73 934.96,474.06 935.03,478.42 C 935.32,479.39 935.54,480.38 935.71,481.37 C 935.69,484.62 935.83,487.86 936.12,491.09 C 936.3,506.03 936.3,520.96 936.13,535.9 C 935.91,540.12 935.59,544.34 935.16,548.54 C 935.27,549.12 935.39,549.71 935.55,550.28 C 935.19,550.97 934.92,551.7 934.74,552.45 C 934.66,554.16 934.64,555.88 934.67,557.6 C 933.67,560.49 933.35,563.47 933.71,566.54 C 933.01,568.18 932.55,569.9 932.32,571.69 C 931.52,577.93 930.62,584.14 929.62,590.34 C 927.97,597.04 926.41,603.78 924.93,610.53 C 924.82,611.46 924.74,612.4 924.69,613.34 C 924.27,614.1 923.85,614.86 923.44,615.62 C 923.13,618.61 922.51,621.54 921.6,624.39 C 921.05,626.54 920.33,628.64 919.42,630.67 C 918.46,634.22 917.51,637.78 916.59,641.34 C 916.25,641.93 915.88,642.5 915.5,643.06 C 914.36,647.21 913.08,651.31 911.68,655.37 C 911.22,656.13 910.76,656.9 910.31,657.66 C 909.95,659.6 909.38,661.48 908.6,663.29 C 905.49,670.52 902.39,677.75 899.32,684.99 C 896.43,691.1 893.52,697.21 890.6,703.3 C 890.21,703.77 889.82,704.24 889.42,704.7 C 887.01,709.62 884.45,714.45 881.75,719.22 C 878.56,724.44 875.44,729.68 872.37,734.94 C 868.45,740.98 864.46,746.97 860.42,752.92 C 854.16,761.62 847.67,770.14 840.93,778.47 C 837.25,782.78 833.56,787.08 829.86,791.37 C 802.09,822.33 770.56,848.8 735.27,870.78 C 729.25,874.61 723.06,878.14 716.71,881.37 C 716.23,881.77 715.75,882.19 715.29,882.61 C 709.29,885.69 703.29,888.75 697.27,891.8 C 691.58,894.36 685.93,896.99 680.31,899.69 C 679.41,899.91 678.52,900.14 677.63,900.39 C 674.57,901.87 671.47,903.26 668.34,904.59 C 661.96,906.82 655.63,909.19 649.34,911.7 C 645.28,912.93 641.25,914.26 637.27,915.7 C 633.85,916.33 630.54,917.33 627.35,918.7 C 624.83,919.38 622.27,919.94 619.69,920.4 C 617.05,921.37 614.37,922.19 611.65,922.85 C 608.66,923.48 605.66,924 602.64,924.39 C 601.87,924.78 601.1,925.17 600.34,925.58 C 594.81,926.57 589.27,927.5 583.71,928.38 C 582.22,928.66 580.76,929.07 579.35,929.62 C 576.07,929.72 572.82,930.08 569.6,930.7 C 568.8,930.85 568.04,931.11 567.32,931.49 C 566.73,931.38 566.13,931.28 565.52,931.21 C 557.74,932.06 549.93,932.68 542.1,933.06 C 541.6,932.87 541.09,932.75 540.55,932.72 C 536.21,933.07 531.86,933.29 527.5,933.39 C 513.16,933.53 498.84,933.31 484.52,932.73 C 483.6,932.69 482.7,932.83 481.84,933.15 C 477.07,932.94 472.31,932.63 467.55,932.22 C 460.27,931.3 453,930.44 445.73,929.62 C 443.41,928.75 441.01,928.29 438.54,928.24 C 430.57,926.68 422.6,925.15 414.63,923.64 C 406.96,921.68 399.29,919.67 391.64,917.61 C 390.88,917.21 390.14,916.8 389.39,916.39 C 384.82,915.11 380.24,913.84 375.66,912.6 C 374.89,912.2 374.13,911.78 373.39,911.34 C 369.42,910.3 365.51,909.06 361.66,907.61 C 360.88,907.23 360.12,906.81 359.37,906.37 C 353.46,904.15 347.57,901.9 341.68,899.61 C 335.81,896.87 329.93,894.13 324.04,891.38 C 318.21,888.24 312.34,885.18 306.42,882.2 C 301.49,879.44 296.59,876.63 291.71,873.77 C 283.73,868.81 275.85,863.69 268.07,858.4 C 261.72,853.76 255.4,849.08 249.12,844.34 C 245.42,841.37 241.74,838.38 238.08,835.37 C 232.19,830.3 226.39,825.15 220.66,819.91 C 190.7,791.56 165.35,759.57 144.63,723.93 C 140.68,717.16 136.91,710.3 133.33,703.35 C 128.86,694.08 124.52,684.76 120.33,675.39 C 117.73,668.36 115.08,661.36 112.36,654.37 C 110.99,650.37 109.65,646.36 108.34,642.35 C 108.01,641.13 107.78,639.89 107.65,638.63 C 107.21,637.9 106.79,637.15 106.39,636.4 C 103.57,626.42 100.89,616.4 98.36,606.35 C 97.38,601.15 96.49,595.94 95.69,590.72 C 95.25,589.24 94.81,587.77 94.36,586.29 C 93.65,581.39 92.97,576.47 92.34,571.54 C 92.12,570.74 91.85,569.96 91.54,569.19 C 91.43,566.95 91.3,564.71 91.17,562.48 C 90.99,561.49 90.72,560.53 90.35,559.6 C 89.72,549.82 89.21,540.03 88.83,530.24 C 89.16,529.35 89.3,528.43 89.25,527.49 C 88.42,516.83 88.44,506.17 89.3,495.51 C 89.33,494.66 89.23,493.83 88.99,493.02 C 89.14,488.17 89.23,483.32 89.25,478.48 C 89.48,477.16 89.76,475.85 90.08,474.55 C 90.54,469.96 90.97,465.36 91.4,460.75 C 92.42,454.07 93.4,447.39 94.36,440.7 C 94.81,439.24 95.21,437.76 95.58,436.27 C 96.62,429.34 97.9,422.46 99.44,415.63 C 99.84,414.88 100.23,414.13 100.61,413.37 C 100.97,410.41 101.54,407.51 102.32,404.65 C 102.85,403.57 103.3,402.46 103.68,401.32 C 104.5,397.72 105.4,394.15 106.38,390.6 C 106.88,388.81 107.56,387.08 108.41,385.43 C 109.63,380.93 111,376.48 112.51,372.06 C 116.17,362.95 119.8,353.81 123.38,344.67 C 126.68,337.73 129.96,330.77 133.23,323.79 C 140.59,309.41 148.6,295.4 157.25,281.76 C 161.08,276.24 164.86,270.68 168.6,265.09 C 175.14,256.32 181.81,247.66 188.62,239.12 C 193.56,233.39 198.57,227.73 203.65,222.13 C 211.29,214.11 219.1,206.27 227.1,198.61 C 234.43,192.25 241.78,185.92 249.16,179.63 C 259.82,171.18 270.78,163.17 282.07,155.59 C 289.22,150.99 296.44,146.52 303.75,142.18 C 309.03,139.21 314.32,136.28 319.63,133.38 C 329.55,128.52 339.55,123.85 349.63,119.35 C 354.11,117.86 358.49,116.13 362.78,114.18 C 367.3,112.62 371.83,111.11 376.38,109.66 C 377.94,108.89 379.53,108.18 381.15,107.52 C 387.32,105.8 393.47,104.03 399.61,102.22 C 403.51,101.19 407.43,100.26 411.37,99.43 C 412.12,99.09 412.88,98.74 413.63,98.39 C 421.98,96.73 430.34,95.06 438.69,93.39 C 445.68,92.42 452.66,91.4 459.63,90.34 C 466.17,89.52 472.74,88.97 479.34,88.69 C 483.35,88.04 487.36,87.54 491.4,87.19 C 493.92,87.02 496.44,86.96 498.97,87 Z M 493.94,191.04 C 492.86,191.16 491.77,191.29 490.69,191.42 C 489.59,191.93 488.46,192.34 487.3,192.65 C 485.84,192.62 484.4,192.75 482.98,193.06 C 482.16,192.92 481.33,192.88 480.5,192.94 C 477.49,193.3 474.48,193.63 471.47,193.95 C 470.76,193.95 470.2,194.24 469.81,194.81 C 466.77,194.94 463.72,195.11 460.67,195.31 C 458.42,196.04 456.11,196.39 453.73,196.37 C 446.33,197.93 438.96,199.6 431.62,201.35 C 430.9,201.82 430.15,202.22 429.36,202.54 C 426.87,203.04 424.43,203.69 422.03,204.48 C 417.3,206.22 412.52,207.82 407.69,209.29 C 406.9,209.78 406.09,210.25 405.29,210.7 C 398.75,213.27 392.2,215.82 385.65,218.37 C 381.06,220.72 376.43,223 371.76,225.22 C 363.77,229.45 355.9,233.91 348.15,238.6 C 339.03,244.39 330.15,250.54 321.52,257.04 C 316.74,260.93 311.94,264.8 307.12,268.64 C 304.2,271.41 301.19,274.09 298.11,276.67 C 272.47,300.67 251.19,328.04 234.25,358.78 C 230.9,365.19 227.66,371.64 224.51,378.14 C 221.66,384.96 218.87,391.8 216.14,398.65 C 212.5,408.55 209.23,418.55 206.34,428.65 C 205,435.08 203.74,441.52 202.56,447.99 C 202.23,448.91 201.84,449.79 201.37,450.65 C 199.67,463.71 198.16,476.8 196.85,489.93 C 196.47,490.33 196.26,490.82 196.22,491.38 C 195.97,492.99 195.89,494.61 195.99,496.23 C 196.05,500.66 196.05,505.09 195.98,509.51 C 195.77,511.18 195.48,512.85 195.12,514.49 C 195.6,518.15 195.64,521.82 195.22,525.49 C 195.48,526.82 195.82,528.13 196.23,529.43 C 196.55,529.96 197,530.36 197.57,530.61 C 197.08,531.83 196.96,533.1 197.21,534.41 C 199.24,547.42 201.13,560.44 202.88,573.49 C 204.52,583.21 206.75,592.79 209.56,602.24 C 216.58,624.52 225.81,645.84 237.24,666.21 C 269.46,721.33 314.07,763.3 371.06,792.1 C 395.07,804.06 420.19,812.89 446.4,818.59 C 450.43,819.4 454.46,820.21 458.5,821 C 467.18,822.3 475.84,823.68 484.5,825.12 C 486.81,825.38 489.12,825.44 491.44,825.32 C 492.48,825.27 493.44,824.95 494.3,824.37 C 495,825 495.77,825.51 496.63,825.88 C 499.58,826.25 502.54,826.54 505.5,826.76 C 509.18,826.93 512.85,826.78 516.5,826.3 C 518.48,826.45 520.46,826.53 522.43,826.53 C 524.14,826.25 525.86,826.06 527.59,825.97 C 528.32,825.82 529.02,825.58 529.68,825.24 C 531.2,825.67 532.76,825.79 534.34,825.61 C 547.52,824.67 560.58,822.86 573.52,820.16 C 582.71,818.22 591.82,815.98 600.86,813.45 C 619.04,807.77 636.7,800.79 653.85,792.5 C 707.91,765.21 750.96,725.88 783.01,674.52 C 799.07,648.29 810.96,620.3 818.7,590.54 C 820.16,583.86 821.63,577.19 823.12,570.52 C 825.14,558.41 826.71,546.26 827.83,534.04 C 828.23,533.92 828.53,533.67 828.72,533.29 C 828.95,532.02 829.14,530.75 829.31,529.47 C 829.01,528.16 828.78,526.84 828.63,525.5 C 828.81,524.17 828.94,522.84 829.01,521.5 C 829.09,512.82 829.15,504.14 829.2,495.47 C 829.21,494.4 828.8,493.57 827.94,492.96 C 826.93,486.48 826.22,479.97 825.82,473.42 C 824.95,467.66 824.12,461.9 823.34,456.13 C 821.73,448.44 820.07,440.76 818.35,433.1 C 814.19,417.03 808.9,401.35 802.47,386.05 C 786.57,348.7 764.55,315.39 736.41,286.13 C 691.92,240.71 638.64,211.12 576.58,197.37 C 566.5,195.64 556.41,194.03 546.29,192.53 C 541.52,192.31 536.76,191.83 532.04,191.1 C 531.71,190.47 531.2,190.12 530.49,190.04 C 525.49,190.14 520.49,190.32 515.5,190.58 C 512.49,190.49 509.49,190.28 506.5,189.96 C 504.02,190.18 501.55,190.35 499.06,190.49 C 497.88,190.38 496.71,190.22 495.54,190.03 C 494.75,189.97 494.22,190.31 493.94,191.04 Z M 460.97,462.11 C 461.72,461.94 462.41,462.09 463.04,462.53 C 469.04,469.17 475.26,475.59 481.7,481.79 C 482.17,482.47 482.3,483.21 482.1,484.01 C 480.59,486.32 478.97,488.56 477.23,490.71 C 475.54,493.65 473.92,496.64 472.37,499.66 C 471,503.84 470.12,508.13 469.72,512.51 C 469.54,514.86 469.67,517.2 470.09,519.52 C 470.5,521.13 470.86,522.74 471.14,524.37 C 472.2,526.25 472.93,528.25 473.34,530.37 C 476.08,534.8 479.36,538.79 483.18,542.33 C 485.07,543.8 487.02,545.17 489.03,546.46 C 491.66,547.89 494.33,549.2 497.05,550.39 C 501.13,551.48 505.27,552.32 509.46,552.89 C 511.14,552.95 512.82,552.95 514.49,552.88 C 517.08,552.25 519.71,551.82 522.37,551.58 C 523.31,551.15 524.28,550.83 525.3,550.62 C 527.78,549.54 530.24,548.39 532.67,547.18 C 535.2,545.72 537.59,544.08 539.85,542.25 C 540.7,542.03 541.55,542.03 542.41,542.23 C 547.8,546.38 552.8,550.97 557.41,555.99 C 557.86,556.64 558.05,557.36 558,558.15 C 557.51,558.8 556.94,559.34 556.27,559.78 C 553.63,561.49 550.98,563.16 548.31,564.8 C 541.64,568.63 534.87,572.26 528.01,575.7 C 518.58,581.31 509.12,586.87 499.63,592.38 C 498.54,593.25 497.4,594.06 496.23,594.81 C 482.19,603.07 468.21,611.41 454.28,619.83 C 429.02,634.5 403.84,649.3 378.73,664.2 C 363.89,673.37 349.08,682.58 334.29,691.83 C 333.44,692.4 332.51,692.76 331.51,692.9 C 331.08,692.62 330.95,692.22 331.15,691.72 C 331.62,690.74 332.01,689.72 332.32,688.67 C 340.88,673.39 349.7,658.25 358.78,643.27 C 365.52,631.29 372.1,619.23 378.5,607.08 C 389.23,588.13 399.99,569.19 410.78,550.28 C 420.67,532.14 430.48,513.95 440.21,495.71 C 444.44,488.31 448.75,480.96 453.14,473.66 C 455.52,469.64 458.14,465.79 460.97,462.11 Z"/></g>
<g><path fill="#ffffff" stroke="#ffffff" stroke-width="0.5" d="M 28.33,512 C 28.83,422.78 51.86,339.8 97.41,263.04 C 143.84,186.52 206.49,127.1 285.37,84.79 C 356.18,47.63 431.56,28.81 511.5,28.33 C 591.8,28.63 667.51,47.45 738.63,84.79 C 825.54,131.6 892.4,198.46 939.21,285.37 C 976.38,356.18 995.19,431.56 995.67,511.5 C 995.37,591.8 976.55,667.51 939.21,738.63 C 892.4,825.54 825.54,892.4 738.63,939.21 C 667.82,976.38 592.44,995.19 512.5,995.67 C 432.2,995.37 356.49,976.55 285.37,939.21 C 198.46,892.4 131.6,825.54 84.79,738.63 C 47.54,667.66 28.72,592.12 28.33,512 Z M 498.97,87 C 496.44,86.96 493.92,87.02 491.4,87.19 C 487.36,87.54 483.35,88.04 479.34,88.69 C 472.74,88.97 466.17,89.52 459.63,90.34 C 452.66,91.4 445.68,92.42 438.69,93.39 C 430.34,95.06 421.98,96.73 413.63,98.39 C 412.88,98.74 412.12,99.09 411.37,99.43 C 407.43,100.26 403.51,101.19 399.61,102.22 C 393.47,104.03 387.32,105.8 381.15,107.52 C 379.53,108.18 377.94,108.89 376.38,109.66 C 371.83,111.11 367.3,112.62 362.78,114.18 C 358.49,116.13 354.11,117.86 349.63,119.35 C 339.55,123.85 329.55,128.52 319.63,133.38 C 314.32,136.28 309.03,139.21 303.75,142.18 C 296.44,146.52 289.22,150.99 282.07,155.59 C 270.78,163.17 259.82,171.18 249.16,179.63 C 241.78,185.92 234.43,192.25 227.1,198.61 C 219.1,206.27 211.29,214.11 203.65,222.13 C 198.57,227.73 193.56,233.39 188.62,239.12 C 181.81,247.66 175.14,256.32 168.6,265.09 C 164.86,270.68 161.08,276.24 157.25,281.76 C 148.6,295.4 140.59,309.41 133.23,323.79 C 129.96,330.77 126.68,337.73 123.38,344.67 C 119.8,353.81 116.17,362.95 112.51,372.06 C 111,376.48 109.63,380.93 108.41,385.43 C 107.56,387.08 106.88,388.81 106.38,390.6 C 105.4,394.15 104.5,397.72 103.68,401.32 C 103.3,402.46 102.85,403.57 102.32,404.65 C 101.54,407.51 100.97,410.41 100.61,413.37 C 100.23,414.13 99.84,414.88 99.44,415.63 C 97.9,422.46 96.62,429.34 95.58,436.27 C 95.21,437.76 94.81,439.24 94.36,440.7 C 93.4,447.39 92.42,454.07 91.4,460.75 C 90.97,465.36 90.54,469.96 90.08,474.55 C 89.76,475.85 89.48,477.16 89.25,478.48 C 89.23,483.32 89.14,488.17 88.99,493.02 C 88.43,494.09 88.18,495.25 88.25,496.5 C 87.87,506.83 87.82,517.16 88.13,527.5 C 88.04,528.51 88.27,529.43 88.83,530.24 C 89.21,540.03 89.72,549.82 90.35,559.6 C 90.72,560.53 90.99,561.49 91.17,562.48 C 91.3,564.71 91.43,566.95 91.54,569.19 C 91.85,569.96 92.12,570.74 92.34,571.54 C 92.97,576.47 93.65,581.39 94.36,586.29 C 94.81,587.77 95.25,589.24 95.69,590.72 C 96.49,595.94 97.38,601.15 98.36,606.35 C 100.89,616.4 103.57,626.42 106.39,636.4 C 106.79,637.15 107.21,637.9 107.65,638.63 C 107.78,639.89 108.01,641.13 108.34,642.35 C 109.65,646.36 110.99,650.37 112.36,654.37 C 115.08,661.36 117.73,668.36 120.33,675.39 C 124.52,684.76 128.86,694.08 133.33,703.35 C 136.91,710.3 140.68,717.16 144.63,723.93 C 165.35,759.57 190.7,791.56 220.66,819.91 C 226.39,825.15 232.19,830.3 238.08,835.37 C 241.74,838.38 245.42,841.37 249.12,844.34 C 255.4,849.08 261.72,853.76 268.07,858.4 C 275.85,863.69 283.73,868.81 291.71,873.77 C 296.59,876.63 301.49,879.44 306.42,882.2 C 312.34,885.18 318.21,888.24 324.04,891.38 C 329.93,894.13 335.81,896.87 341.68,899.61 C 347.57,901.9 353.46,904.15 359.37,906.37 C 360.12,906.81 360.88,907.23 361.66,907.61 C 365.51,909.06 369.42,910.3 373.39,911.34 C 374.13,911.78 374.89,912.2 375.66,912.6 C 380.24,913.84 384.82,915.11 389.39,916.39 C 390.14,916.8 390.88,917.21 391.64,917.61 C 399.29,919.67 406.96,921.68 414.63,923.64 C 422.6,925.15 430.57,926.68 438.54,928.24 C 441.01,928.29 443.41,928.75 445.73,929.62 C 453,930.44 460.27,931.3 467.55,932.22 C 472.31,932.63 477.07,932.94 481.84,933.15 C 482.35,933.51 482.91,933.68 483.53,933.69 C 500.85,934.13 518.17,934.24 535.5,934.01 C 537.16,933.94 538.82,933.84 540.47,933.7 C 541.1,933.68 541.64,933.47 542.1,933.06 C 549.93,932.68 557.74,932.06 565.52,931.21 C 566.13,931.28 566.73,931.38 567.32,931.49 C 568.04,931.11 568.8,930.85 569.6,930.7 C 572.82,930.08 576.07,929.72 579.35,929.62 C 580.76,929.07 582.22,928.66 583.71,928.38 C 589.27,927.5 594.81,926.57 600.34,925.58 C 601.1,925.17 601.87,924.78 602.64,924.39 C 605.66,924 608.66,923.48 611.65,922.85 C 614.37,922.19 617.05,921.37 619.69,920.4 C 622.27,919.94 624.83,919.38 627.35,918.7 C 630.54,917.33 633.85,916.33 637.27,915.7 C 641.25,914.26 645.28,912.93 649.34,911.7 C 655.63,909.19 661.96,906.82 668.34,904.59 C 671.47,903.26 674.57,901.87 677.63,900.39 C 678.52,900.14 679.41,899.91 680.31,899.69 C 685.93,896.99 691.58,894.36 697.27,891.8 C 703.29,888.75 709.29,885.69 715.29,882.61 C 715.75,882.19 716.23,881.77 716.71,881.37 C 723.06,878.14 729.25,874.61 735.27,870.78 C 770.56,848.8 802.09,822.33 829.86,791.37 C 833.56,787.08 837.25,782.78 840.93,778.47 C 847.67,770.14 854.16,761.62 860.42,752.92 C 864.46,746.97 868.45,740.98 872.37,734.94 C 875.44,729.68 878.56,724.44 881.75,719.22 C 884.45,714.45 887.01,709.62 889.42,704.7 C 889.82,704.24 890.21,703.77 890.6,703.3 C 893.52,697.21 896.43,691.1 899.32,684.99 C 902.39,677.75 905.49,670.52 908.6,663.29 C 909.38,661.48 909.95,659.6 910.31,657.66 C 910.76,656.9 911.22,656.13 911.68,655.37 C 913.08,651.31 914.36,647.21 915.5,643.06 C 915.88,642.5 916.25,641.93 916.59,641.34 C 917.51,637.78 918.46,634.22 919.42,630.67 C 920.33,628.64 921.05,626.54 921.6,624.39 C 922.51,621.54 923.13,618.61 923.44,615.62 C 923.85,614.86 924.27,614.1 924.69,613.34 C 924.74,612.4 924.82,611.46 924.93,610.53 C 926.41,603.78 927.97,597.04 929.62,590.34 C 930.62,584.14 931.52,577.93 932.32,571.69 C 932.55,569.9 933.01,568.18 933.71,566.54 C 933.35,563.47 933.67,560.49 934.67,557.6 C 934.64,555.88 934.66,554.16 934.74,552.45 C 934.92,551.7 935.19,550.97 935.55,550.28 C 935.39,549.71 935.27,549.12 935.16,548.54 C 935.59,544.34 935.91,540.12 936.13,535.9 C 936.39,535.76 936.55,535.54 936.61,535.24 C 937.18,520.98 937.2,506.71 936.66,492.43 C 936.71,491.89 936.52,491.44 936.12,491.09 C 935.83,487.86 935.69,484.62 935.71,481.37 C 935.54,480.38 935.32,479.39 935.03,478.42 C 934.96,474.06 934.52,469.73 933.73,465.44 C 933.64,463.78 933.61,462.12 933.66,460.45 C 931.44,447.52 929.1,434.61 926.63,421.71 C 926.11,419.17 925.34,416.71 924.34,414.33 C 923.65,410.06 922.75,405.83 921.64,401.63 C 919.39,394.33 917.1,387.02 914.77,379.7 C 912.32,373.03 909.94,366.33 907.65,359.6 C 907.34,359.03 906.99,358.49 906.6,357.97 C 904.18,352.24 901.87,346.45 899.69,340.62 C 896.66,334.47 893.53,328.38 890.29,322.35 C 890.01,321.33 889.65,320.36 889.19,319.41 C 886.85,315.35 884.62,311.22 882.5,307.03 C 877.8,298.8 872.91,290.69 867.8,282.7 C 864.12,277.4 860.46,272.07 856.83,266.72 C 853.53,262.34 850.25,257.94 846.99,253.52 C 843.14,248.7 839.25,243.91 835.31,239.16 C 829,231.83 822.53,224.63 815.9,217.59 C 808.29,209.86 800.45,202.36 792.39,195.1 C 787.6,190.89 782.76,186.75 777.87,182.67 C 767.08,174 755.95,165.8 744.48,158.06 C 731.64,149.66 718.47,141.82 704.97,134.53 C 698.1,131.08 691.21,127.67 684.3,124.27 C 677.27,121.41 670.26,118.46 663.3,115.42 C 661.46,114.66 659.57,114.08 657.63,113.67 C 656.9,113.18 656.14,112.74 655.36,112.33 C 651.47,111.03 647.56,109.78 643.64,108.59 C 641.94,107.69 640.16,106.97 638.32,106.42 C 637.35,106.27 636.38,106.1 635.42,105.9 C 632.06,104.78 628.71,103.61 625.38,102.41 C 622.85,101.7 620.29,101.13 617.68,100.7 C 616.55,100.29 615.43,99.86 614.33,99.4 C 609.01,98.3 603.72,97.12 598.44,95.85 C 597.51,95.73 596.57,95.66 595.62,95.65 C 594.54,95.12 593.42,94.69 592.27,94.36 C 581.68,92.46 571.04,90.78 560.33,89.33 C 552.33,88.6 544.33,87.92 536.34,87.29 C 532.91,87.14 529.47,87.04 526.03,87.02 C 525.9,86.7 525.67,86.5 525.34,86.42 C 516.79,85.71 508.25,85.7 499.7,86.41 C 499.37,86.5 499.13,86.7 498.97,87 Z M 493.94,191.04 C 494.35,191.07 494.65,191.26 494.84,191.63 C 495.04,192.23 495.13,192.85 495.09,193.48 C 495.03,213.1 495.07,232.71 495.21,252.31 C 495.51,252.76 495.94,252.98 496.49,252.96 C 503.81,252.98 511.12,253.11 518.44,253.35 C 521.46,253.16 524.49,253.05 527.52,253.02 C 528.08,253.03 528.53,252.81 528.84,252.35 C 529.02,232.4 529.08,212.45 529.03,192.49 C 528.98,191.92 529.19,191.47 529.66,191.15 C 530.45,191.01 531.24,191 532.04,191.1 C 536.76,191.83 541.52,192.31 546.29,192.53 C 556.41,194.03 566.5,195.64 576.58,197.37 C 638.64,211.12 691.92,240.71 736.41,286.13 C 764.55,315.39 786.57,348.7 802.47,386.05 C 808.9,401.35 814.19,417.03 818.35,433.1 C 820.07,440.76 821.73,448.44 823.34,456.13 C 824.12,461.9 824.95,467.66 825.82,473.42 C 826.22,479.97 826.93,486.48 827.94,492.96 C 827.97,493.65 827.99,494.34 828.03,495.03 C 810.52,495.01 793.01,494.99 775.5,494.98 C 774.53,494.98 773.58,495.12 772.65,495.38 C 772.11,495.96 771.87,496.66 771.94,497.48 C 771.93,506.82 771.93,516.16 771.92,525.5 C 771.45,527.72 772.3,528.87 774.49,528.97 C 792.4,529.01 810.31,528.98 828.22,528.86 C 828.11,530.59 827.98,532.31 827.83,534.04 C 826.71,546.26 825.14,558.41 823.12,570.52 C 821.63,577.19 820.16,583.86 818.7,590.54 C 810.96,620.3 799.07,648.29 783.01,674.52 C 750.96,725.88 707.91,765.21 653.85,792.5 C 636.7,800.79 619.04,807.77 600.86,813.45 C 591.82,815.98 582.71,818.22 573.52,820.16 C 560.58,822.86 547.52,824.67 534.34,825.61 C 532.76,825.79 531.2,825.67 529.68,825.24 C 529.19,824.05 528.95,822.8 528.98,821.5 C 529.07,804.88 529.03,788.25 528.86,771.63 C 528.54,771.16 528.1,770.94 527.52,770.97 C 516.9,770.92 506.28,770.98 495.66,771.16 C 495.23,771.5 495.04,771.95 495.08,772.5 C 495.09,777.66 495.07,782.81 495.04,787.97 C 494.98,798.82 494.98,809.66 495.06,820.51 C 495.05,821.63 494.9,822.73 494.62,823.81 C 494.51,824 494.41,824.18 494.3,824.37 C 493.44,824.95 492.48,825.27 491.44,825.32 C 489.12,825.44 486.81,825.38 484.5,825.12 C 475.84,823.68 467.18,822.3 458.5,821 C 454.46,820.21 450.43,819.4 446.4,818.59 C 420.19,812.89 395.07,804.06 371.06,792.1 C 314.07,763.3 269.46,721.33 237.24,666.21 C 225.81,645.84 216.58,624.52 209.56,602.24 C 206.75,592.79 204.52,583.21 202.88,573.49 C 201.13,560.44 199.24,547.42 197.21,534.41 C 196.96,533.1 197.08,531.83 197.57,530.61 C 198.86,530.28 200.16,530.07 201.49,530 C 218,530.03 234.51,530.06 251.02,530.08 C 251.44,530.03 251.73,529.82 251.9,529.43 C 252.07,528.8 252.14,528.16 252.09,527.52 C 252.08,517.5 252.07,507.49 252.07,497.48 C 252.12,496.66 251.87,495.97 251.32,495.41 C 233.7,495.14 216.07,495.04 198.44,495.13 C 197.84,495.15 197.38,494.91 197.04,494.43 C 197.07,492.93 197.01,491.43 196.85,489.93 C 198.16,476.8 199.67,463.71 201.37,450.65 C 201.84,449.79 202.23,448.91 202.56,447.99 C 203.74,441.52 205,435.08 206.34,428.65 C 209.23,418.55 212.5,408.55 216.14,398.65 C 218.87,391.8 221.66,384.96 224.51,378.14 C 227.66,371.64 230.9,365.19 234.25,358.78 C 251.19,328.04 272.47,300.67 298.11,276.67 C 301.19,274.09 304.2,271.41 307.12,268.64 C 311.94,264.8 316.74,260.93 321.52,257.04 C 330.15,250.54 339.03,244.39 348.15,238.6 C 355.9,233.91 363.77,229.45 371.76,225.22 C 376.43,223 381.06,220.72 385.65,218.37 C 392.2,215.82 398.75,213.27 405.29,210.7 C 406.09,210.25 406.9,209.78 407.69,209.29 C 412.52,207.82 417.3,206.22 422.03,204.48 C 424.43,203.69 426.87,203.04 429.36,202.54 C 430.15,202.22 430.9,201.82 431.62,201.35 C 438.96,199.6 446.33,197.93 453.73,196.37 C 456.11,196.39 458.42,196.04 460.67,195.31 C 463.72,195.11 466.77,194.94 469.81,194.81 C 471.65,194.81 473.48,194.76 475.32,194.66 C 477.37,194.22 479.44,193.94 481.55,193.82 C 482.14,193.78 482.62,193.53 482.98,193.06 C 484.4,192.75 485.84,192.62 487.3,192.65 C 488.46,192.34 489.59,191.93 490.69,191.42 C 491.77,191.29 492.86,191.16 493.94,191.04 Z M 460.97,462.11 C 458.14,465.79 455.52,469.64 453.14,473.66 C 448.75,480.96 444.44,488.31 440.21,495.71 C 430.48,513.95 420.67,532.14 410.78,550.28 C 399.99,569.19 389.23,588.13 378.5,607.08 C 372.1,619.23 365.52,631.29 358.78,643.27 C 349.7,658.25 340.88,673.39 332.32,688.67 C 332.01,689.72 331.62,690.74 331.15,691.72 C 330.95,692.22 331.08,692.62 331.51,692.9 C 332.51,692.76 333.44,692.4 334.29,691.83 C 349.08,682.58 363.89,673.37 378.73,664.2 C 403.84,649.3 429.02,634.5 454.28,619.83 C 468.21,611.41 482.19,603.07 496.23,594.81 C 497.4,594.06 498.54,593.25 499.63,592.38 C 509.12,586.87 518.58,581.31 528.01,575.7 C 534.87,572.26 541.64,568.63 548.31,564.8 C 550.98,563.16 553.63,561.49 556.27,559.78 C 556.94,559.34 557.51,558.8 558,558.15 C 559.34,557.29 560.49,556.21 561.44,554.92 C 565.97,548.6 569.99,541.96 573.5,535.01 C 610.77,471.6 648.17,408.27 685.68,345.01 C 688.92,339.35 692.11,333.66 695.26,327.95 C 696.12,326.14 695.6,325.59 693.7,326.28 C 688.56,328.67 683.52,331.27 678.59,334.06 C 631.14,361.69 583.61,389.17 535.99,416.5 C 517.41,427.25 498.75,437.86 480.01,448.34 C 475.08,451.1 470.3,454.09 465.68,457.32 C 463.73,458.56 462.16,460.15 460.97,462.11 Z M 539.85,542.25 C 537.59,544.08 535.2,545.72 532.67,547.18 C 530.24,548.39 527.78,549.54 525.3,550.62 C 524.28,550.83 523.31,551.15 522.37,551.58 C 519.71,551.82 517.08,552.25 514.49,552.88 C 512.82,552.95 511.14,552.95 509.46,552.89 C 505.27,552.32 501.13,551.48 497.05,550.39 C 494.33,549.2 491.66,547.89 489.03,546.46 C 487.02,545.17 485.07,543.8 483.18,542.33 C 479.36,538.79 476.08,534.8 473.34,530.37 C 472.93,528.25 472.2,526.25 471.14,524.37 C 470.86,522.74 470.5,521.13 470.09,519.52 C 469.67,517.2 469.54,514.86 469.72,512.51 C 470.12,508.13 471,503.84 472.37,499.66 C 473.92,496.64 475.54,493.65 477.23,490.71 C 478.97,488.56 480.59,486.32 482.1,484.01 C 488.84,477.95 496.66,474.05 505.55,472.32 C 516.28,471.04 526.08,473.5 534.95,479.71 C 544.04,486.47 549.65,495.41 551.8,506.52 C 552.2,511.03 552.11,515.53 551.53,520.01 C 549.56,528.43 545.67,535.84 539.85,542.25 Z"/></g>
</svg>
