<?xml version="1.0" encoding="UTF-8"?>
<!DOCTYPE svg PUBLIC "-//W3C//DTD SVG 1.1//EN" "http://www.w3.org/Graphics/SVG/1.1/DTD/svg11.dtd">
<svg xmlns="http://www.w3.org/2000/svg" version="1.1" width="1024px" height="1024px" style="shape-rendering:geometricPrecision; text-rendering:geometricPrecision; image-rendering:optimizeQuality; fill-rule:evenodd; clip-rule:evenodd" xmlns:xlink="http://www.w3.org/1999/xlink">
<g><path fill="#ffffff" fill-opacity="0.533" d="M 526.29,28.6 C 524.36,28.7 522.43,28.84 520.5,29.02 C 513.25,29.01 506,28.9 498.76,28.68 C 499.19,28.13 499.76,27.91 500.48,28.01 C 508.14,27.95 515.81,27.94 523.48,27.97 C 524.49,27.91 525.42,28.12 526.29,28.6 Z M 28.67,498.76 C 28.89,506 29.01,513.25 29.02,520.5 C 28.76,522.42 28.62,524.36 28.6,526.3 C 28.19,525.79 27.99,525.2 27.99,524.54 C 27.93,516.5 27.95,508.47 28.03,500.43 C 28.01,499.77 28.23,499.21 28.67,498.76 Z M 995.39,498.85 C 995.81,499.3 995.99,499.84 995.93,500.48 C 996.04,508.49 996.03,516.5 995.89,524.51 C 995.93,525.12 995.77,525.68 995.43,526.17 C 995.12,524.96 994.96,523.74 994.95,522.49 C 995.44,515.83 995.44,509.17 994.96,502.51 C 994.98,501.28 995.13,500.06 995.39,498.85 Z M 498.77,995.36 C 500.01,995.13 501.26,995 502.51,994.96 C 509.17,995.42 515.83,995.42 522.49,994.95 C 523.74,995 524.99,995.13 526.24,995.34 C 525.74,995.75 525.17,995.93 524.51,995.89 C 516.5,996.06 508.49,996.07 500.48,995.93 C 499.82,995.98 499.25,995.79 498.77,995.36 Z"/></g>
<g><path fill="#ffffff" stroke="#ffffff" stroke-width="0.5" d="M 498.76,28.68 C 506,28.9 513.25,29.01 520.5,29.02 C 522.43,28.84 524.36,28.7 526.29,28.6 C 605.48,31.23 679.7,51.83 748.94,90.43 C 835.85,140 901.61,209.56 946.2,299.13 C 976.97,362.18 993.36,428.75 995.39,498.85 C 995.13,500.06 994.98,501.28 994.96,502.51 C 995.44,509.17 995.44,515.83 994.95,522.49 C 994.96,523.74 995.12,524.96 995.43,526.17 C 992.79,605.41 972.18,679.66 933.57,748.94 C 883.58,836.54 813.35,902.63 722.86,947.19 C 660.72,977.18 595.18,993.23 526.24,995.34 C 524.99,995.13 523.74,995 522.49,994.95 C 515.83,995.42 509.17,995.42 502.51,994.96 C 501.26,995 500.01,995.13 498.77,995.36 C 493.35,995.17 487.92,994.98 482.5,994.78 C 472.15,994.04 461.82,993.07 451.52,991.86 C 398.22,985.01 347.43,969.79 299.13,946.2 C 216.14,904.99 150.04,845.12 100.85,766.6 C 55.64,692.83 31.56,612.73 28.6,526.3 C 28.62,524.36 28.76,522.42 29.02,520.5 C 29.01,513.25 28.89,506 28.67,498.76 C 29.39,467.3 33.25,436.23 40.25,405.56 C 61.25,314.92 104.43,236.5 169.8,170.3 C 229.73,110.75 300.33,69.42 381.6,46.31 C 404.58,39.93 427.88,35.2 451.52,32.14 C 461.79,30.94 472.08,29.97 482.39,29.22 C 487.85,29.01 493.3,28.83 498.76,28.68 Z M 498.96,87.01 C 496.45,86.95 493.95,87.02 491.45,87.22 C 480.89,88.47 470.31,89.51 459.72,90.34 C 452.73,91.37 445.73,92.36 438.73,93.3 C 430.38,95.07 422.02,96.77 413.64,98.38 C 412.66,98.83 411.65,99.23 410.63,99.59 C 401.94,101.72 393.27,103.97 384.63,106.35 C 376.41,109.55 368.09,112.54 359.67,115.3 C 358.86,115.7 358.09,116.16 357.34,116.67 C 353.3,118 349.33,119.5 345.42,121.18 C 336.79,125.16 328.19,129.24 319.63,133.41 C 311.32,137.96 303.09,142.64 294.94,147.45 C 261.14,168.22 230.71,193.12 203.63,222.16 C 198.57,227.77 193.58,233.44 188.64,239.16 C 183.84,245.03 179.15,250.99 174.58,257.02 C 170.16,262.99 165.83,269.02 161.6,275.1 C 158.42,279.94 155.29,284.82 152.23,289.73 C 144.71,302.11 137.72,314.79 131.26,327.76 C 128.66,333.42 126.03,339.05 123.37,344.65 C 120.03,353 116.69,361.32 113.33,369.63 C 110.98,376.63 108.69,383.64 106.43,390.66 C 104.82,396.96 103.06,403.22 101.15,409.42 C 100.89,410.7 100.71,412 100.6,413.3 C 100.24,414.12 99.82,414.91 99.33,415.66 C 99.3,416.61 99.22,417.57 99.1,418.52 C 98.54,421.18 97.9,423.82 97.18,426.44 C 96.9,428.06 96.73,429.68 96.68,431.32 C 96.28,432.03 95.99,432.78 95.81,433.57 C 95.73,436 95.26,438.37 94.39,440.66 C 93.49,447.15 92.52,453.64 91.49,460.12 C 90.92,464.92 90.46,469.73 90.11,474.55 C 89.94,475.55 89.7,476.53 89.41,477.49 C 89.32,482.63 89.14,487.77 88.88,492.91 C 88.41,494.39 88.18,495.92 88.19,497.5 C 87.87,507.5 87.85,517.5 88.13,527.5 C 88.03,528.49 88.26,529.36 88.82,530.12 C 89.2,539.93 89.72,549.73 90.37,559.52 C 90.71,560.49 90.98,561.47 91.17,562.48 C 91.28,564.46 91.36,566.44 91.42,568.42 C 91.64,569.49 91.94,570.54 92.3,571.57 C 92.99,576.5 93.68,581.42 94.39,586.33 C 95.3,589.42 96.05,592.54 96.64,595.7 C 96.93,599.3 97.5,602.86 98.36,606.35 C 98.94,608.85 99.7,611.29 100.64,613.67 C 100.72,614.96 100.89,616.25 101.14,617.53 C 101.93,620.48 102.68,623.44 103.4,626.41 C 104.57,629.69 105.58,633.01 106.41,636.39 C 106.81,637.13 107.2,637.88 107.58,638.63 C 107.68,639.91 107.94,641.15 108.35,642.36 C 110.12,647.32 111.78,652.31 113.32,657.34 C 115.9,663.25 118.26,669.25 120.4,675.34 C 124.53,684.77 128.86,694.12 133.39,703.4 C 136.84,710.08 140.45,716.69 144.21,723.23 C 162.01,753.93 183.28,782 208.02,807.45 C 212.2,811.62 216.39,815.77 220.6,819.9 C 226.34,825.15 232.18,830.3 238.11,835.35 C 243.12,839.33 248.1,843.36 253.06,847.43 C 258.22,851.3 263.45,855.1 268.73,858.8 C 281.13,867.31 293.9,875.22 307.03,882.55 C 312.98,885.48 318.87,888.52 324.7,891.66 C 330.37,894.35 336.03,897.02 341.7,899.68 C 344.25,900.57 346.8,901.45 349.35,902.33 C 353.5,904.07 357.62,905.85 361.7,907.66 C 365.54,909.07 369.44,910.29 373.38,911.33 C 374.11,911.77 374.85,912.19 375.6,912.61 C 380.22,913.75 384.81,915.02 389.37,916.42 C 390.14,916.81 390.91,917.22 391.67,917.64 C 400.49,919.94 409.32,922.21 418.15,924.46 C 429.72,926.35 441.21,928.41 452.64,930.65 C 457.29,930.91 461.91,931.41 466.51,932.14 C 471.62,932.58 476.74,932.9 481.86,933.11 C 482.34,933.5 482.9,933.69 483.53,933.69 C 500.52,934.12 517.51,934.24 534.5,934.05 C 536.49,933.98 538.48,933.86 540.47,933.7 C 541.09,933.69 541.61,933.48 542.05,933.07 C 549.9,932.7 557.73,932.07 565.54,931.21 C 566.11,931.29 566.68,931.38 567.24,931.48 C 569.3,930.92 571.37,930.45 573.48,930.06 C 575.41,929.81 577.34,929.66 579.28,929.62 C 580.73,929.11 582.19,928.68 583.69,928.33 C 587.99,927.75 592.26,926.97 596.49,925.98 C 597.78,925.74 599.09,925.63 600.41,925.64 C 601.14,925.15 601.91,924.73 602.72,924.39 C 607.5,923.66 612.24,922.69 616.92,921.49 C 617.64,921.2 618.35,920.89 619.05,920.54 C 625.2,919.1 631.31,917.48 637.37,915.68 C 647.75,912.12 658.09,908.43 668.37,904.59 C 671.5,903.26 674.59,901.83 677.64,900.31 C 678.55,900.12 679.46,899.91 680.36,899.69 C 686.18,896.85 692.04,894.1 697.95,891.44 C 703.75,888.53 709.54,885.58 715.32,882.58 C 715.77,882.2 716.22,881.81 716.67,881.41 C 723.01,878.15 729.2,874.61 735.25,870.8 C 740.2,867.77 745.07,864.63 749.87,861.37 C 760.39,853.96 770.73,846.3 780.89,838.39 C 785.91,834.08 790.93,829.77 795.94,825.44 C 800.88,820.7 805.87,816.02 810.9,811.41 C 819.55,802.7 827.88,793.7 835.92,784.42 C 843.87,774.94 851.49,765.21 858.78,755.22 C 866.94,743.55 874.6,731.57 881.77,719.27 C 884.46,714.48 887.01,709.62 889.41,704.7 C 889.82,704.24 890.22,703.76 890.59,703.27 C 893.51,696.89 896.55,690.56 899.68,684.29 C 901.27,680.42 902.81,676.54 904.31,672.65 C 905.81,669.58 907.25,666.49 908.63,663.36 C 909.31,661.46 909.9,659.53 910.41,657.57 C 910.81,656.84 911.23,656.12 911.65,655.4 C 912.93,651.52 914.16,647.62 915.32,643.7 C 915.66,642.86 916.08,642.07 916.59,641.31 C 917.56,637.76 918.51,634.21 919.42,630.66 C 920.31,628.6 921.04,626.49 921.63,624.34 C 922.45,621.47 923.05,618.56 923.43,615.59 C 923.86,614.85 924.25,614.09 924.61,613.31 C 926.17,605.64 927.83,597.99 929.59,590.36 C 930.67,583.43 931.73,576.49 932.76,569.55 C 932.92,568.75 933.2,568 933.61,567.29 C 933.36,563.94 933.74,560.67 934.74,557.49 C 934.68,555.82 934.67,554.14 934.71,552.46 C 934.9,551.69 935.19,550.97 935.58,550.28 C 935.43,549.69 935.29,549.11 935.17,548.51 C 935.55,544.33 935.91,540.13 936.25,535.92 C 936.56,535.53 936.71,535.07 936.69,534.56 C 937.22,520.53 937.22,506.49 936.68,492.46 C 936.73,491.88 936.55,491.4 936.11,491.04 C 935.8,487.5 935.63,483.96 935.6,480.42 C 935.37,479.76 935.18,479.1 935.03,478.43 C 934.94,474.07 934.52,469.75 933.76,465.46 C 933.66,463.79 933.62,462.13 933.65,460.46 C 933.31,459.48 933.02,458.48 932.78,457.47 C 931.75,450.53 930.71,443.58 929.65,436.62 C 929.25,435.16 928.82,433.71 928.36,432.27 C 927.74,428.75 927.17,425.22 926.63,421.68 C 926.1,419.17 925.35,416.72 924.37,414.35 C 923.58,411.79 923.06,409.17 922.83,406.47 C 921.88,402.71 920.74,399.01 919.4,395.38 C 919.21,394.12 918.99,392.87 918.72,391.63 C 916.04,383.62 913.35,375.61 910.64,367.61 C 907,358.62 903.33,349.64 899.64,340.66 C 896.16,333.58 892.68,326.51 889.21,319.43 C 885.05,311.63 880.73,303.92 876.25,296.31 C 869.92,286.06 863.3,276 856.38,266.14 C 849.24,256.35 841.76,246.83 833.94,237.58 C 828.23,230.97 822.37,224.49 816.38,218.13 C 798.01,199.26 778.19,182.08 756.91,166.61 C 747.45,159.94 737.79,153.59 727.92,147.57 C 721.43,143.68 714.88,139.91 708.26,136.25 C 698.29,131.04 688.18,126.13 677.93,121.5 C 673.07,119.41 668.19,117.37 663.29,115.41 C 657.68,113.22 652,111.14 646.27,109.17 C 645.4,108.92 644.52,108.74 643.62,108.62 C 642.86,108.2 642.09,107.77 641.33,107.34 C 631.05,104.08 620.69,101.08 610.27,98.35 C 605.4,97.38 600.54,96.45 595.67,95.58 C 594.56,95.14 593.43,94.74 592.29,94.4 C 581.7,92.49 571.07,90.82 560.4,89.38 C 555.41,89.1 550.45,88.64 545.5,88.01 C 539.01,87.48 532.52,87.15 526.02,87.01 C 525.66,86.46 525.15,86.21 524.48,86.26 C 516.21,85.7 507.94,85.76 499.68,86.44 C 499.36,86.53 499.12,86.72 498.96,87.01 Z M 493.95,191.08 C 494.35,191.09 494.65,191.27 494.84,191.63 C 495.04,192.23 495.13,192.85 495.09,193.48 C 495.02,213.11 495.07,232.74 495.25,252.36 C 495.54,252.81 495.96,253.01 496.5,252.97 C 503.17,252.96 509.84,253.09 516.5,253.35 C 520.17,253.19 523.84,253.08 527.51,253.02 C 528.08,253.03 528.53,252.81 528.84,252.35 C 529.02,232.4 529.08,212.45 529.03,192.49 C 528.98,191.92 529.19,191.47 529.66,191.15 C 530.44,191.01 531.23,190.99 532.03,191.08 C 536.74,191.81 541.48,192.29 546.25,192.52 C 556.37,194.07 566.49,195.68 576.59,197.36 C 634.46,210.06 684.87,236.83 727.82,277.65 C 766.09,314.59 793.81,358.21 810.99,408.54 C 816.17,423.89 820.25,439.52 823.24,455.45 C 823.96,461.1 824.77,466.74 825.68,472.37 C 826.12,479.27 826.88,486.13 827.95,492.96 C 827.99,493.67 828.04,494.38 828.09,495.1 C 810.56,495 793.03,494.97 775.5,494.99 C 774.53,494.96 773.57,495.08 772.64,495.35 C 772.13,495.96 771.89,496.67 771.94,497.48 C 771.93,506.82 771.93,516.16 771.92,525.5 C 771.45,527.72 772.3,528.87 774.49,528.97 C 792.38,528.98 810.28,528.98 828.18,528.98 C 828.11,530.66 827.99,532.35 827.82,534.03 C 826.72,546.26 825.16,558.44 823.14,570.55 C 821.63,577.23 820.13,583.91 818.66,590.6 C 810.47,622.02 797.7,651.44 780.34,678.88 C 746.05,731.59 700.36,771.16 643.28,797.57 C 629.42,803.63 615.28,808.92 600.86,813.46 C 591.5,816.01 582.09,818.31 572.61,820.36 C 560,822.92 547.27,824.67 534.44,825.6 C 532.82,825.79 531.23,825.67 529.67,825.24 C 529.12,823.71 528.88,822.14 528.96,820.5 C 529.07,804.21 529.04,787.92 528.86,771.63 C 528.54,771.16 528.1,770.94 527.52,770.98 C 516.9,770.93 506.28,770.98 495.66,771.13 C 495.23,771.48 495.04,771.93 495.08,772.49 C 495.09,777.65 495.07,782.81 495.04,787.97 C 494.97,798.82 494.98,809.66 495.07,820.51 C 495.06,821.63 494.92,822.73 494.63,823.8 C 494.52,824 494.41,824.19 494.31,824.38 C 493.45,824.97 492.5,825.3 491.45,825.37 C 489.13,825.48 486.83,825.38 484.53,825.07 C 475.19,823.51 465.83,822.05 456.46,820.67 C 445.11,818.4 433.86,815.73 422.71,812.65 C 416.55,810.49 410.36,808.42 404.14,806.44 C 370.46,793.93 339.65,776.38 311.7,753.8 C 265.27,715.64 232.22,668.16 212.57,611.36 C 211.76,608.27 210.76,605.24 209.54,602.28 C 208.13,596.7 206.67,591.13 205.16,585.57 C 204.2,581.21 203.39,576.83 202.74,572.41 C 201.12,559.71 199.27,547.04 197.2,534.4 C 196.96,533.09 197.08,531.83 197.57,530.61 C 199.18,530.18 200.83,529.98 202.5,530 C 218.68,530 234.87,530.06 251.06,530.19 C 251.95,529.55 252.29,528.66 252.09,527.51 C 252.08,517.5 252.07,507.49 252.07,497.48 C 252.12,496.66 251.88,495.97 251.33,495.4 C 233.72,495.17 216.11,495.07 198.49,495.1 C 197.88,495.13 197.4,494.91 197.04,494.43 C 197.09,492.94 197.02,491.45 196.83,489.97 C 197.42,485.5 198.02,481.03 198.61,476.58 C 198.89,470.14 199.47,463.75 200.36,457.38 C 201.17,455.23 201.5,453 201.36,450.7 C 201.92,449.61 202.34,448.48 202.64,447.31 C 203.6,442.44 204.52,437.56 205.42,432.67 C 206.55,429.05 207.52,425.39 208.34,421.67 C 210.06,416.46 211.77,411.24 213.47,406 C 216.07,398.7 218.86,391.47 221.83,384.32 C 225.87,375.77 230.01,367.25 234.25,358.77 C 238.06,351.98 242.03,345.28 246.16,338.67 C 272.21,298.66 305.38,265.82 345.67,240.14 C 354.84,234.5 364.2,229.18 373.74,224.19 C 377.76,222.34 381.72,220.39 385.62,218.35 C 392.97,215.35 400.33,212.37 407.7,209.41 C 413.97,207.34 420.22,205.23 426.45,203.08 C 427.43,202.88 428.43,202.74 429.43,202.67 C 430.16,202.22 430.91,201.81 431.67,201.43 C 438.97,199.61 446.31,197.93 453.68,196.37 C 459.03,195.53 464.41,195 469.82,194.78 C 473.75,194.75 477.67,194.43 481.56,193.81 C 482.19,193.8 482.66,193.54 482.98,193.02 C 484.42,192.74 485.87,192.61 487.34,192.66 C 488.49,192.3 489.61,191.87 490.7,191.37 C 491.79,191.28 492.87,191.18 493.95,191.08 Z M 460.83,461.81 C 457.47,466.69 454.25,471.65 451.17,476.71 C 439.35,497.08 428.04,517.71 417.24,538.62 C 404.65,561.05 391.99,583.43 379.26,605.77 C 377.11,609.92 374.85,614.02 372.5,618.06 C 372.15,618.82 371.86,619.61 371.63,620.41 C 358.81,643.07 345.82,665.63 332.66,688.09 C 332.2,689.32 331.7,690.54 331.17,691.75 C 330.98,692.24 331.09,692.61 331.52,692.89 C 332.04,692.92 332.51,692.8 332.95,692.52 C 334.84,691.39 336.74,690.28 338.65,689.18 C 351.98,680.79 365.35,672.47 378.76,664.21 C 389.23,658.03 399.71,651.89 410.21,645.78 C 411.4,644.99 412.55,644.16 413.67,643.29 C 427.24,635.52 440.78,627.71 454.29,619.84 C 477.42,605.95 500.56,592.07 523.71,578.19 C 530.16,574.59 536.68,571.11 543.28,567.75 C 548.38,564.74 553.37,561.56 558.25,558.22 C 559.56,557.06 560.76,555.79 561.85,554.41 C 566.19,548.22 570.07,541.75 573.5,535.01 C 610.77,471.61 648.17,408.27 685.68,345.01 C 688.92,339.35 692.11,333.67 695.26,327.95 C 696.12,326.14 695.6,325.58 693.7,326.28 C 688.56,328.67 683.52,331.26 678.59,334.06 C 631.14,361.69 583.61,389.16 535.99,416.49 C 517.4,427.24 498.74,437.86 480.01,448.34 C 475.56,450.83 471.23,453.5 467.02,456.37 C 464.67,457.85 462.61,459.67 460.83,461.81 Z M 539.93,541.93 C 537.87,543.78 535.65,545.42 533.27,546.84 C 530.69,548.29 528.04,549.55 525.3,550.62 C 524.05,550.91 522.83,551.3 521.64,551.77 C 519.21,551.86 516.82,552.24 514.48,552.89 C 512.81,552.95 511.14,552.95 509.47,552.9 C 505.27,552.29 501.13,551.46 497.03,550.41 C 493.42,548.84 489.94,546.99 486.59,544.88 C 484.42,543.44 482.41,541.79 480.58,539.93 C 478.81,538 477.14,535.99 475.57,533.9 C 475.03,532.6 474.29,531.42 473.36,530.36 C 472.68,528 471.86,525.7 470.9,523.44 C 470.46,521.46 470.09,519.48 469.78,517.47 C 469.55,514.16 469.7,510.87 470.23,507.59 C 470.84,504.9 471.56,502.25 472.38,499.63 C 474.07,496.42 475.81,493.24 477.6,490.09 C 479.11,488.1 480.65,486.14 482.23,484.22 C 488.83,477.96 496.6,473.99 505.55,472.32 C 516,471.07 525.59,473.39 534.33,479.29 C 543.51,485.85 549.28,494.65 551.65,505.68 C 552.15,510.23 552.15,514.78 551.68,519.33 C 549.84,527.95 545.92,535.48 539.93,541.93 Z"/></g>
<g><path fill="#f2a89d" d="M 481.86,933.11 C 482.73,932.89 483.62,932.77 484.52,932.75 C 500.17,933.3 515.83,933.49 531.5,933.31 C 535.01,932.82 538.53,932.74 542.05,933.07 C 541.61,933.48 541.09,933.69 540.47,933.7 C 538.48,933.86 536.49,933.98 534.5,934.05 C 517.51,934.24 500.52,934.12 483.53,933.69 C 482.9,933.69 482.34,933.5 481.86,933.11 Z"/></g>
<g><path fill="#f19da3" d="M 495.04,787.97 C 495.45,787.97 495.74,788.17 495.9,788.56 C 496.02,798.54 496.07,808.52 496.04,818.5 C 496,820.1 495.83,821.69 495.55,823.26 C 495.34,823.62 495.03,823.8 494.63,823.8 C 494.92,822.73 495.06,821.63 495.07,820.51 C 494.98,809.66 494.97,798.82 495.04,787.97 Z"/></g>
<g><path fill="#f5b5d2" d="M 828.09,495.1 C 827.8,495.76 827.28,496.07 826.53,496.02 C 808.89,495.98 791.25,496.02 773.62,496.13 C 773.14,496.44 772.91,496.89 772.93,497.47 C 772.89,507.46 772.94,517.44 773.07,527.42 C 773.42,527.87 773.89,528.07 774.47,528 C 792.13,527.92 809.79,527.95 827.45,528.09 C 827.86,528.25 828.1,528.55 828.18,528.98 C 810.28,528.98 792.38,528.98 774.49,528.97 C 772.3,528.87 771.45,527.72 771.92,525.5 C 771.93,516.16 771.93,506.82 771.94,497.48 C 771.89,496.67 772.13,495.96 772.64,495.35 C 773.57,495.08 774.53,494.96 775.5,494.99 C 793.03,494.97 810.56,495 828.09,495.1 Z"/></g>
<g><path fill="#f3abab" d="M 88.88,492.91 C 89.19,493.72 89.33,494.57 89.3,495.45 C 89.16,499.84 88.91,504.22 88.57,508.59 C 88.48,514.92 88.69,521.24 89.2,527.55 C 89.25,528.43 89.12,529.29 88.82,530.12 C 88.26,529.36 88.03,528.49 88.13,527.5 C 87.85,517.5 87.87,507.5 88.19,497.5 C 88.18,495.92 88.41,494.39 88.88,492.91 Z"/></g>
<g><path fill="#f6bcd1" d="M 936.11,491.04 C 936.55,491.4 936.73,491.88 936.68,492.46 C 937.22,506.49 937.22,520.53 936.69,534.56 C 936.71,535.07 936.56,535.53 936.25,535.92 C 935.97,535.15 935.83,534.34 935.85,533.51 C 936.28,519.35 936.37,505.19 936.11,491.04 Z"/></g>
<g><path fill="#f4b1cc" d="M 196.83,489.97 C 197.02,491.45 197.09,492.94 197.04,494.43 C 197.4,494.91 197.88,495.13 198.49,495.1 C 216.11,495.07 233.72,495.17 251.33,495.4 C 251.88,495.97 252.12,496.66 252.07,497.48 C 252.07,507.49 252.08,517.5 252.09,527.51 C 252.29,528.66 251.95,529.55 251.06,530.19 C 251.27,519.63 251.34,509.07 251.24,498.5 C 251.35,497.55 251.07,496.75 250.4,496.11 C 232.27,496.04 214.14,496.03 196,496.09 C 195.9,494.51 195.98,492.94 196.24,491.39 C 196.25,490.83 196.45,490.36 196.83,489.97 Z"/></g>
<g><path fill="#f7c5d5" d="M 482.98,193.02 C 482.66,193.54 482.19,193.8 481.56,193.81 C 477.67,194.43 473.75,194.75 469.82,194.78 C 470.22,194.23 470.77,193.95 471.47,193.95 C 475.29,193.44 479.13,193.13 482.98,193.02 Z"/></g>
<g><path fill="#ef9c6e" stroke="#ef9c6e" stroke-width="0.5" d="M 532.03,191.08 C 531.23,190.99 530.44,191.01 529.66,191.15 C 529.19,191.47 528.98,191.92 529.03,192.49 C 529.08,212.45 529.02,232.4 528.84,252.35 C 528.53,252.81 528.08,253.03 527.51,253.02 C 523.84,253.08 520.17,253.19 516.5,253.35 C 509.84,253.09 503.17,252.96 496.5,252.97 C 495.96,253.01 495.54,252.81 495.25,252.36 C 495.07,232.74 495.02,213.11 495.09,193.48 C 495.13,192.85 495.04,192.23 494.84,191.63 C 494.65,191.27 494.35,191.09 493.95,191.08 C 494.19,190.35 494.7,190.01 495.48,190.04 C 496.67,190.22 497.86,190.36 499.06,190.49 C 501.55,190.35 504.02,190.18 506.5,189.96 C 509.49,190.28 512.49,190.49 515.5,190.58 C 520.5,190.32 525.49,190.14 530.5,190.04 C 531.22,190.09 531.73,190.44 532.03,191.08 Z M 827.95,492.96 C 828.8,493.57 829.18,494.41 829.11,495.48 C 829.15,504.15 829.12,512.83 829.01,521.5 C 828.94,522.84 828.81,524.17 828.63,525.5 C 828.8,526.86 829.01,528.21 829.24,529.56 C 829.15,530.83 828.97,532.08 828.7,533.32 C 828.52,533.69 828.22,533.93 827.82,534.03 C 827.99,532.35 828.11,530.66 828.18,528.98 C 828.1,528.55 827.86,528.25 827.45,528.09 C 809.79,527.95 792.13,527.92 774.47,528 C 773.89,528.07 773.42,527.87 773.07,527.42 C 772.94,517.44 772.89,507.46 772.93,497.47 C 772.91,496.89 773.14,496.44 773.62,496.13 C 791.25,496.02 808.89,495.98 826.53,496.02 C 827.28,496.07 827.8,495.76 828.09,495.1 C 828.04,494.38 827.99,493.67 827.95,492.96 Z M 196,496.09 C 214.14,496.03 232.27,496.04 250.4,496.11 C 251.07,496.75 251.35,497.55 251.24,498.5 C 251.34,509.07 251.27,519.63 251.06,530.19 C 234.87,530.06 218.68,530 202.5,530 C 200.83,529.98 199.18,530.18 197.57,530.61 C 196.99,530.34 196.54,529.93 196.2,529.38 C 195.81,528.1 195.48,526.8 195.22,525.49 C 195.64,521.82 195.6,518.15 195.12,514.49 C 195.48,512.85 195.77,511.18 195.98,509.51 C 196.05,505.04 196.05,500.56 196,496.09 Z M 529.67,825.24 C 529.01,825.58 528.32,825.82 527.59,825.97 C 525.86,826.06 524.14,826.25 522.43,826.53 C 520.46,826.53 518.48,826.45 516.5,826.3 C 512.85,826.78 509.18,826.93 505.5,826.76 C 502.54,826.54 499.58,826.25 496.63,825.88 C 495.78,825.51 495,825.01 494.31,824.38 C 494.41,824.19 494.52,824 494.63,823.8 C 495.03,823.8 495.34,823.62 495.55,823.26 C 495.83,821.69 496,820.1 496.04,818.5 C 496.07,808.52 496.02,798.54 495.9,788.56 C 495.74,788.17 495.45,787.97 495.04,787.97 C 495.07,782.81 495.09,777.65 495.08,772.49 C 495.04,771.93 495.23,771.48 495.66,771.13 C 506.28,770.98 516.9,770.93 527.52,770.98 C 528.1,770.94 528.54,771.16 528.86,771.63 C 529.04,787.92 529.07,804.21 528.96,820.5 C 528.88,822.14 529.12,823.71 529.67,825.24 Z"/></g>
<g><path fill="#f9cee6" d="M 526.02,87.01 C 517,86.95 507.98,86.94 498.96,87.01 C 499.12,86.72 499.36,86.53 499.68,86.44 C 507.94,85.76 516.21,85.7 524.48,86.26 C 525.15,86.21 525.66,86.46 526.02,87.01 Z"/></g>
<g><path fill="#f1ab66" stroke="#f1ab66" stroke-width="0.5" d="M 498.96,87.01 C 507.98,86.94 517,86.95 526.02,87.01 C 532.52,87.15 539.01,87.48 545.5,88.01 C 550.45,88.64 555.41,89.1 560.4,89.38 C 571.07,90.82 581.7,92.49 592.29,94.4 C 593.43,94.74 594.56,95.14 595.67,95.58 C 600.54,96.45 605.4,97.38 610.27,98.35 C 620.69,101.08 631.05,104.08 641.33,107.34 C 642.09,107.77 642.86,108.2 643.62,108.62 C 644.52,108.74 645.4,108.92 646.27,109.17 C 652,111.14 657.68,113.22 663.29,115.41 C 668.19,117.37 673.07,119.41 677.93,121.5 C 688.18,126.13 698.29,131.04 708.26,136.25 C 714.88,139.91 721.43,143.68 727.92,147.57 C 737.79,153.59 747.45,159.94 756.91,166.61 C 778.19,182.08 798.01,199.26 816.38,218.13 C 822.37,224.49 828.23,230.97 833.94,237.58 C 841.76,246.83 849.24,256.35 856.38,266.14 C 863.3,276 869.92,286.06 876.25,296.31 C 880.73,303.92 885.05,311.63 889.21,319.43 C 892.68,326.51 896.16,333.58 899.64,340.66 C 903.33,349.64 907,358.62 910.64,367.61 C 913.35,375.61 916.04,383.62 918.72,391.63 C 918.99,392.87 919.21,394.12 919.4,395.38 C 920.74,399.01 921.88,402.71 922.83,406.47 C 923.06,409.17 923.58,411.79 924.37,414.35 C 925.35,416.72 926.1,419.17 926.63,421.68 C 927.17,425.22 927.74,428.75 928.36,432.27 C 928.82,433.71 929.25,435.16 929.65,436.62 C 930.71,443.58 931.75,450.53 932.78,457.47 C 933.02,458.48 933.31,459.48 933.65,460.46 C 933.62,462.13 933.66,463.79 933.76,465.46 C 934.52,469.75 934.94,474.07 935.03,478.43 C 935.18,479.1 935.37,479.76 935.6,480.42 C 935.63,483.96 935.8,487.5 936.11,491.04 C 936.37,505.19 936.28,519.35 935.85,533.51 C 935.83,534.34 935.97,535.15 936.25,535.92 C 935.91,540.13 935.55,544.33 935.17,548.51 C 935.29,549.11 935.43,549.69 935.58,550.28 C 935.19,550.97 934.9,551.69 934.71,552.46 C 934.67,554.14 934.68,555.82 934.74,557.49 C 933.74,560.67 933.36,563.94 933.61,567.29 C 933.2,568 932.92,568.75 932.76,569.55 C 931.73,576.49 930.67,583.43 929.59,590.36 C 927.83,597.99 926.17,605.64 924.61,613.31 C 924.25,614.09 923.86,614.85 923.43,615.59 C 923.05,618.56 922.45,621.47 921.63,624.34 C 921.04,626.49 920.31,628.6 919.42,630.66 C 918.51,634.21 917.56,637.76 916.59,641.31 C 916.08,642.07 915.66,642.86 915.32,643.7 C 914.16,647.62 912.93,651.52 911.65,655.4 C 911.23,656.12 910.81,656.84 910.41,657.57 C 909.9,659.53 909.31,661.46 908.63,663.36 C 907.25,666.49 905.81,669.58 904.31,672.65 C 902.81,676.54 901.27,680.42 899.68,684.29 C 896.55,690.56 893.51,696.89 890.59,703.27 C 890.22,703.76 889.82,704.24 889.41,704.7 C 887.01,709.62 884.46,714.48 881.77,719.27 C 874.6,731.57 866.94,743.55 858.78,755.22 C 851.49,765.21 843.87,774.94 835.92,784.42 C 827.88,793.7 819.55,802.7 810.9,811.41 C 805.87,816.02 800.88,820.7 795.94,825.44 C 790.93,829.77 785.91,834.08 780.89,838.39 C 770.73,846.3 760.39,853.96 749.87,861.37 C 745.07,864.63 740.2,867.77 735.25,870.8 C 729.2,874.61 723.01,878.15 716.67,881.41 C 716.22,881.81 715.77,882.2 715.32,882.58 C 709.54,885.58 703.75,888.53 697.95,891.44 C 692.04,894.1 686.18,896.85 680.36,899.69 C 679.46,899.91 678.55,900.12 677.64,900.31 C 674.59,901.83 671.5,903.26 668.37,904.59 C 658.09,908.43 647.75,912.12 637.37,915.68 C 631.31,917.48 625.2,919.1 619.05,920.54 C 618.35,920.89 617.64,921.2 616.92,921.49 C 612.24,922.69 607.5,923.66 602.72,924.39 C 601.91,924.73 601.14,925.15 600.41,925.64 C 599.09,925.63 597.78,925.74 596.49,925.98 C 592.26,926.97 587.99,927.75 583.69,928.33 C 582.19,928.68 580.73,929.11 579.28,929.62 C 577.34,929.66 575.41,929.81 573.48,930.06 C 571.37,930.45 569.3,930.92 567.24,931.48 C 566.68,931.38 566.11,931.29 565.54,931.21 C 557.73,932.07 549.9,932.7 542.05,933.07 C 538.53,932.74 535.01,932.82 531.5,933.31 C 515.83,933.49 500.17,933.3 484.52,932.75 C 483.62,932.77 482.73,932.89 481.86,933.11 C 476.74,932.9 471.62,932.58 466.51,932.14 C 461.91,931.41 457.29,930.91 452.64,930.65 C 441.21,928.41 429.72,926.35 418.15,924.46 C 409.32,922.21 400.49,919.94 391.67,917.64 C 390.91,917.22 390.14,916.81 389.37,916.42 C 384.81,915.02 380.22,913.75 375.6,912.61 C 374.85,912.19 374.11,911.77 373.38,911.33 C 369.44,910.29 365.54,909.07 361.7,907.66 C 357.62,905.85 353.5,904.07 349.35,902.33 C 346.8,901.45 344.25,900.57 341.7,899.68 C 336.03,897.02 330.37,894.35 324.7,891.66 C 318.87,888.52 312.98,885.48 307.03,882.55 C 293.9,875.22 281.13,867.31 268.73,858.8 C 263.45,855.1 258.22,851.3 253.06,847.43 C 248.1,843.36 243.12,839.33 238.11,835.35 C 232.18,830.3 226.34,825.15 220.6,819.9 C 216.39,815.77 212.2,811.62 208.02,807.45 C 183.28,782 162.01,753.93 144.21,723.23 C 140.45,716.69 136.84,710.08 133.39,703.4 C 128.86,694.12 124.53,684.77 120.4,675.34 C 118.26,669.25 115.9,663.25 113.32,657.34 C 111.78,652.31 110.12,647.32 108.35,642.36 C 107.94,641.15 107.68,639.91 107.58,638.63 C 107.2,637.88 106.81,637.13 106.41,636.39 C 105.58,633.01 104.57,629.69 103.4,626.41 C 102.68,623.44 101.93,620.48 101.14,617.53 C 100.89,616.25 100.72,614.96 100.64,613.67 C 99.7,611.29 98.94,608.85 98.36,606.35 C 97.5,602.86 96.93,599.3 96.64,595.7 C 96.05,592.54 95.3,589.42 94.39,586.33 C 93.68,581.42 92.99,576.5 92.3,571.57 C 91.94,570.54 91.64,569.49 91.42,568.42 C 91.36,566.44 91.28,564.46 91.17,562.48 C 90.98,561.47 90.71,560.49 90.37,559.52 C 89.72,549.73 89.2,539.93 88.82,530.12 C 89.12,529.29 89.25,528.43 89.2,527.55 C 88.69,521.24 88.48,514.92 88.57,508.59 C 88.91,504.22 89.16,499.84 89.3,495.45 C 89.33,494.57 89.19,493.72 88.88,492.91 C 89.14,487.77 89.32,482.63 89.41,477.49 C 89.7,476.53 89.94,475.55 90.11,474.55 C 90.46,469.73 90.92,464.92 91.49,460.12 C 92.52,453.64 93.49,447.15 94.39,440.66 C 95.26,438.37 95.73,436 95.81,433.57 C 95.99,432.78 96.28,432.03 96.68,431.32 C 96.73,429.68 96.9,428.06 97.18,426.44 C 97.9,423.82 98.54,421.18 99.1,418.52 C 99.22,417.57 99.3,416.61 99.33,415.66 C 99.82,414.91 100.24,414.12 100.6,413.3 C 100.71,412 100.89,410.7 101.15,409.42 C 103.06,403.22 104.82,396.96 106.43,390.66 C 108.69,383.64 110.98,376.63 113.33,369.63 C 116.69,361.32 120.03,353 123.37,344.65 C 126.03,339.05 128.66,333.42 131.26,327.76 C 137.72,314.79 144.71,302.11 152.23,289.73 C 155.29,284.82 158.42,279.94 161.6,275.1 C 165.83,269.02 170.16,262.99 174.58,257.02 C 179.15,250.99 183.84,245.03 188.64,239.16 C 193.58,233.44 198.57,227.77 203.63,222.16 C 230.71,193.12 261.14,168.22 294.94,147.45 C 303.09,142.64 311.32,137.96 319.63,133.41 C 328.19,129.24 336.79,125.16 345.42,121.18 C 349.33,119.5 353.3,118 357.34,116.67 C 358.09,116.16 358.86,115.7 359.67,115.3 C 368.09,112.54 376.41,109.55 384.63,106.35 C 393.27,103.97 401.94,101.72 410.63,99.59 C 411.65,99.23 412.66,98.83 413.64,98.38 C 422.02,96.77 430.38,95.07 438.73,93.3 C 445.73,92.36 452.73,91.37 459.72,90.34 C 470.31,89.51 480.89,88.47 491.45,87.22 C 493.95,87.02 496.45,86.95 498.96,87.01 Z M 493.95,191.08 C 492.87,191.18 491.79,191.28 490.7,191.37 C 489.61,191.87 488.49,192.3 487.34,192.66 C 485.87,192.61 484.42,192.74 482.98,193.02 C 479.13,193.13 475.29,193.44 471.47,193.95 C 470.77,193.95 470.22,194.23 469.82,194.78 C 464.41,195 459.03,195.53 453.68,196.37 C 446.31,197.93 438.97,199.61 431.67,201.43 C 430.91,201.81 430.16,202.22 429.43,202.67 C 428.43,202.74 427.43,202.88 426.45,203.08 C 420.22,205.23 413.97,207.34 407.7,209.41 C 400.33,212.37 392.97,215.35 385.62,218.35 C 381.72,220.39 377.76,222.34 373.74,224.19 C 364.2,229.18 354.84,234.5 345.67,240.14 C 305.38,265.82 272.21,298.66 246.16,338.67 C 242.03,345.28 238.06,351.98 234.25,358.77 C 230.01,367.25 225.87,375.77 221.83,384.32 C 218.86,391.47 216.07,398.7 213.47,406 C 211.77,411.24 210.06,416.46 208.34,421.67 C 207.52,425.39 206.55,429.05 205.42,432.67 C 204.52,437.56 203.6,442.44 202.64,447.31 C 202.34,448.48 201.92,449.61 201.36,450.7 C 201.5,453 201.17,455.23 200.36,457.38 C 199.47,463.75 198.89,470.14 198.61,476.58 C 198.02,481.03 197.42,485.5 196.83,489.97 C 196.45,490.36 196.25,490.83 196.24,491.39 C 195.98,492.94 195.9,494.51 196,496.09 C 196.05,500.56 196.05,505.04 195.98,509.51 C 195.77,511.18 195.48,512.85 195.12,514.49 C 195.6,518.15 195.64,521.82 195.22,525.49 C 195.48,526.8 195.81,528.1 196.2,529.38 C 196.54,529.93 196.99,530.34 197.57,530.61 C 197.08,531.83 196.96,533.09 197.2,534.4 C 199.27,547.04 201.12,559.71 202.74,572.41 C 203.39,576.83 204.2,581.21 205.16,585.57 C 206.67,591.13 208.13,596.7 209.54,602.28 C 210.76,605.24 211.76,608.27 212.57,611.36 C 232.22,668.16 265.27,715.64 311.7,753.8 C 339.65,776.38 370.46,793.93 404.14,806.44 C 410.36,808.42 416.55,810.49 422.71,812.65 C 433.86,815.73 445.11,818.4 456.46,820.67 C 465.83,822.05 475.19,823.51 484.53,825.07 C 486.83,825.38 489.13,825.48 491.45,825.37 C 492.5,825.3 493.45,824.97 494.31,824.38 C 495,825.01 495.78,825.51 496.63,825.88 C 499.58,826.25 502.54,826.54 505.5,826.76 C 509.18,826.93 512.85,826.78 516.5,826.3 C 518.48,826.45 520.46,826.53 522.43,826.53 C 524.14,826.25 525.86,826.06 527.59,825.97 C 528.32,825.82 529.01,825.58 529.67,825.24 C 531.23,825.67 532.82,825.79 534.44,825.6 C 547.27,824.67 560,822.92 572.61,820.36 C 582.09,818.31 591.5,816.01 600.86,813.46 C 615.28,808.92 629.42,803.63 643.28,797.57 C 700.36,771.16 746.05,731.59 780.34,678.88 C 797.7,651.44 810.47,622.02 818.66,590.6 C 820.13,583.91 821.63,577.23 823.14,570.55 C 825.16,558.44 826.72,546.26 827.82,534.03 C 828.22,533.93 828.52,533.69 828.7,533.32 C 828.97,532.08 829.15,530.83 829.24,529.56 C 829.01,528.21 828.8,526.86 828.63,525.5 C 828.81,524.17 828.94,522.84 829.01,521.5 C 829.12,512.83 829.15,504.15 829.11,495.48 C 829.18,494.41 828.8,493.57 827.95,492.96 C 826.88,486.13 826.12,479.27 825.68,472.37 C 824.77,466.74 823.96,461.1 823.24,455.45 C 820.25,439.52 816.17,423.89 810.99,408.54 C 793.81,358.21 766.09,314.59 727.82,277.65 C 684.87,236.83 634.46,210.06 576.59,197.36 C 566.49,195.68 556.37,194.07 546.25,192.52 C 541.48,192.29 536.74,191.81 532.03,191.08 C 531.73,190.44 531.22,190.09 530.5,190.04 C 525.49,190.14 520.5,190.32 515.5,190.58 C 512.49,190.49 509.49,190.28 506.5,189.96 C 504.02,190.18 501.55,190.35 499.06,190.49 C 497.86,190.36 496.67,190.22 495.48,190.04 C 494.7,190.01 494.19,190.35 493.95,191.08 Z M 460.83,461.81 C 461.64,461.85 462.37,462.09 463.04,462.54 C 468.88,468.99 474.93,475.24 481.2,481.29 C 482.01,482.09 482.36,483.07 482.23,484.22 C 480.65,486.14 479.11,488.1 477.6,490.09 C 475.81,493.24 474.07,496.42 472.38,499.63 C 471.56,502.25 470.84,504.9 470.23,507.59 C 469.7,510.87 469.55,514.16 469.78,517.47 C 470.09,519.48 470.46,521.46 470.9,523.44 C 471.86,525.7 472.68,528 473.36,530.36 C 474.29,531.42 475.03,532.6 475.57,533.9 C 477.14,535.99 478.81,538 480.58,539.93 C 482.41,541.79 484.42,543.44 486.59,544.88 C 489.94,546.99 493.42,548.84 497.03,550.41 C 501.13,551.46 505.27,552.29 509.47,552.9 C 511.14,552.95 512.81,552.95 514.48,552.89 C 516.82,552.24 519.21,551.86 521.64,551.77 C 522.83,551.3 524.05,550.91 525.3,550.62 C 528.04,549.55 530.69,548.29 533.27,546.84 C 535.65,545.42 537.87,543.78 539.93,541.93 C 541.05,541.8 542.07,542.03 543.01,542.62 C 548.14,546.72 552.94,551.17 557.4,555.99 C 557.85,556.67 558.13,557.41 558.25,558.22 C 553.37,561.56 548.38,564.74 543.28,567.75 C 536.68,571.11 530.16,574.59 523.71,578.19 C 500.56,592.07 477.42,605.95 454.29,619.84 C 440.78,627.71 427.24,635.52 413.67,643.29 C 412.55,644.16 411.4,644.99 410.21,645.78 C 399.71,651.89 389.23,658.03 378.76,664.21 C 365.35,672.47 351.98,680.79 338.65,689.18 C 336.74,690.28 334.84,691.39 332.95,692.52 C 332.51,692.8 332.04,692.92 331.52,692.89 C 331.09,692.61 330.98,692.24 331.17,691.75 C 331.7,690.54 332.2,689.32 332.66,688.09 C 345.82,665.63 358.81,643.07 371.63,620.41 C 371.86,619.61 372.15,618.82 372.5,618.06 C 374.85,614.02 377.11,609.92 379.26,605.77 C 391.99,583.43 404.65,561.05 417.24,538.62 C 428.04,517.71 439.35,497.08 451.17,476.71 C 454.25,471.65 457.47,466.69 460.83,461.81 Z"/></g>
<g><path fill="#ed7f7e" stroke="#ed7f7e" stroke-width="0.5" d="M 558.25,558.22 C 558.13,557.41 557.85,556.67 557.4,555.99 C 552.94,551.17 548.14,546.72 543.01,542.62 C 542.07,542.03 541.05,541.8 539.93,541.93 C 545.92,535.48 549.84,527.95 551.68,519.33 C 552.15,514.78 552.15,510.23 551.65,505.68 C 549.28,494.65 543.51,485.85 534.33,479.29 C 525.59,473.39 516,471.07 505.55,472.32 C 496.6,473.99 488.83,477.96 482.23,484.22 C 482.36,483.07 482.01,482.09 481.2,481.29 C 474.93,475.24 468.88,468.99 463.04,462.54 C 462.37,462.09 461.64,461.85 460.83,461.81 C 462.61,459.67 464.67,457.85 467.02,456.37 C 471.23,453.5 475.56,450.83 480.01,448.34 C 498.74,437.86 517.4,427.24 535.99,416.49 C 583.61,389.16 631.14,361.69 678.59,334.06 C 683.52,331.26 688.56,328.67 693.7,326.28 C 695.6,325.58 696.12,326.14 695.26,327.95 C 692.11,333.67 688.92,339.35 685.68,345.01 C 648.17,408.27 610.77,471.61 573.5,535.01 C 570.07,541.75 566.19,548.22 561.85,554.41 C 560.76,555.79 559.56,557.06 558.25,558.22 Z"/></g>
</svg>
