<?xml version="1.0" encoding="UTF-8"?>
<!DOCTYPE svg PUBLIC "-//W3C//DTD SVG 1.1//EN" "http://www.w3.org/Graphics/SVG/1.1/DTD/svg11.dtd">
<svg xmlns="http://www.w3.org/2000/svg" version="1.1" width="1024px" height="1024px" style="shape-rendering:geometricPrecision; text-rendering:geometricPrecision; image-rendering:optimizeQuality; fill-rule:evenodd; clip-rule:evenodd" xmlns:xlink="http://www.w3.org/1999/xlink">
<rect x="0" y="0" width="1024" height="1024" fill="#40b0a6"/>
<g><path fill="#40b0a6" stroke="#40b0a6" stroke-width="0.5" d="M 0,0 C 341.33,0 682.67,0 1024,0 C 1024,341.33 1024,682.67 1024,1024 C 682.67,1024 341.33,1024 0,1024 C 0,682.67 0,341.33 0,0 Z M 202.19,813.14 C 202.16,813.82 202.01,814.47 201.75,815.09 C 200.2,817.58 198.58,820.03 196.89,822.44 C 184.91,839.08 172.76,855.6 160.44,871.98 C 159.4,875.76 160.57,878.65 163.95,880.65 C 167.29,881.85 170.24,881.22 172.78,878.74 C 229.16,907.56 285.58,936.31 342.04,964.98 C 342.2,965.9 342.75,966.51 343.7,966.8 C 344.32,968.13 345.08,969.37 345.99,970.51 C 349.33,973.29 352.66,973.28 355.98,970.48 C 365.89,952.46 375.93,934.51 386.11,916.63 C 386.41,916.11 386.86,915.85 387.47,915.85 C 388.67,916.16 389.85,916.13 391.02,915.76 C 399.81,917.95 408.64,919.97 417.51,921.82 C 422.09,922.53 426.66,923.37 431.19,924.33 C 437.3,925.05 443.41,925.87 449.5,926.78 C 456.48,927.61 463.49,928.3 470.5,928.86 C 479.83,929.34 489.16,929.71 498.5,929.97 C 503.5,930.02 508.5,929.97 513.5,929.83 C 520.16,929.4 526.83,929.08 533.5,928.89 C 540.51,928.31 547.51,927.63 554.5,926.84 C 563.85,925.62 573.18,924.22 582.48,922.63 C 591.45,920.92 600.38,919.01 609.27,916.89 C 610.06,917.18 610.82,917.55 611.53,918 C 615.68,922.68 620.52,926.47 626.07,929.36 C 632.36,932.61 638.78,935.59 645.32,938.29 C 661.83,944.33 678.3,950.45 694.75,956.65 C 700.95,959.15 706.7,962.43 712,966.48 C 713.79,968.04 715.46,969.71 717.02,971.49 C 720.03,975.55 722.91,979.72 725.64,983.99 C 728.68,987.38 732.09,987.8 735.87,985.26 C 736.73,984.43 737.38,983.47 737.83,982.37 C 738.04,980.95 738.18,979.51 738.23,978.07 C 795.43,961.45 852.68,944.95 909.96,928.56 C 910.98,928.95 912.01,929.27 913.07,929.52 C 914.57,933.51 916.29,937.41 918.23,941.22 C 921.2,944.08 924.43,944.42 927.92,942.25 C 930.53,939.81 931.19,936.94 929.88,933.64 C 928.26,930.07 926.83,926.43 925.57,922.72 C 921.96,910.15 919.15,897.4 917.12,884.49 C 915.5,872.85 914.17,861.19 913.1,849.5 C 912.16,835.86 911.34,822.2 910.66,808.54 C 909.9,802.22 908.88,795.94 907.58,789.7 C 905.1,779.32 902.09,769.09 898.56,759 C 895.93,751.99 893.26,744.99 890.54,738.01 C 887.58,731.25 884.65,724.48 881.75,717.7 C 881.9,716.76 881.92,715.82 881.83,714.88 C 903.06,679.28 919.06,641.47 929.83,601.44 C 930.9,596.9 932.04,592.37 933.25,587.87 C 935.17,578.42 937.02,568.96 938.79,559.49 C 939.52,553.6 940.37,547.72 941.33,541.86 C 941.71,536.4 942.22,530.95 942.86,525.5 C 943.01,520.48 943.36,515.49 943.9,510.5 C 944.39,496.17 944.4,481.83 943.93,467.5 C 943.37,458.5 942.65,449.51 941.75,440.53 C 940.66,430.82 939.32,421.15 937.73,411.52 C 936.23,404.07 934.73,396.62 933.22,389.17 C 930.47,378.1 927.5,367.09 924.29,356.15 C 920.82,346.06 917.19,336.03 913.38,326.05 C 909.37,315.91 904.96,305.93 900.17,296.12 C 863.13,221.06 809.38,160.96 738.9,115.8 C 674.81,75.52 605,52.98 529.5,48.19 C 498.37,46.52 467.37,47.83 436.5,52.1 C 427.72,53.6 418.96,55.13 410.2,56.7 C 399.48,59.28 388.79,61.96 378.13,64.74 C 366.67,68.38 355.29,72.26 343.99,76.4 C 316.53,87.03 290.34,100.19 265.42,115.87 C 201.53,156.78 151.15,210.39 114.29,276.7 C 90.63,319.99 74.6,365.93 66.21,414.51 C 64.63,424.48 63.31,434.48 62.26,444.53 C 61.31,455.17 60.6,465.83 60.13,476.5 C 60.02,485.5 60.05,494.5 60.24,503.5 C 60.75,509.15 61.06,514.82 61.16,520.5 C 61.74,527.51 62.44,534.51 63.26,541.5 C 64.33,550.54 65.66,559.53 67.25,568.48 C 83.06,651.62 119.47,724.46 176.5,787 C 184.87,795.92 193.43,804.63 202.19,813.14 Z"/></g>
<g><path fill="#54b8af" stroke="#54b8af" stroke-width="0.5" d="M 635.29,174.01 C 635.52,172.62 635.91,171.28 636.47,169.99 C 639.07,163.27 641.84,156.63 644.77,150.06 C 647.78,146.65 651.21,146.13 655.07,148.52 C 657.47,150.5 658.38,153.03 657.8,156.09 C 655.26,162.81 652.62,169.49 649.88,176.13 C 648.66,179.64 646.2,181.53 642.5,181.8 C 638.03,181.11 635.63,178.51 635.29,174.01 Z M 660.06,191 C 659.93,188.34 660.86,186.12 662.85,184.35 C 668.37,180.5 673.96,176.76 679.63,173.13 C 682.41,171.6 685.07,171.79 687.62,173.7 C 690.26,176.1 691,179 689.84,182.4 C 689.56,183.07 689.19,183.67 688.72,184.21 C 682.98,188.48 677.09,192.56 671.06,196.44 C 667.23,198.07 664.01,197.28 661.41,194.08 C 660.82,193.12 660.37,192.09 660.06,191 Z M 881.83,714.88 C 881.92,715.82 881.9,716.76 881.75,717.7 C 884.65,724.48 887.58,731.25 890.54,738.01 C 893.26,744.99 895.93,751.99 898.56,759 C 902.09,769.09 905.1,779.32 907.58,789.7 C 908.88,795.94 909.9,802.22 910.66,808.54 C 911.34,822.2 912.16,835.86 913.1,849.5 C 914.17,861.19 915.5,872.85 917.12,884.49 C 919.15,897.4 921.96,910.15 925.57,922.72 C 926.83,926.43 928.26,930.07 929.88,933.64 C 931.19,936.94 930.53,939.81 927.92,942.25 C 924.43,944.42 921.2,944.08 918.23,941.22 C 916.29,937.41 914.57,933.51 913.07,929.52 C 912.01,929.27 910.98,928.95 909.96,928.56 C 911.11,928.39 911.74,927.74 911.85,926.63 C 908.16,914.05 905.29,901.3 903.25,888.35 C 901.64,876.76 900.26,865.15 899.13,853.5 C 897.91,837.3 896.82,821.09 895.87,804.87 C 893.53,790.53 889.82,776.55 884.75,762.93 C 873.1,731.76 859.12,701.67 842.82,672.65 C 834.36,657.2 821.78,646.74 805.07,641.27 C 796.83,639.8 789.12,641.24 781.95,645.57 C 780.08,646.71 778.53,648.18 777.29,649.98 C 776.24,652.16 775.5,654.45 775.06,656.84 C 774.7,657.68 774.19,658.41 773.54,659.05 C 770.17,661.7 766.79,661.73 763.39,659.12 C 760.58,655.02 757.54,651.09 754.26,647.35 C 749.79,642.08 744.38,638.08 738.05,635.34 C 734.45,633.92 730.75,633.59 726.95,634.34 C 721.66,635.97 716.96,638.65 712.85,642.35 C 708.68,646.1 706.65,650.77 706.77,656.35 C 706.5,657.33 706.06,658.24 705.47,659.06 C 702.13,662.56 698.53,662.85 694.66,659.93 C 693.14,657.94 692,655.74 691.23,653.33 C 687.29,646.18 681.32,641.86 673.32,640.37 C 668.28,640.15 663.52,641.21 659.02,643.54 C 654.31,645.68 650.84,649.09 648.6,653.75 C 646.37,658.76 645.32,664.01 645.45,669.51 C 645.48,676.3 646.43,682.96 648.3,689.49 C 648.74,693.17 647.31,695.82 643.99,697.45 C 639.63,698.78 636.36,697.43 634.18,693.38 C 610.15,649.65 586.13,605.9 562.13,562.14 C 559.73,557.67 557.19,553.29 554.52,548.98 C 551.4,544.78 547.68,541.19 543.37,538.22 C 537.47,533.8 530.9,532.17 523.67,533.31 C 517.26,535.44 513.39,539.84 512.06,546.51 C 510.2,555.25 510.93,563.77 514.26,572.07 C 551.13,640.56 588.02,709.05 624.94,777.53 C 631.53,789.41 635.83,802.07 637.83,815.51 C 637.96,816.5 637.96,817.48 637.83,818.47 C 636.84,822.26 634.39,824.19 630.5,824.28 C 627.18,824.25 624.93,822.68 623.74,819.58 C 622.9,815.21 621.98,810.85 620.99,806.5 C 620.67,804.94 620.12,803.48 619.34,802.12 C 617.4,802.05 615.45,802.13 613.5,802.35 C 608.33,802.15 603.36,801.01 598.6,798.95 C 589.3,795.04 580.58,790.1 572.43,784.15 C 570.27,782.64 568.29,780.92 566.49,779.01 C 555.37,766.48 544.09,754.09 532.65,741.85 C 530.2,738.93 527.29,736.59 523.91,734.83 C 516.11,731.6 508.13,731.13 499.98,733.43 C 496.01,734.42 492.49,736.24 489.39,738.89 C 486.28,741.87 486.24,744.92 489.27,748.05 C 501.79,762.9 514.12,777.9 526.27,793.05 C 533.59,802.24 540.57,811.68 547.22,821.37 C 569.82,849.92 593.47,877.58 618.16,904.34 C 622.2,909.01 626.82,912.99 632.03,916.29 C 636.05,918.48 640.15,920.51 644.33,922.38 C 662.14,929.28 680.02,936.02 697.97,942.58 C 703.29,944.75 708.47,947.22 713.49,950.01 C 718.43,953.03 722.86,956.66 726.79,960.91 C 730.7,965.66 734.25,970.67 737.44,975.94 C 737.8,976.62 738.07,977.33 738.23,978.07 C 738.18,979.51 738.04,980.95 737.83,982.37 C 737.38,983.47 736.73,984.43 735.87,985.26 C 732.09,987.8 728.68,987.38 725.64,983.99 C 722.91,979.72 720.03,975.55 717.02,971.49 C 715.46,969.71 713.79,968.04 712,966.48 C 706.7,962.43 700.95,959.15 694.75,956.65 C 678.3,950.45 661.83,944.33 645.32,938.29 C 638.78,935.59 632.36,932.61 626.07,929.36 C 620.52,926.47 615.68,922.68 611.53,918 C 610.82,917.55 610.06,917.18 609.27,916.89 C 608.85,916.09 608.36,915.35 607.77,914.67 C 583.78,888.85 560.81,862.15 538.86,834.57 C 530.31,822.5 521.44,810.66 512.25,799.06 C 507.96,793.71 503.64,788.38 499.28,783.08 C 498.85,782.59 498.32,782.34 497.66,782.34 C 488.25,787.37 478.71,792.16 469.05,796.71 C 466.28,798.87 463.71,801.25 461.33,803.83 C 449.84,816.93 439.4,830.82 430,845.5 C 415.57,867.63 401.78,890.15 388.64,913.06 C 388.38,913.45 388.27,913.86 388.29,914.32 C 389.04,915.05 389.96,915.54 391.02,915.76 C 389.85,916.13 388.67,916.16 387.47,915.85 C 386.86,915.85 386.41,916.11 386.11,916.63 C 375.93,934.51 365.89,952.46 355.98,970.48 C 352.66,973.28 349.33,973.29 345.99,970.51 C 345.08,969.37 344.32,968.13 343.7,966.8 C 342.75,966.51 342.2,965.9 342.04,964.98 C 342.8,965.21 343.39,965 343.82,964.35 C 345.29,960.84 346.97,957.42 348.86,954.1 C 353.97,944.68 359.14,935.3 364.38,925.95 C 382.09,894.09 400.96,862.94 421,832.5 C 429.16,820.17 438.02,808.36 447.58,797.08 C 452.27,791.46 457.67,786.63 463.76,782.6 C 471.67,779.2 479.41,775.44 486.97,771.34 C 487.98,770.73 488.18,769.92 487.57,768.9 C 483.76,764.42 480,759.9 476.3,755.33 C 474.02,752.06 472.66,748.44 472.24,744.48 C 472.34,736.17 475.91,729.75 482.93,725.23 C 490.46,720.35 498.72,717.75 507.7,717.44 C 519.48,716.6 529.92,719.92 539.01,727.4 C 539.38,727.67 539.79,727.75 540.23,727.65 C 541.57,726.35 542.77,724.94 543.84,723.41 C 547.14,718.92 550.13,714.22 552.81,709.33 C 553.18,708.5 553.02,707.84 552.33,707.35 C 502.06,707.43 451.78,707.46 401.5,707.44 C 394.36,707.48 387.85,705.46 381.98,701.39 C 373.22,694.97 368.56,686.34 367.99,675.5 C 367.97,626.16 367.95,576.82 367.93,527.47 C 367.96,527.03 367.79,526.7 367.42,526.5 C 365.03,528.22 362.44,528.61 359.65,527.69 C 355.67,525.58 354.37,522.37 355.74,518.08 C 357.33,514.97 358.88,511.83 360.37,508.67 C 363.93,499.9 366.45,490.85 367.92,481.51 C 367.96,458.5 367.97,435.5 367.95,412.5 C 367.47,405.51 367.1,398.51 366.84,391.5 C 366.41,386.81 365.69,382.16 364.7,377.55 C 363.47,371.16 361.26,365.13 358.05,359.47 C 356.58,356.89 354.59,354.85 352.06,353.32 C 348.1,352.27 344.67,353.19 341.75,356.06 C 338.29,361.35 335.61,367.02 333.72,373.07 C 330.47,383.1 327.65,393.26 325.25,403.53 C 319.78,427.98 314.62,452.5 309.78,477.08 C 308.14,485.94 305.74,494.58 302.58,503.01 C 295.93,516.98 289.7,531.13 283.88,545.46 C 278.27,558.71 274.08,572.4 271.33,586.51 C 270.21,595.47 269.83,604.47 270.21,613.5 C 271.27,641.17 272.48,668.83 273.81,696.49 C 273.58,699.78 271.94,702 268.88,703.15 C 263.22,704.39 259.96,702.17 259.08,696.51 C 258.34,675.82 257.37,655.16 256.16,634.5 C 255.68,619.5 255.66,604.5 256.1,589.5 C 257.6,578.23 260.25,567.24 264.06,556.52 C 266.23,550.43 268.5,544.38 270.86,538.37 C 277.24,523.15 283.84,508.04 290.68,493.04 C 292.21,487.76 293.56,482.44 294.74,477.08 C 298.02,461.92 301.14,446.74 304.09,431.51 C 306.67,419.5 309.33,407.5 312.07,395.52 C 314.17,386.91 316.56,378.37 319.23,369.92 C 320.91,365.02 322.82,360.2 324.96,355.49 C 327.07,350.81 330.03,346.76 333.84,343.33 C 337.46,340.9 341.4,339.23 345.67,338.32 C 351.42,337.5 356.71,338.7 361.56,341.92 C 363.6,343.46 365.56,345.07 367.44,346.74 C 367.82,346.43 367.99,346.03 367.96,345.53 C 367.9,325.86 367.96,306.19 368.14,286.52 C 369.55,282.12 372.54,280.3 377.11,281.06 C 380.74,282.22 382.56,284.71 382.56,288.55 C 382.57,416.53 382.57,544.51 382.56,672.5 C 382.44,681.96 386.76,688.43 395.53,691.92 C 397.14,692.46 398.8,692.76 400.5,692.84 C 454.11,692.9 507.72,692.87 561.32,692.74 C 561.97,691.97 561.95,691.17 561.28,690.33 C 540.95,652.94 520.77,615.47 500.75,577.92 C 497.27,569.28 495.87,560.31 496.55,551.02 C 496.75,547.92 497.27,544.88 498.11,541.9 C 501,530.75 507.86,523.26 518.71,519.43 C 527.58,517.09 536.16,517.94 544.44,521.97 C 547.38,523.46 550.23,525.11 552.98,526.92 C 558.91,531.23 563.91,536.43 567.97,542.52 C 584.18,572.05 600.41,601.56 616.67,631.05 C 617.51,632.13 618.03,631.97 618.23,630.59 C 618.21,624.55 618.16,618.52 618.08,612.49 C 616.6,609.92 615.11,607.34 613.62,604.76 C 612.74,602.99 612.03,601.17 611.49,599.27 C 609.07,590.61 609.07,581.94 611.48,573.27 C 612.99,568.66 615.13,564.36 617.9,560.39 C 618.32,557.45 618.28,554.53 617.78,551.63 C 611.67,544.37 608.74,535.99 609,526.5 C 609.13,517.46 612.03,509.41 617.7,502.35 C 618.34,499.83 618.35,497.3 617.75,494.77 C 609.09,488.14 604.55,479.39 604.15,468.5 C 604.45,460.9 606.89,454.06 611.48,447.99 C 613.43,445.66 615.5,443.44 617.69,441.34 C 618,440.77 618.16,440.16 618.18,439.52 C 618.18,373.18 618.18,306.84 618.18,240.5 C 618.2,238.87 618.06,237.26 617.74,235.66 C 614.95,226.7 608.87,222.01 599.5,221.58 C 533.83,221.58 468.17,221.57 402.5,221.56 C 399.39,221.46 396.4,222 393.53,223.16 C 386.79,226.53 383.16,231.98 382.64,239.5 C 382.63,246.33 382.55,253.16 382.38,259.98 C 381.83,262.47 380.37,264.17 377.99,265.07 C 373.36,266.43 370.11,264.89 368.23,260.46 C 367.95,253.15 367.86,245.83 367.99,238.5 C 369.03,225.25 375.5,215.67 387.43,209.78 C 391.9,207.76 396.59,206.8 401.5,206.92 C 468.5,206.9 535.5,206.92 602.5,206.98 C 613.21,208.08 621.59,213.1 627.63,222.02 C 630.7,226.74 632.45,231.89 632.89,237.5 C 632.9,264.14 632.98,290.77 633.12,317.4 C 633.43,317.88 633.88,318.04 634.44,317.87 C 641.8,314.49 649.48,312.26 657.5,311.18 C 664.63,310.19 671.35,311.39 677.67,314.77 C 684.22,319.46 688.68,325.68 691.02,333.42 C 693.1,341.13 692.48,348.63 689.17,355.92 C 686.61,361.42 683.3,366.42 679.23,370.92 C 674.05,376.7 668.47,382.05 662.48,386.99 C 652.66,394.82 642.93,402.75 633.28,410.77 C 633.02,411.66 632.9,412.56 632.94,413.49 C 632.92,419.48 632.96,425.47 633.07,431.45 C 633.35,432.01 633.81,432.24 634.44,432.13 C 640.96,429.97 647.65,428.7 654.5,428.31 C 660.33,428.19 666.01,429.02 671.55,430.81 C 682.52,434.76 689.55,442.35 692.64,453.57 C 693.79,459.42 693.38,465.15 691.41,470.77 C 689.9,474.72 687.78,478.32 685.06,481.56 C 683.22,483.56 681.34,485.53 679.43,487.47 C 679.51,487.92 679.78,488.22 680.23,488.37 C 688.7,491.63 693.89,497.68 695.79,506.53 C 696.69,513.57 695.44,520.22 692.03,526.46 C 688.72,532.64 684.37,537.99 678.99,542.5 C 674.94,545.83 670.72,548.87 666.32,551.64 C 667.92,553.53 669.5,555.47 671.06,557.45 C 674.05,562.38 675.62,567.73 675.78,573.5 C 675.32,588.43 669.53,600.88 658.43,610.87 C 653.17,615.32 647.19,618.34 640.5,619.93 C 638.51,620.12 636.52,620.19 634.52,620.15 C 633.98,620.1 633.54,620.29 633.2,620.7 C 633.04,630.33 632.87,639.98 632.7,649.62 C 632.65,650.26 632.89,650.72 633.44,651.01 C 633.63,650.88 633.82,650.75 634.01,650.62 C 637.99,639.95 645.35,632.67 656.1,628.79 C 662.62,626.09 669.39,625.19 676.4,626.09 C 681.09,626.86 685.49,628.45 689.57,630.88 C 692.33,632.7 694.98,634.64 697.52,636.71 C 697.98,636.69 698.35,636.5 698.64,636.14 C 705.28,628.24 713.58,622.9 723.52,620.13 C 726.79,619.3 730.1,619.02 733.46,619.3 C 742.79,620.46 750.97,624.2 757.98,630.51 C 760.88,633.22 763.77,635.91 766.65,638.6 C 767.11,638.64 767.53,638.51 767.89,638.21 C 772.87,633.23 778.77,629.84 785.6,628.05 C 793.36,625.66 801.19,625.38 809.09,627.23 C 827.3,632.77 841.6,643.54 851.97,659.52 C 862.47,677.2 871.97,695.4 880.47,714.12 C 880.78,714.63 881.23,714.89 881.83,714.88 Z M 667.98,217 C 668.23,213.86 669.78,211.62 672.64,210.28 C 679.56,209.52 686.52,209.09 693.5,208.99 C 698.63,208.91 701.46,211.42 701.98,216.51 C 701.69,219.93 699.92,222.19 696.67,223.29 C 689.97,223.87 683.24,224.2 676.5,224.28 C 672.53,224.66 669.8,223.01 668.29,219.32 C 668.09,218.56 667.98,217.79 667.98,217 Z M 469.35,247 C 469.97,242.21 472.69,239.79 477.5,239.74 C 493.5,239.7 509.51,239.74 525.51,239.87 C 529.03,240.69 530.94,242.9 531.25,246.5 C 531.42,250.11 529.83,252.57 526.48,253.89 C 525.17,254.21 523.85,254.35 522.5,254.3 C 506.83,254.34 491.16,254.29 475.49,254.13 C 471.75,253.24 469.71,250.86 469.35,247 Z M 632.95,388 C 632.9,388.8 632.96,389.6 633.13,390.38 C 633.73,390.84 634.33,390.81 634.93,390.27 C 641.42,385.23 647.8,380.07 654.08,374.78 C 660.33,369.59 666.02,363.86 671.13,357.56 C 674.54,353.36 676.7,348.61 677.61,343.31 C 677.68,337.98 675.91,333.34 672.3,329.37 C 670.22,327.09 667.62,325.9 664.5,325.81 C 657.66,325.61 651.06,326.84 644.73,329.49 C 640.84,331.02 637.1,332.85 633.5,334.97 C 633.08,335.75 632.9,336.59 632.94,337.49 C 632.96,354.33 632.96,371.16 632.95,388 Z M 554.06,413 C 554.71,408.75 557.19,406.62 561.51,406.62 C 565.49,407.19 567.64,409.48 567.93,413.5 C 567.39,417.9 564.91,420.13 560.49,420.19 C 557.39,419.91 555.33,418.29 554.3,415.32 C 554.13,414.56 554.05,413.78 554.06,413 Z M 447.33,450 C 447.78,445.63 450.17,443.23 454.5,442.79 C 457.06,442.66 459.12,443.62 460.67,445.67 C 466.53,452.85 472.37,460.05 478.18,467.27 C 478.52,467.62 478.91,467.72 479.37,467.6 C 499.82,451.85 520.25,436.06 540.65,420.24 C 544.08,418.22 547.22,418.6 550.09,421.38 C 552.85,425.05 552.63,428.55 549.43,431.86 C 527.3,449.07 505.18,466.3 483.06,483.55 C 479.37,486.55 475.78,486.44 472.28,483.22 C 464.44,473.73 456.68,464.18 449,454.55 C 448.08,453.17 447.52,451.65 447.33,450 Z M 618.98,469 C 619.4,475.46 622.39,480.37 627.96,483.74 C 634.16,486.82 640.65,487.55 647.4,485.94 C 656.01,484.23 663.77,480.68 670.68,475.3 C 674.86,471.78 677.48,467.35 678.53,462.01 C 679.04,456.28 677.04,451.59 672.55,447.95 C 670.38,446.25 667.98,445.02 665.34,444.24 C 660.52,442.87 655.62,442.55 650.65,443.25 C 644.3,444.21 638.28,446.16 632.57,449.1 C 626.03,452.5 621.63,457.7 619.38,464.69 C 619.06,466.11 618.93,467.55 618.98,469 Z M 623.78,527 C 623.6,531.74 624.82,536.09 627.46,540.03 C 631.41,544.89 636.42,546.53 642.5,544.92 C 654.09,542.09 664.16,536.52 672.71,528.21 C 675.82,525.1 678.25,521.52 679.99,517.49 C 681.39,514.26 681.67,510.94 680.84,507.53 C 678.99,503.99 676.08,501.89 672.08,501.24 C 666.9,500.46 661.71,500.44 656.51,501.2 C 650.51,502.32 644.58,503.72 638.71,505.4 C 628.96,509.3 623.98,516.5 623.78,527 Z M 624.26,587 C 624.35,592.08 625.74,596.76 628.44,601.04 C 631.5,605.31 635.49,606.54 640.41,604.73 C 647.29,601.87 652.57,597.18 656.24,590.67 C 658.96,585.97 660.55,580.91 661.01,575.5 C 661.43,571.19 660.25,567.38 657.47,564.09 C 655.11,562.34 652.45,561.36 649.5,561.15 C 644.23,561.36 639.26,562.69 634.6,565.16 C 629.49,568.65 626.32,573.43 625.09,579.51 C 624.62,581.99 624.34,584.48 624.26,587 Z M 550.73,739 C 550.94,739.63 551.27,740.18 551.71,740.68 C 560.83,750.93 570.07,761.05 579.45,771.06 C 587.96,777.6 597.22,782.76 607.26,786.53 C 608.71,786.99 610.18,787.34 611.67,787.59 C 612.73,787.35 613.05,786.72 612.63,785.68 C 598.85,759.89 584.97,734.14 571,708.45 C 570.34,708.14 569.81,708.29 569.41,708.92 C 566.96,714.31 564.16,719.5 561.01,724.51 C 557.7,729.43 554.27,734.26 550.73,739 Z M 261.17,714.43 C 263.35,715.14 264.93,716.53 265.91,718.6 C 266.57,721.22 266.51,723.84 265.75,726.45 C 264.3,732.28 262.45,737.98 260.2,743.55 C 253.28,759.45 245.2,774.74 235.95,789.43 C 216.44,820.29 195.38,850.06 172.78,878.74 C 170.24,881.22 167.29,881.85 163.95,880.65 C 160.57,878.65 159.4,875.76 160.44,871.98 C 172.76,855.6 184.91,839.08 196.89,822.44 C 198.58,820.03 200.2,817.58 201.75,815.09 C 202.01,814.47 202.16,813.82 202.19,813.14 C 203.04,812.56 203.75,811.85 204.32,810.99 C 215.95,794.21 226.7,776.89 236.58,759.03 C 242.02,749.28 246.5,739.1 250.02,728.5 C 250.88,725.55 251.59,722.56 252.14,719.53 C 253.72,715.31 256.73,713.61 261.17,714.43 Z"/></g>
<g><path fill="#d1eae8" stroke="#d1eae8" stroke-width="0.5" d="M 881.83,714.88 C 881.23,714.89 880.78,714.63 880.47,714.12 C 871.97,695.4 862.47,677.2 851.97,659.52 C 841.6,643.54 827.3,632.77 809.09,627.23 C 801.19,625.38 793.36,625.66 785.6,628.05 C 778.77,629.84 772.87,633.23 767.89,638.21 C 767.53,638.51 767.11,638.64 766.65,638.6 C 763.77,635.91 760.88,633.22 757.98,630.51 C 750.97,624.2 742.79,620.46 733.46,619.3 C 730.1,619.02 726.79,619.3 723.52,620.13 C 713.58,622.9 705.28,628.24 698.64,636.14 C 698.35,636.5 697.98,636.69 697.52,636.71 C 694.98,634.64 692.33,632.7 689.57,630.88 C 685.49,628.45 681.09,626.86 676.4,626.09 C 669.39,625.19 662.62,626.09 656.1,628.79 C 645.35,632.67 637.99,639.95 634.01,650.62 C 633.82,650.75 633.63,650.88 633.44,651.01 C 632.89,650.72 632.65,650.26 632.7,649.62 C 632.87,639.98 633.04,630.33 633.2,620.7 C 633.54,620.29 633.98,620.1 634.52,620.15 C 636.52,620.19 638.51,620.12 640.5,619.93 C 647.19,618.34 653.17,615.32 658.43,610.87 C 669.53,600.88 675.32,588.43 675.78,573.5 C 675.62,567.73 674.05,562.38 671.06,557.45 C 669.5,555.47 667.92,553.53 666.32,551.64 C 670.72,548.87 674.94,545.83 678.99,542.5 C 684.37,537.99 688.72,532.64 692.03,526.46 C 695.44,520.22 696.69,513.57 695.79,506.53 C 693.89,497.68 688.7,491.63 680.23,488.37 C 679.78,488.22 679.51,487.92 679.43,487.47 C 681.34,485.53 683.22,483.56 685.06,481.56 C 687.78,478.32 689.9,474.72 691.41,470.77 C 693.38,465.15 693.79,459.42 692.64,453.57 C 689.55,442.35 682.52,434.76 671.55,430.81 C 666.01,429.02 660.33,428.19 654.5,428.31 C 647.65,428.7 640.96,429.97 634.44,432.13 C 633.81,432.24 633.35,432.01 633.07,431.45 C 632.96,425.47 632.92,419.48 632.94,413.49 C 632.9,412.56 633.02,411.66 633.28,410.77 C 642.93,402.75 652.66,394.82 662.48,386.99 C 668.47,382.05 674.05,376.7 679.23,370.92 C 683.3,366.42 686.61,361.42 689.17,355.92 C 692.48,348.63 693.1,341.13 691.02,333.42 C 688.68,325.68 684.22,319.46 677.67,314.77 C 671.35,311.39 664.63,310.19 657.5,311.18 C 649.48,312.26 641.8,314.49 634.44,317.87 C 633.88,318.04 633.43,317.88 633.12,317.4 C 632.98,290.77 632.9,264.14 632.89,237.5 C 632.45,231.89 630.7,226.74 627.63,222.02 C 621.59,213.1 613.21,208.08 602.5,206.98 C 535.5,206.92 468.5,206.9 401.5,206.92 C 396.59,206.8 391.9,207.76 387.43,209.78 C 375.5,215.67 369.03,225.25 367.99,238.5 C 367.86,245.83 367.95,253.15 368.23,260.46 C 370.11,264.89 373.36,266.43 377.99,265.07 C 378.01,265.5 377.84,265.84 377.49,266.09 C 376.73,266.27 376,266.49 375.28,266.76 C 375.11,270.96 375.07,275.17 375.16,279.38 C 375.86,279.88 376.51,280.44 377.11,281.06 C 372.54,280.3 369.55,282.12 368.14,286.52 C 367.96,306.19 367.9,325.86 367.96,345.53 C 367.99,346.03 367.82,346.43 367.44,346.74 C 365.56,345.07 363.6,343.46 361.56,341.92 C 356.71,338.7 351.42,337.5 345.67,338.32 C 341.4,339.23 337.46,340.9 333.84,343.33 C 330.03,346.76 327.07,350.81 324.96,355.49 C 322.82,360.2 320.91,365.02 319.23,369.92 C 316.56,378.37 314.17,386.91 312.07,395.52 C 309.33,407.5 306.67,419.5 304.09,431.51 C 301.14,446.74 298.02,461.92 294.74,477.08 C 293.56,482.44 292.21,487.76 290.68,493.04 C 283.84,508.04 277.24,523.15 270.86,538.37 C 268.5,544.38 266.23,550.43 264.06,556.52 C 260.25,567.24 257.6,578.23 256.1,589.5 C 255.66,604.5 255.68,619.5 256.16,634.5 C 257.37,655.16 258.34,675.82 259.08,696.51 C 259.96,702.17 263.22,704.39 268.88,703.15 C 269.02,703.55 268.9,703.84 268.5,704.02 C 266.9,704.21 265.29,704.24 263.68,704.13 C 263.52,704.29 263.36,704.44 263.2,704.6 C 262.63,707.92 261.95,711.2 261.17,714.43 C 256.73,713.61 253.72,715.31 252.14,719.53 C 251.59,722.56 250.88,725.55 250.02,728.5 C 246.5,739.1 242.02,749.28 236.58,759.03 C 226.7,776.89 215.95,794.21 204.32,810.99 C 203.75,811.85 203.04,812.56 202.19,813.14 C 193.43,804.63 184.87,795.92 176.5,787 C 119.47,724.46 83.06,651.62 67.25,568.48 C 65.66,559.53 64.33,550.54 63.26,541.5 C 62.44,534.51 61.74,527.51 61.16,520.5 C 61.06,514.82 60.75,509.15 60.24,503.5 C 60.05,494.5 60.02,485.5 60.13,476.5 C 60.6,465.83 61.31,455.17 62.26,444.53 C 63.31,434.48 64.63,424.48 66.21,414.51 C 74.6,365.93 90.63,319.99 114.29,276.7 C 151.15,210.39 201.53,156.78 265.42,115.87 C 290.34,100.19 316.53,87.03 343.99,76.4 C 355.29,72.26 366.67,68.38 378.13,64.74 C 388.79,61.96 399.48,59.28 410.2,56.7 C 418.96,55.13 427.72,53.6 436.5,52.1 C 467.37,47.83 498.37,46.52 529.5,48.19 C 605,52.98 674.81,75.52 738.9,115.8 C 809.38,160.96 863.13,221.06 900.17,296.12 C 904.96,305.93 909.37,315.91 913.38,326.05 C 917.19,336.03 920.82,346.06 924.29,356.15 C 927.5,367.09 930.47,378.1 933.22,389.17 C 934.73,396.62 936.23,404.07 937.73,411.52 C 939.32,421.15 940.66,430.82 941.75,440.53 C 942.65,449.51 943.37,458.5 943.93,467.5 C 944.4,481.83 944.39,496.17 943.9,510.5 C 943.36,515.49 943.01,520.48 942.86,525.5 C 942.22,530.95 941.71,536.4 941.33,541.86 C 940.37,547.72 939.52,553.6 938.79,559.49 C 937.02,568.96 935.17,578.42 933.25,587.87 C 932.04,592.37 930.9,596.9 929.83,601.44 C 919.06,641.47 903.06,679.28 881.83,714.88 Z M 635.29,174.01 C 635.63,178.51 638.03,181.11 642.5,181.8 C 646.2,181.53 648.66,179.64 649.88,176.13 C 652.62,169.49 655.26,162.81 657.8,156.09 C 658.4,151.65 656.59,148.68 652.36,147.18 C 649.28,146.68 646.75,147.64 644.77,150.06 C 641.84,156.63 639.07,163.27 636.47,169.99 C 635.91,171.28 635.52,172.62 635.29,174.01 Z M 660.06,191 C 660.61,193.35 661.9,195.17 663.94,196.45 C 666.31,197.45 668.69,197.45 671.06,196.44 C 677.09,192.56 682.98,188.48 688.72,184.21 C 690.54,181.64 690.83,178.89 689.59,175.96 C 687.71,173.08 685.07,171.86 681.67,172.28 C 680.96,172.49 680.28,172.78 679.63,173.13 C 673.96,176.76 668.37,180.5 662.85,184.35 C 660.86,186.12 659.93,188.34 660.06,191 Z M 667.98,217 C 668.13,220.23 669.67,222.53 672.6,223.9 C 673.88,224.22 675.18,224.34 676.5,224.28 C 683.24,224.2 689.97,223.87 696.67,223.29 C 701.07,221.5 702.67,218.3 701.49,213.72 C 699.9,210.33 697.24,208.76 693.5,208.99 C 686.52,209.09 679.56,209.52 672.64,210.28 C 669.78,211.62 668.23,213.86 667.98,217 Z M 552.98,526.92 C 550.23,525.11 547.38,523.46 544.44,521.97 C 536.16,517.94 527.58,517.09 518.71,519.43 C 507.86,523.26 501,530.75 498.11,541.9 C 497.86,541.02 497.27,540.51 496.36,540.37 C 468.26,538.06 445.4,525.92 427.75,503.94 C 414.66,486.66 408.14,467.18 408.2,445.5 C 409.04,418.85 419.1,396.3 438.37,377.87 C 453.78,363.85 471.83,355.65 492.53,353.28 C 501.22,352.6 509.86,352.92 518.46,354.25 C 547.46,359.96 569.44,375.56 584.39,401.05 C 590.87,412.72 594.71,425.2 595.89,438.5 C 596.99,452.93 595.01,466.93 589.98,480.49 C 582.58,499.2 570.49,514.09 553.71,525.17 C 553.12,525.61 552.88,526.19 552.98,526.92 Z M 554.06,413 C 554.09,415.96 555.38,418.19 557.93,419.7 C 562.18,421.16 565.34,419.92 567.42,415.98 C 568.57,412.33 567.54,409.47 564.32,407.4 C 561.34,406.07 558.59,406.44 556.07,408.51 C 554.89,409.78 554.22,411.28 554.06,413 Z M 447.33,450 C 447.52,451.65 448.08,453.17 449,454.55 C 456.68,464.18 464.44,473.73 472.28,483.22 C 475.78,486.44 479.37,486.55 483.06,483.55 C 505.18,466.3 527.3,449.07 549.43,431.86 C 552.63,428.55 552.85,425.05 550.09,421.38 C 547.22,418.6 544.08,418.22 540.65,420.24 C 520.25,436.06 499.82,451.85 479.37,467.6 C 478.91,467.72 478.52,467.62 478.18,467.27 C 472.37,460.05 466.53,452.85 460.67,445.67 C 457.95,442.64 454.73,441.98 451.01,443.68 C 448.76,445.18 447.53,447.28 447.33,450 Z M 550.73,739 C 554.27,734.26 557.7,729.43 561.01,724.51 C 564.16,719.5 566.96,714.31 569.41,708.92 C 569.81,708.29 570.34,708.14 571,708.45 C 584.97,734.14 598.85,759.89 612.63,785.68 C 613.05,786.72 612.73,787.35 611.67,787.59 C 607.1,786.64 602.75,785.08 598.62,782.9 C 591.85,779.56 585.46,775.61 579.45,771.06 C 570.07,761.05 560.83,750.93 551.71,740.68 C 551.27,740.18 550.94,739.63 550.73,739 Z M 609.27,916.89 C 600.38,919.01 591.45,920.92 582.48,922.63 C 573.18,924.22 563.85,925.62 554.5,926.84 C 547.51,927.63 540.51,928.31 533.5,928.89 C 526.83,929.08 520.16,929.4 513.5,929.83 C 508.5,929.97 503.5,930.02 498.5,929.97 C 489.16,929.71 479.83,929.34 470.5,928.86 C 463.49,928.3 456.48,927.61 449.5,926.78 C 443.41,925.87 437.3,925.05 431.19,924.33 C 426.66,923.37 422.09,922.53 417.51,921.82 C 408.64,919.97 399.81,917.95 391.02,915.76 C 389.96,915.54 389.04,915.05 388.29,914.32 C 388.27,913.86 388.38,913.45 388.64,913.06 C 401.78,890.15 415.57,867.63 430,845.5 C 439.4,830.82 449.84,816.93 461.33,803.83 C 463.71,801.25 466.28,798.87 469.05,796.71 C 478.71,792.16 488.25,787.37 497.66,782.34 C 498.32,782.34 498.85,782.59 499.28,783.08 C 503.64,788.38 507.96,793.71 512.25,799.06 C 521.44,810.66 530.31,822.5 538.86,834.57 C 560.81,862.15 583.78,888.85 607.77,914.67 C 608.36,915.35 608.85,916.09 609.27,916.89 Z"/></g>
<g><path fill="#fcfcfc" stroke="#fcfcfc" stroke-width="0.5" d="M 552.98,526.92 C 552.88,526.19 553.12,525.61 553.71,525.17 C 570.49,514.09 582.58,499.2 589.98,480.49 C 595.01,466.93 596.99,452.93 595.89,438.5 C 594.71,425.2 590.87,412.72 584.39,401.05 C 569.44,375.56 547.46,359.96 518.46,354.25 C 509.86,352.92 501.22,352.6 492.53,353.28 C 471.83,355.65 453.78,363.85 438.37,377.87 C 419.1,396.3 409.04,418.85 408.2,445.5 C 408.14,467.18 414.66,486.66 427.75,503.94 C 445.4,525.92 468.26,538.06 496.36,540.37 C 497.27,540.51 497.86,541.02 498.11,541.9 C 497.27,544.88 496.75,547.92 496.55,551.02 C 495.87,560.31 497.27,569.28 500.75,577.92 C 520.77,615.47 540.95,652.94 561.28,690.33 C 561.95,691.17 561.97,691.97 561.32,692.74 C 507.72,692.87 454.11,692.9 400.5,692.84 C 398.8,692.76 397.14,692.46 395.53,691.92 C 386.76,688.43 382.44,681.96 382.56,672.5 C 382.57,544.51 382.57,416.53 382.56,288.55 C 382.56,284.71 380.74,282.22 377.11,281.06 C 376.51,280.44 375.86,279.88 375.16,279.38 C 375.07,275.17 375.11,270.96 375.28,266.76 C 376,266.49 376.73,266.27 377.49,266.09 C 377.84,265.84 378.01,265.5 377.99,265.07 C 380.37,264.17 381.83,262.47 382.38,259.98 C 382.55,253.16 382.63,246.33 382.64,239.5 C 383.16,231.98 386.79,226.53 393.53,223.16 C 396.4,222 399.39,221.46 402.5,221.56 C 468.17,221.57 533.83,221.58 599.5,221.58 C 608.87,222.01 614.95,226.7 617.74,235.66 C 618.06,237.26 618.2,238.87 618.18,240.5 C 618.18,306.84 618.18,373.18 618.18,439.52 C 618.16,440.16 618,440.77 617.69,441.34 C 615.5,443.44 613.43,445.66 611.48,447.99 C 606.89,454.06 604.45,460.9 604.15,468.5 C 604.55,479.39 609.09,488.14 617.75,494.77 C 618.35,497.3 618.34,499.83 617.7,502.35 C 612.03,509.41 609.13,517.46 609,526.5 C 608.74,535.99 611.67,544.37 617.78,551.63 C 618.28,554.53 618.32,557.45 617.9,560.39 C 615.13,564.36 612.99,568.66 611.48,573.27 C 609.07,581.94 609.07,590.61 611.49,599.27 C 612.03,601.17 612.74,602.99 613.62,604.76 C 615.11,607.34 616.6,609.92 618.08,612.49 C 618.16,618.52 618.21,624.55 618.23,630.59 C 618.03,631.97 617.51,632.13 616.67,631.05 C 600.41,601.56 584.18,572.05 567.97,542.52 C 563.91,536.43 558.91,531.23 552.98,526.92 Z M 469.35,247 C 469.71,250.86 471.75,253.24 475.49,254.13 C 491.16,254.29 506.83,254.34 522.5,254.3 C 526.08,254.71 528.79,253.39 530.61,250.32 C 532.2,246.1 531.1,242.79 527.31,240.41 C 526.74,240.15 526.14,239.97 525.51,239.87 C 509.51,239.74 493.5,239.7 477.5,239.74 C 472.69,239.79 469.97,242.21 469.35,247 Z M 632.95,388 C 632.96,371.16 632.96,354.33 632.94,337.49 C 632.9,336.59 633.08,335.75 633.5,334.97 C 640.47,330.78 647.95,327.88 655.92,326.25 C 659.77,325.57 663.61,325.59 667.44,326.29 C 669.4,326.79 671.02,327.81 672.3,329.37 C 675.91,333.34 677.68,337.98 677.61,343.31 C 676.7,348.61 674.54,353.36 671.13,357.56 C 666.02,363.86 660.33,369.59 654.08,374.78 C 647.8,380.07 641.42,385.23 634.93,390.27 C 634.33,390.81 633.73,390.84 633.13,390.38 C 632.96,389.6 632.9,388.8 632.95,388 Z M 342.04,964.98 C 285.58,936.31 229.16,907.56 172.78,878.74 C 195.38,850.06 216.44,820.29 235.95,789.43 C 245.2,774.74 253.28,759.45 260.2,743.55 C 262.45,737.98 264.3,732.28 265.75,726.45 C 266.51,723.84 266.57,721.22 265.91,718.6 C 264.93,716.53 263.35,715.14 261.17,714.43 C 261.95,711.2 262.63,707.92 263.2,704.6 C 263.36,704.44 263.52,704.29 263.68,704.13 C 265.29,704.24 266.9,704.21 268.5,704.02 C 268.9,703.84 269.02,703.55 268.88,703.15 C 271.94,702 273.58,699.78 273.81,696.49 C 272.48,668.83 271.27,641.17 270.21,613.5 C 269.83,604.47 270.21,595.47 271.33,586.51 C 274.08,572.4 278.27,558.71 283.88,545.46 C 289.7,531.13 295.93,516.98 302.58,503.01 C 305.74,494.58 308.14,485.94 309.78,477.08 C 314.62,452.5 319.78,427.98 325.25,403.53 C 327.65,393.26 330.47,383.1 333.72,373.07 C 335.61,367.02 338.29,361.35 341.75,356.06 C 344.67,353.19 348.1,352.27 352.06,353.32 C 354.59,354.85 356.58,356.89 358.05,359.47 C 361.26,365.13 363.47,371.16 364.7,377.55 C 365.69,382.16 366.41,386.81 366.84,391.5 C 367.1,398.51 367.47,405.51 367.95,412.5 C 367.97,435.5 367.96,458.5 367.92,481.51 C 366.45,490.85 363.93,499.9 360.37,508.67 C 358.88,511.83 357.33,514.97 355.74,518.08 C 354.37,522.37 355.67,525.58 359.65,527.69 C 362.44,528.61 365.03,528.22 367.42,526.5 C 367.79,526.7 367.96,527.03 367.93,527.47 C 367.95,576.82 367.97,626.16 367.99,675.5 C 368.56,686.34 373.22,694.97 381.98,701.39 C 387.85,705.46 394.36,707.48 401.5,707.44 C 451.78,707.46 502.06,707.43 552.33,707.35 C 553.02,707.84 553.18,708.5 552.81,709.33 C 550.13,714.22 547.14,718.92 543.84,723.41 C 542.77,724.94 541.57,726.35 540.23,727.65 C 539.79,727.75 539.38,727.67 539.01,727.4 C 529.92,719.92 519.48,716.6 507.7,717.44 C 498.72,717.75 490.46,720.35 482.93,725.23 C 475.91,729.75 472.34,736.17 472.24,744.48 C 472.66,748.44 474.02,752.06 476.3,755.33 C 480,759.9 483.76,764.42 487.57,768.9 C 488.18,769.92 487.98,770.73 486.97,771.34 C 479.41,775.44 471.67,779.2 463.76,782.6 C 457.67,786.63 452.27,791.46 447.58,797.08 C 438.02,808.36 429.16,820.17 421,832.5 C 400.96,862.94 382.09,894.09 364.38,925.95 C 359.14,935.3 353.97,944.68 348.86,954.1 C 346.97,957.42 345.29,960.84 343.82,964.35 C 343.39,965 342.8,965.21 342.04,964.98 Z M 618.98,469 C 619.01,464.21 620.59,459.99 623.7,456.33 C 627.64,451.86 632.41,448.61 638.02,446.58 C 642.14,445.09 646.34,443.98 650.65,443.25 C 657,442.2 663.1,443 668.95,445.66 C 674.14,448.23 677.32,452.35 678.51,458 C 678.95,463.11 677.5,467.65 674.18,471.6 C 669.22,477.22 663.16,481.2 656.01,483.54 C 650.1,485.8 643.99,486.83 637.68,486.63 C 628.69,485.95 622.62,481.41 619.49,473 C 619.13,471.69 618.96,470.36 618.98,469 Z M 623.78,527 C 623.98,516.5 628.96,509.3 638.71,505.4 C 644.58,503.72 650.51,502.32 656.51,501.2 C 661.71,500.44 666.9,500.46 672.08,501.24 C 676.08,501.89 678.99,503.99 680.84,507.53 C 681.67,510.94 681.39,514.26 679.99,517.49 C 677.21,523.45 673.21,528.46 668.01,532.52 C 660.39,538.48 651.89,542.62 642.5,544.92 C 636.42,546.53 631.41,544.89 627.46,540.03 C 624.82,536.09 623.6,531.74 623.78,527 Z M 909.96,928.56 C 852.68,944.95 795.43,961.45 738.23,978.07 C 738.07,977.33 737.8,976.62 737.44,975.94 C 734.25,970.67 730.7,965.66 726.79,960.91 C 722.86,956.66 718.43,953.03 713.49,950.01 C 708.47,947.22 703.29,944.75 697.97,942.58 C 680.02,936.02 662.14,929.28 644.33,922.38 C 640.15,920.51 636.05,918.48 632.03,916.29 C 626.82,912.99 622.2,909.01 618.16,904.34 C 593.47,877.58 569.82,849.92 547.22,821.37 C 540.57,811.68 533.59,802.24 526.27,793.05 C 514.12,777.9 501.79,762.9 489.27,748.05 C 486.24,744.92 486.28,741.87 489.39,738.89 C 492.49,736.24 496.01,734.42 499.98,733.43 C 508.13,731.13 516.11,731.6 523.91,734.83 C 527.29,736.59 530.2,738.93 532.65,741.85 C 544.09,754.09 555.37,766.48 566.49,779.01 C 568.29,780.92 570.27,782.64 572.43,784.15 C 580.58,790.1 589.3,795.04 598.6,798.95 C 603.36,801.01 608.33,802.15 613.5,802.35 C 615.45,802.13 617.4,802.05 619.34,802.12 C 620.12,803.48 620.67,804.94 620.99,806.5 C 621.98,810.85 622.9,815.21 623.74,819.58 C 624.93,822.68 627.18,824.25 630.5,824.28 C 634.39,824.19 636.84,822.26 637.83,818.47 C 637.96,817.48 637.96,816.5 637.83,815.51 C 635.83,802.07 631.53,789.41 624.94,777.53 C 588.02,709.05 551.13,640.56 514.26,572.07 C 510.93,563.77 510.2,555.25 512.06,546.51 C 513.39,539.84 517.26,535.44 523.67,533.31 C 530.9,532.17 537.47,533.8 543.37,538.22 C 547.68,541.19 551.4,544.78 554.52,548.98 C 557.19,553.29 559.73,557.67 562.13,562.14 C 586.13,605.9 610.15,649.65 634.18,693.38 C 636.36,697.43 639.63,698.78 643.99,697.45 C 647.31,695.82 648.74,693.17 648.3,689.49 C 646.43,682.96 645.48,676.3 645.45,669.51 C 645.32,664.01 646.37,658.76 648.6,653.75 C 650.84,649.09 654.31,645.68 659.02,643.54 C 663.52,641.21 668.28,640.15 673.32,640.37 C 681.32,641.86 687.29,646.18 691.23,653.33 C 692,655.74 693.14,657.94 694.66,659.93 C 698.53,662.85 702.13,662.56 705.47,659.06 C 706.06,658.24 706.5,657.33 706.77,656.35 C 706.65,650.77 708.68,646.1 712.85,642.35 C 716.96,638.65 721.66,635.97 726.95,634.34 C 730.75,633.59 734.45,633.92 738.05,635.34 C 744.38,638.08 749.79,642.08 754.26,647.35 C 757.54,651.09 760.58,655.02 763.39,659.12 C 766.79,661.73 770.17,661.7 773.54,659.05 C 774.19,658.41 774.7,657.68 775.06,656.84 C 775.5,654.45 776.24,652.16 777.29,649.98 C 778.53,648.18 780.08,646.71 781.95,645.57 C 789.12,641.24 796.83,639.8 805.07,641.27 C 821.78,646.74 834.36,657.2 842.82,672.65 C 859.12,701.67 873.1,731.76 884.75,762.93 C 889.82,776.55 893.53,790.53 895.87,804.87 C 896.82,821.09 897.91,837.3 899.13,853.5 C 900.26,865.15 901.64,876.76 903.25,888.35 C 905.29,901.3 908.16,914.05 911.85,926.63 C 911.74,927.74 911.11,928.39 909.96,928.56 Z M 624.26,587 C 624.1,580.25 626.08,574.21 630.21,568.9 C 633.32,565.48 637.14,563.29 641.68,562.34 C 644.26,561.74 646.87,561.35 649.5,561.15 C 652.45,561.36 655.11,562.34 657.47,564.09 C 660.25,567.38 661.43,571.19 661.01,575.5 C 659.79,587.26 654.26,596.39 644.39,602.89 C 641.95,604.35 639.32,605.25 636.5,605.59 C 633.03,605.48 630.35,603.96 628.44,601.04 C 625.74,596.76 624.35,592.08 624.26,587 Z"/></g>
</svg>
