<?xml version="1.0" encoding="UTF-8"?>
<!DOCTYPE svg PUBLIC "-//W3C//DTD SVG 1.1//EN" "http://www.w3.org/Graphics/SVG/1.1/DTD/svg11.dtd">
<svg xmlns="http://www.w3.org/2000/svg" version="1.1" width="1080px" height="1080px" style="shape-rendering:geometricPrecision; text-rendering:geometricPrecision; image-rendering:optimizeQuality; fill-rule:evenodd; clip-rule:evenodd" xmlns:xlink="http://www.w3.org/1999/xlink">
<g><path fill="#ffffff" fill-opacity="0.31" d="M 269.88,112.25 C 270.01,152.11 270.04,191.98 269.95,231.84 C 269.54,232.01 269.26,231.88 269.12,231.45 C 269,193.14 268.96,154.82 268.99,116.5 C 268.87,114.99 269.03,113.54 269.47,112.14 C 269.6,112.18 269.74,112.22 269.88,112.25 Z"/></g>
<g><path fill="#ffffff" fill-opacity="0.435" d="M 286.39,111.71 C 286.93,112.89 287.13,114.16 287.01,115.51 C 287,153.5 287,191.5 287.01,229.5 C 287.03,230.2 286.97,230.89 286.85,231.58 C 286.78,231.93 286.59,232.13 286.26,232.19 C 286.01,192.96 285.92,153.74 285.97,114.5 C 285.97,113.55 286.11,112.62 286.39,111.71 Z"/></g>
<g><path fill="#ffffff" fill-opacity="0.408" d="M 966.8,808.86 C 927.31,808.99 887.81,809.04 848.31,809.01 C 848.17,808.19 848.55,807.84 849.43,807.95 C 888.42,807.97 927.42,808.01 966.41,808.08 C 966.82,808.2 966.95,808.46 966.8,808.86 Z"/></g>
<g><path fill="#ffffff" fill-opacity="0.341" d="M 846.35,825 C 885.8,825 925.25,825 964.7,825.01 C 964.92,825.42 964.83,825.74 964.43,825.96 C 925.43,825.99 886.43,826.01 847.43,826.04 C 846.55,826.15 846.19,825.8 846.35,825 Z"/></g>
<g><path fill="#ffffff" fill-opacity="0.118" d="M 779,344.99 C 779.4,344.89 779.68,345.05 779.82,345.47 C 780.17,348.12 780.19,350.78 779.87,353.45 C 779.72,353.87 779.43,354.06 779,354.01 C 779.03,351 779.03,348 779,344.99 Z"/></g>
<g><path fill="#ffffff" stroke="#ffffff" stroke-width="0.5" d="M 829.09,161 C 829.24,157.08 830.49,153.55 832.83,150.4 C 842.1,141.32 851.45,132.34 860.91,123.46 C 865.61,118.34 868.55,112.36 869.74,105.51 C 871.23,93.84 872.74,82.18 874.28,70.51 C 875.79,62.35 880.62,57.39 888.76,55.63 C 892.25,54.98 895.63,55.37 898.9,56.79 C 909.6,62.8 920.41,68.62 931.31,74.24 C 937.6,77.23 944.2,78.44 951.13,77.87 C 963.91,75.49 976.7,73.14 989.5,70.82 C 995.95,70.95 1000.98,73.69 1004.59,79.05 C 1007.26,83.55 1008.03,88.37 1006.88,93.5 C 1004.94,103.62 1002.99,113.73 1001.05,123.84 C 1000.78,126.39 1000.52,128.95 1000.28,131.5 C 1000.32,136.57 1001.38,141.41 1003.48,146.01 C 1009.54,157.25 1015.6,168.49 1021.64,179.74 C 1023.5,184.26 1023.44,188.77 1021.46,193.26 C 1019.32,198.04 1015.81,201.38 1010.93,203.27 C 1008.14,203.86 1005.33,204.37 1002.5,204.8 C 993.37,205.75 984.26,206.87 975.18,208.14 C 970.53,208.79 966.12,210.2 961.95,212.36 C 958.91,213.9 956.22,215.91 953.89,218.39 C 946.1,226.28 938.47,234.31 930.99,242.49 C 926.17,247.39 920.34,249.51 913.51,248.87 C 906.94,247.16 902.37,243.16 899.78,236.88 C 895.29,227.35 890.81,217.82 886.33,208.28 C 882.6,200.93 877.03,195.45 869.63,191.83 C 858.39,186.46 847.19,181.01 836.05,175.46 C 831.42,171.76 829.1,166.94 829.09,161 Z M 485.98,200 C 486.16,189.79 488.81,180.26 493.93,171.4 C 498.8,162.95 505.52,156.37 514.07,151.67 C 521.15,147.75 528.64,144.95 536.56,143.27 C 545.77,141.22 554.96,139.1 564.14,136.9 C 570.4,135.29 576.24,132.74 581.66,129.25 C 590.67,122.67 596.08,113.86 597.87,102.83 C 598.74,93.9 597.25,85.36 593.42,77.23 C 591.8,73.82 590.2,70.4 588.63,66.97 C 587.78,64.25 588.21,61.74 589.92,59.44 C 592.16,56.71 595,55.64 598.45,56.23 C 601.38,57.08 603.43,58.91 604.61,61.72 C 608.71,69.26 611.76,77.19 613.76,85.53 C 615.73,94.58 615.41,103.55 612.8,112.43 C 607.52,129.89 596.48,142.17 579.67,149.25 C 576,150.58 572.29,151.8 568.54,152.91 C 557.34,155.73 546.12,158.48 534.89,161.14 C 527.96,162.93 521.74,166.1 516.23,170.64 C 508.98,177.14 504.6,185.21 503.07,194.85 C 502.29,201.44 502.99,207.85 505.17,214.11 C 506.53,217.99 508.1,221.78 509.89,225.49 C 514.63,233.86 519.05,242.41 523.16,251.12 C 526.77,258.88 529.03,267 529.94,275.5 C 530.42,284.67 528.84,293.46 525.19,301.9 C 523.5,306.38 520.27,308.41 515.5,307.98 C 511.62,306.97 509.42,304.48 508.9,300.51 C 508.83,299.5 508.89,298.5 509.09,297.51 C 510.78,293.52 512.05,289.39 512.9,285.14 C 513.77,278.31 513.05,271.67 510.73,265.2 C 509.89,262.72 508.92,260.28 507.82,257.9 C 504.08,250.02 500.07,242.27 495.79,234.67 C 491.97,227.28 489.09,219.55 487.14,211.47 C 486.27,207.7 485.88,203.87 485.98,200 Z M 370.12,97 C 370.55,85.95 375.77,78.1 385.79,73.45 C 392.2,71 398.6,71.02 405,73.5 C 414.77,78.06 419.9,85.73 420.38,96.5 C 420.05,107.29 415.02,115.03 405.3,119.73 C 398.97,122.48 392.58,122.6 386.15,120.08 C 376.18,115.61 370.84,107.92 370.12,97 Z M 286.39,111.71 C 286.11,112.62 285.97,113.55 285.97,114.5 C 285.92,153.74 286.01,192.96 286.26,232.19 C 285.63,233.94 284.82,235.61 283.84,237.2 C 281.83,238.16 279.72,238.77 277.5,239.01 C 273.27,238.4 270.75,236.01 269.95,231.84 C 270.04,191.98 270.01,152.11 269.88,112.25 C 270.76,108.09 273.3,105.71 277.51,105.1 C 281.95,105.3 284.91,107.51 286.39,111.71 Z M 779,344.99 C 779.03,348 779.03,351 779,354.01 C 778.1,371.23 770.95,385.26 757.54,396.11 C 750.43,401.75 742.41,405.36 733.48,406.93 C 729.18,407.66 724.86,408.02 720.5,407.99 C 715.15,407.89 709.83,407.51 704.52,406.84 C 697.86,405.84 691.18,404.94 684.5,404.14 C 678.17,403.44 671.84,403.43 665.51,404.11 C 659.18,405.26 653.43,407.76 648.27,411.59 C 646.35,413.39 644.36,415.1 642.29,416.71 C 638.93,418.47 635.79,418.12 632.87,415.68 C 629.39,412.11 629.03,408.24 631.77,404.09 C 641.5,393.83 653.41,388.15 667.5,387.07 C 675.87,386.6 684.2,386.97 692.5,388.16 C 698.47,389.24 704.47,390.13 710.5,390.84 C 716.14,391.23 721.78,391.27 727.42,390.97 C 739.35,389.64 748.69,384 755.44,374.04 C 758.93,369.02 761.11,363.48 761.95,357.42 C 762.52,351.33 762.5,345.25 761.9,339.16 C 761.23,332.91 760.32,326.69 759.18,320.5 C 758.65,315.84 758.26,311.18 758.02,306.5 C 757.24,294.62 759.71,283.47 765.42,273.05 C 777.5,253.92 794.86,244.51 817.5,244.83 C 820.17,244.8 822.83,244.89 825.49,245.09 C 831.03,246.91 833.09,250.66 831.67,256.32 C 830.09,259.84 827.37,261.66 823.5,261.79 C 818.2,261.42 812.91,261.56 807.63,262.2 C 798,263.94 790.01,268.54 783.65,276.01 C 777.48,283.75 774.54,292.58 774.83,302.5 C 774.84,305.87 774.96,309.25 775.18,312.61 C 775.9,318.94 776.79,325.24 777.86,331.52 C 778.46,335.99 778.84,340.48 779,344.99 Z M 187.13,478.95 C 198.1,438.8 209.22,398.68 220.5,358.6 C 225.47,344.41 233.89,332.69 245.74,323.43 C 254.57,316.36 264.5,311.66 275.56,309.31 C 279.16,308.38 282.81,307.84 286.53,307.71 C 287.5,307.53 288.38,307.74 289.16,308.33 C 329.12,359.63 366.74,412.6 402.03,467.22 C 456.13,551.79 504.23,639.65 546.32,730.8 C 565.8,773.73 584.04,817.19 601.04,861.17 C 604.11,869.56 607.23,877.94 610.4,886.3 C 610.7,886.86 610.71,887.41 610.43,887.96 C 557.12,902.99 503.78,917.92 450.42,932.76 C 449.45,933 448.47,933.23 447.5,933.44 C 447.06,933.6 446.69,933.51 446.39,933.18 C 438.31,913.78 429.89,894.55 421.12,875.5 C 416.25,864.96 411.38,854.42 406.5,843.89 C 405.44,841.41 404.18,839.05 402.71,836.81 C 402.46,836.05 402.22,835.29 401.99,834.52 C 390.66,811.02 379.01,787.7 367.02,764.53 C 366.72,763.88 366.29,763.32 365.73,762.86 C 364.53,759.78 363.1,756.8 361.46,753.92 C 320.27,676.85 274.66,602.49 224.64,530.85 C 212.31,513.42 199.81,496.12 187.13,478.95 Z M 311.15,310.17 C 311.55,310.08 311.94,310.1 312.33,310.21 C 319.23,312.85 326.19,315.35 333.2,317.69 C 371,331.68 407.24,348.93 441.92,369.46 C 466.1,383.86 489.47,399.48 512.02,416.32 C 550.4,445.73 585.87,478.32 618.43,514.08 C 627.77,524.67 636.97,535.38 646.04,546.21 C 685.3,594.77 717.96,647.43 744.01,704.19 C 749.19,716.36 754.29,728.56 759.32,740.8 C 761.95,747.98 764.5,755.19 766.95,762.44 C 770.39,772.19 771.65,782.21 770.74,792.5 C 769.66,800.57 767.61,808.38 764.58,815.92 C 759.41,827.2 752.16,836.92 742.83,845.1 C 738.82,848.2 734.6,850.99 730.18,853.47 C 725.98,855.43 721.66,857.08 717.23,858.42 C 688.31,866.6 659.37,874.68 630.41,882.65 C 629.35,883 628.3,883.17 627.25,883.17 C 619.94,863.67 612.46,844.24 604.8,824.87 C 594.83,800.38 584.54,776.02 573.93,751.8 C 573.63,751.09 573.22,750.45 572.7,749.88 C 572.46,749.11 572.26,748.34 572.09,747.55 C 569.41,741.54 566.75,735.53 564.13,729.5 C 562.52,725.83 560.71,722.28 558.7,718.84 C 558.45,718.09 558.24,717.34 558.06,716.57 C 556.03,712.31 554,708.04 551.99,703.78 C 551.67,703.07 551.24,702.43 550.69,701.88 C 550.09,699.66 549.23,697.53 548.12,695.5 C 536.16,670.94 523.95,646.51 511.47,622.2 C 508.63,616.98 505.82,611.74 503.04,606.48 C 502.73,605.85 502.3,605.3 501.77,604.84 C 500.04,600.97 498.14,597.18 496.06,593.47 C 495.75,592.84 495.32,592.3 494.77,591.85 C 493.88,589.45 492.76,587.15 491.43,584.94 C 477.34,559.59 462.86,534.47 447.99,509.57 C 432.03,483.41 415.64,457.51 398.82,431.9 C 380.93,405.2 362.53,378.85 343.63,352.87 C 332.93,338.51 322.1,324.28 311.15,310.17 Z M 770.66,561 C 770.94,556.82 773.08,554.09 777.1,552.81 C 785.55,549.19 794.35,547.73 803.51,548.43 C 810.48,549.23 817.2,551.03 823.64,553.82 C 834.55,558.81 845.32,564.09 855.93,569.68 C 860.84,571.94 865.92,573.67 871.17,574.88 C 875.83,575.55 880.49,575.57 885.15,574.94 C 899.29,571.74 909.16,563.46 914.77,550.11 C 915.91,547.15 916.93,544.15 917.82,541.1 C 920.25,530.56 922.68,520.01 925.12,509.47 C 927.56,500.19 931.64,491.7 937.36,484 C 945.91,473.89 956.65,467.39 969.59,464.49 C 978.26,462.53 986.86,462.8 995.4,465.29 C 999.59,466.46 1003.69,467.88 1007.7,469.54 C 1012.47,471.79 1017.22,474.07 1021.96,476.38 C 1025.25,478.42 1026.66,481.35 1026.21,485.19 C 1025.41,488.88 1023.17,491.16 1019.5,492.05 C 1017.87,492.25 1016.27,492.08 1014.71,491.56 C 1008.78,488.35 1002.67,485.53 996.38,483.1 C 990.03,480.55 983.45,479.6 976.65,480.25 C 968.65,481.37 961.53,484.48 955.28,489.6 C 950.53,493.91 946.9,499.03 944.39,504.95 C 942.72,509.18 941.33,513.5 940.21,517.9 C 938.3,527.46 936.14,536.96 933.75,546.41 C 931.21,555.94 926.93,564.6 920.91,572.4 C 916.62,577.6 911.49,581.77 905.52,584.92 C 895.94,590.62 885.6,592.95 874.5,591.92 C 866.01,591.02 857.87,588.82 850.07,585.33 C 840.28,580.45 830.53,575.51 820.81,570.5 C 815.51,567.9 809.95,566.1 804.13,565.11 C 798.75,564.49 793.44,564.89 788.22,566.31 C 785.93,567.08 783.69,567.97 781.49,568.96 C 776.58,569.9 773.09,568.1 771.04,563.55 C 770.82,562.71 770.7,561.86 770.66,561 Z M 117.82,729.01 C 117.84,728.17 117.95,727.34 118.15,726.53 C 139.18,650.96 160.14,575.38 181.05,499.78 C 181.19,499.65 181.34,499.52 181.48,499.39 C 193.21,516.15 205.08,532.83 217.1,549.43 C 228.92,566.98 240.71,584.54 252.49,602.12 C 263.68,619.81 274.86,637.51 286.04,655.21 C 296.58,673.39 307.16,691.54 317.76,709.68 C 327.53,727.53 337.32,745.35 347.14,763.17 C 357.26,782.77 367.3,802.41 377.27,822.1 C 386.27,841 395.29,859.9 404.31,878.8 C 412.61,897.9 420.95,916.99 429.32,936.07 C 429.66,936.75 429.79,937.48 429.71,938.24 C 374.32,953.81 318.9,969.3 263.42,984.7 C 262.57,985.04 261.76,984.98 260.99,984.51 C 250.62,962.7 239.93,941.07 228.93,919.6 C 223.94,910.24 218.98,900.87 214.04,891.48 C 213.73,890.85 213.31,890.3 212.78,889.85 C 212.48,889.11 212.21,888.35 211.97,887.59 C 194.61,855.62 176.53,824.06 157.74,792.9 C 144.73,771.41 131.42,750.12 117.82,729.01 Z M 956.44,700 C 956.82,689.09 961.92,681.29 971.77,676.58 C 977.95,674.16 984.18,674.03 990.45,676.2 C 1000.66,680.62 1006.11,688.38 1006.8,699.5 C 1006.26,710.6 1000.94,718.46 990.84,723.07 C 984.38,725.62 977.96,725.51 971.59,722.74 C 962.07,718.14 957.03,710.56 956.44,700 Z M 53.59,966 C 53.75,960.41 54.62,954.92 56.19,949.55 C 71.54,894.22 86.94,838.89 102.38,783.58 C 102.3,782.14 102.66,780.83 103.46,779.65 C 105.08,774.2 106.5,768.71 107.73,763.17 C 108.89,760.11 109.87,756.98 110.68,753.79 C 110.73,752.72 110.88,751.66 111.13,750.62 C 111.27,750.51 111.42,750.4 111.57,750.29 C 112.01,751.05 112.37,751.86 112.63,752.72 C 124.73,771.36 136.54,790.19 148.04,809.21 C 177.27,858.18 204.62,908.17 230.1,959.18 C 235.03,969.2 239.86,979.25 244.61,989.33 C 244.51,989.49 244.4,989.65 244.29,989.81 C 205.03,1000.83 165.74,1011.77 126.42,1022.62 C 121.85,1023.77 117.21,1024.49 112.5,1024.78 C 97.25,1024.4 84.09,1018.97 73,1008.5 C 70.89,1006.6 68.94,1004.54 67.16,1002.33 C 64.5,998.96 62.02,995.47 59.74,991.87 C 58.28,988.37 56.96,984.82 55.78,981.21 C 55.25,978.97 54.71,976.74 54.16,974.5 C 53.93,971.67 53.74,968.84 53.59,966 Z M 848.31,809.01 C 887.81,809.04 927.31,808.99 966.8,808.86 C 968.07,809.4 969.3,810.02 970.5,810.7 C 970.75,810.71 970.98,810.65 971.19,810.53 C 971.93,812.48 972.56,814.47 973.08,816.5 C 972.94,821.95 970.15,824.78 964.7,825.01 C 925.25,825 885.8,825 846.35,825 C 841.76,824.04 839.39,821.21 839.25,816.52 C 839.65,814.3 840.54,812.3 841.92,810.54 C 843.11,810.02 844.3,809.54 845.51,809.1 C 846.44,809 847.37,808.97 848.31,809.01 Z"/></g>
</svg>
